<svg width="66" height="30" viewBox="0 0 66 30" fill="none" xmlns="http://www.w3.org/2000/svg">
    <path d="M15.174 9.274c.037-.186.206-.243.315-.358v-.22c-.08-.011-.225.033-.3-.007-.065-.033-.101-.114-.168-.146a2.01 2.01 0 0 1-.563-.153h-.263l-.008.095c-.04-.027-.047-.04-.087-.015-.035.123-.25.187-.337.315a3.037 3.037 0 0 0-.24.606l-.147.27c-.047.112-.044.223-.088.344.143.09.298.159.46.205l.359-.051c.141-.008.293.082.373.044.116-.29.358-.448.526-.687-.024-.03-.02-.018 0-.052l-.051-.014.014-.03c-.016-.001-.01.004-.029-.007l.008-.014.226-.125z" fill="#fff"/>
    <path d="m12.111 23.434.015-.008.051-.292.059-.614a98.013 98.013 0 0 1-.264-.08l-.021.029c.023.232.067.462.131.687l-.022.11.051.168z" fill="#DC0000"/>
    <path d="m19.205 6.167-6.987-4.034L1.076 8.567v12.866l11.142 6.434 11.143-6.434V8.567l-3.85-2.223c-1.745.682-3.61 1.403-3.61 1.406.127.024.252.065.37.12l.24.03a.805.805 0 0 1 .542.424l-.022.263a.469.469 0 0 1-.073.41l-.037.124c-.25.29-.594.484-.972.548l-.03.176c-.38.048-.71.562-.979.753l-.343.16-.11.103c-.054.026-.051-.033-.095.014a.803.803 0 0 1-.38.117l.22.292c.016.054-.02.192.007.257l.19.19c.053.072.066.186.117.255.076.078.156.151.24.22.11.112.103.34.19.453.035.027.07.053.103.08.314.4.59.829.826 1.28l.256.54c.019.039.105.151.088.205-.035.104-.19.222-.256.336l.548 1.038.578 1.155.658.87.402.395.606.629c.497.392 1.001.773 1.52 1.14.303.213.602.325.659.79a1.61 1.61 0 0 1-1.353.3 4.05 4.05 0 0 0-.767 0c-.08.006-.25-.03-.3.014l-.431.577-.227.059a6.31 6.31 0 0 1-1.506.102c-.325.573-1.063.857-1.776 1.075l-.57.175-.073-.153c-.153-.055-.724.129-.819.05l-.088-.372h-.007l-.102.336-.11.592-.154.49c-.032.108.035.224 0 .35l-.065.154c-.005.012-.017.077-.03.052l.03.365c.022.153.053.304.095.453.15.236.262.496.329.768a7.235 7.235 0 0 1-1.177-.059l.014-.453c-.155.076-.714.344-.906.154 0-.494.29-.82.38-1.236a4.694 4.694 0 0 0-.183-2.149c-.326.09-.662.141-1.001.154l-.095-.168h-.007c-.066.057-.23.175-.337.153l-.263-.621c-.16-.497-.378-1.057-.526-1.594l-.263-1.513v.015l-.446.665-.373.548-.387.768-.22.409-.38 1.009h-.014c-.055-.032-.068-.076-.11-.117l-.241.153-.066-.022c-.032-.096-.177-.33-.146-.468a1.67 1.67 0 0 1 .175-.372l.373-.768a22.27 22.27 0 0 1 1.272-2.485l.548-.812.139-.928c.135-.553.225-1.122.395-1.645l.139-.482c.01-.032.057-.168.058-.161.021-.064.01-.159.037-.226a7.385 7.385 0 0 1 .935-1.755c.058-.078.345-.462.3-.504l-.044-.103.278-.511c.02-.057-.004-.184.044-.234a.66.66 0 0 0 .139-.249c.032-.142-.13-.415-.161-.511a2.154 2.154 0 0 0-.168-.527l-.183-.044c-.154.077-.27.273-.548.198-.016-.07-.071-.15-.051-.205a.602.602 0 0 0 .219-.146c-.055-.02-.072-.066-.103-.11-.191-.279-.035-.508.022-.79a1.667 1.667 0 0 0-.058-.35c-.111.02-.192-.089-.249-.168.05-.068.16-.145.183-.227-.205-.096.108-.424.117-.482.012-.114-.289-.366-.314-.549a1.898 1.898 0 0 0 1.571-.409l.015.007.03.037-.067.343a.603.603 0 0 0 .256-.226c-.047-.2-.128-.391-.24-.563.098-.113.175-.239.35-.263v-.007a.853.853 0 0 0-.197-.344.203.203 0 0 0-.073.058c-.015-.082-.154-.137-.198-.204-.077-.12-.02-.297-.03-.424l-.021.014.015-.08h-.008c-.013.023.005.017-.022.015v-.293l-.014.227V4.64l-.022.058c.006-.175.051-.348.131-.504l-.065.088c.032-.178.185-.29.263-.424l-.066.036v-.007a.948.948 0 0 1 .424-.3c.003.02-.007.004.007.022.05-.034.054-.02.117-.05l-.102-.016a.889.889 0 0 1 .285 0l-.022-.029a5.935 5.935 0 0 1-.058-.014c.074 0 .113.025.153.014 0 .023-.007.01.007.03.046-.038.084.025.117.014.015-.016.038-.045.073-.037h.03c-.023.035-.003.033-.051.052v.007c.069-.02.142-.02.211 0-.017.019-.008.004-.014.022.136.083.265.175.387.278l-.05-.03c.165.23.284.492.35.768.028.115-.041.254-.051.365H13.2l-.008-.138c-.021.116.035.243.008.394a.681.681 0 0 1-.161.3c-.015-.027-.029-.02-.059-.03v.015l-.102.278.248.117c-.002.024.045.09.037.11a3.13 3.13 0 0 0-.051.526c-.024.147.155.273.263.322a.388.388 0 0 1-.007-.373l.263.175a1.337 1.337 0 0 0 1.17.044.913.913 0 0 1-.052.227l-.16.044-.066.139c.21.08.415.172.614.277.042.023.169.094.19.08.088-.04.174-.128.285-.109.011.071.067.068.043.143.057-.018 2.041-.778 3.549-1.357zM11.41 5.84l.014-.161.015.007v.044c.02-.033.004-.025.036-.015-.011-.035-.013-.037-.043-.036l.014-.037a.248.248 0 0 1 .066.205.084.084 0 0 1-.102 0v-.007zm1.688-.044h-.058c-.02-.013-.02-.014-.03-.037l.023.015-.015-.015.014-.087.015-.03.03.022-.023-.058a.242.242 0 0 1 .044.19z" fill="#fff"/>
    <path d="m20.791 5.841-1.117.44 3.823 2.207v13.024l-.034.02-11.245 6.492-.034-.02L.94 21.513V8.488l.034-.02 11.245-6.492.034.02 7.117 4.108 1.128-.432-8.279-4.78L0 7.946v14.108l12.218 7.055 12.219-7.055V7.946L20.79 5.84zM38.348 23.349V10.655c0-1.064-.465-2.171-2.038-2.171-1.573 0-2.038 1.107-2.038 2.17V23.35h-3.323V10.566c0-2.57 1.373-4.231 5.36-4.231 3.988 0 5.362 1.661 5.362 4.231v12.783h-3.323zM53.459 15.683h-5.206v7.666H44.93V6.667h8.861v2.149h-5.538v4.719h5.206v2.148zM55.278 6.667H66v2.149h-3.7v14.533h-3.323V8.816h-3.7v-2.15z" fill="#fff"/>
</svg>
