<svg viewBox="0 0 108 40" fill="none" xmlns="http://www.w3.org/2000/svg">
    <path d="M61.728 30.981V20.903h-5.36V30.98H52V9.047h4.37v9.03h5.36v-9.03h4.368v21.934h-4.369zM74.4 24.66v1.078c0 1.398.611 2.855 2.68 2.855 2.068 0 2.68-1.457 2.68-2.855v-.874c0-1.747-.642-2.534-2.477-3.233l-3.408-1.34c-2.184-.816-3.699-2.447-3.699-4.894v-1.223c0-3.379 1.835-5.564 6.758-5.564 4.777 0 6.612 2.185 6.612 5.564v1.02h-4.37v-.904c0-1.66-.523-2.854-2.242-2.854-1.835 0-2.389 1.194-2.389 2.854v.67c0 1.311.816 2.04 2.185 2.622l3.583 1.486c2.097.844 3.816 1.951 3.816 4.98v1.807c0 3.379-1.806 5.563-7.05 5.563-5.243 0-7.049-2.184-7.049-5.563V24.66h4.37zM102.451 17.203c0 3.117-1.835 4.982-6.466 4.982H92.43v8.796h-4.37V9.047h7.923c4.632 0 6.467 1.894 6.467 4.981v3.175zm-10.02 2.156h2.971c1.98 0 2.68-.903 2.68-2.563v-2.36c0-1.66-.728-2.563-2.71-2.563h-2.941v7.486z" fill="#fff"/>
    <path fill-rule="evenodd" clip-rule="evenodd" d="M25.84 5.84 20 0l-5.84 5.84a15.334 15.334 0 0 1 11.68 0zM40 20l-5.84-5.84a15.334 15.334 0 0 1 0 11.68L40 20zM20 40l-5.84-5.84a15.334 15.334 0 0 0 11.68 0L20 40zM0 20l5.84 5.84a15.334 15.334 0 0 1 0-11.68L0 20zm32.625-6.366A14.14 14.14 0 0 1 34.14 20a14.072 14.072 0 0 1-2.395 7.875l-.008.011.004-.005a14.144 14.144 0 0 1-23.456.04l.004.005-.004-.006a14.14 14.14 0 1 1 24.34-14.286zM19.751 33.797a12.89 12.89 0 0 0 .49 0h.023a3.537 3.537 0 0 1-.266-.111c-.085.04-.174.076-.266.11l.02.001zm.267-.203c.162.078.33.143.5.195.273-.01.544-.028.813-.054a4.22 4.22 0 0 1-1.324-.38c-.42.199-.87.328-1.33.38.265.026.532.044.8.054.172-.052.34-.117.501-.195l.02-.009.02.01zm.01-.33a4.35 4.35 0 0 0 1.773.418 13.763 13.763 0 0 0 2.408-.539 3.312 3.312 0 0 1-.271-.123 4.631 4.631 0 0 1-3.94 0 4.632 4.632 0 0 1-3.94 0 3.313 3.313 0 0 1-.27.122 13.78 13.78 0 0 0 2.413.54 4.357 4.357 0 0 0 1.786-.418l.02-.01.02.01zm3.93-.335c.127.065.256.122.39.17.12-.04.242-.082.363-.126a3.657 3.657 0 0 1-.773-.301 4.463 4.463 0 0 1-3.94 0 4.465 4.465 0 0 1-3.94 0c-.244.128-.502.23-.769.3.12.044.24.086.362.126.132-.048.261-.105.386-.17l.021-.01.021.01a4.531 4.531 0 0 0 3.898 0l.021-.01.021.01a4.531 4.531 0 0 0 3.898 0l.02-.01.022.01zm.002-.348c.283.151.586.264.9.336a13.7 13.7 0 0 0 .417-.164 3.862 3.862 0 0 1-1.34-.431 4.308 4.308 0 0 1-3.94 0 4.308 4.308 0 0 1-3.939 0c-.415.223-.867.37-1.334.43.137.057.275.111.414.163.313-.071.615-.184.898-.335l.022-.011.022.011a4.366 4.366 0 0 0 3.896 0l.022-.011.022.011a4.366 4.366 0 0 0 3.896 0l.022-.011.021.012zm0-.35c.458.25.963.404 1.483.452.16-.07.318-.14.475-.215h-.01a3.977 3.977 0 0 1-1.97-.497 4.157 4.157 0 0 1-3.94 0 4.155 4.155 0 0 1-3.94 0 3.975 3.975 0 0 1-1.97.496h-.005c.156.075.314.146.474.215a3.828 3.828 0 0 0 1.479-.452l.022-.013.023.013a4.208 4.208 0 0 0 3.895 0l.022-.013.022.013a4.209 4.209 0 0 0 3.895 0l.023-.012.022.012zm1.948.146c.07 0 .14-.002.21-.006.2-.099.399-.203.594-.312a4.182 4.182 0 0 1-.804.078 3.852 3.852 0 0 1-1.97-.517 4.012 4.012 0 0 1-3.94 0 4.01 4.01 0 0 1-3.94 0 3.853 3.853 0 0 1-1.97.517 4.15 4.15 0 0 1-.8-.079c.196.11.395.214.596.313a3.871 3.871 0 0 0 2.15-.492l.024-.013.023.013a4.058 4.058 0 0 0 3.894 0l.023-.013.023.014a4.058 4.058 0 0 0 3.894 0l.023-.014.023.014a3.871 3.871 0 0 0 1.947.497zm0-.33c.367 0 .733-.05 1.087-.149.318-.187.629-.387.932-.6l-.05-.029a3.873 3.873 0 0 1-3.94 0 3.875 3.875 0 0 1-3.94 0 3.873 3.873 0 0 1-3.939 0 3.874 3.874 0 0 1-3.94 0l-.028.016a.696.696 0 0 0-.018.01c.305.215.618.417.938.605.351.097.714.146 1.078.146a3.75 3.75 0 0 0 1.946-.518l.024-.014.024.014a3.915 3.915 0 0 0 3.892 0l.024-.014.024.014a3.914 3.914 0 0 0 3.892 0l.024-.014.024.015a3.75 3.75 0 0 0 1.946.518zm2.073-.822.027.015.028-.02.167-.12a3.045 3.045 0 0 1-.325-.184 3.742 3.742 0 0 1-3.94 0 3.743 3.743 0 0 1-3.94 0 3.742 3.742 0 0 1-3.94 0 3.744 3.744 0 0 1-3.94-.001 3.005 3.005 0 0 1-.323.182l.166.12.03.02.02-.01.083-.05.024-.016.025.015a3.777 3.777 0 0 0 3.89 0l.025-.015.024.016a3.778 3.778 0 0 0 3.892 0l.024-.016.024.016a3.777 3.777 0 0 0 3.891 0l.025-.015.024.015a3.777 3.777 0 0 0 3.891 0l.025-.015.024.015c.026.017.052.032.08.048zm-.078-.401c.121.08.248.152.38.214l.027-.02c.06-.044.119-.089.177-.134a3.196 3.196 0 0 1-.61-.322 3.618 3.618 0 0 1-3.94 0 3.618 3.618 0 0 1-3.939 0 3.617 3.617 0 0 1-3.94 0 3.618 3.618 0 0 1-3.94-.001c-.19.128-.393.236-.607.32.06.048.122.094.184.14l.02.015c.13-.062.257-.133.378-.213l.025-.017.025.017a3.648 3.648 0 0 0 3.89 0l.025-.017.025.017a3.646 3.646 0 0 0 3.89 0l.025-.017.025.017a3.646 3.646 0 0 0 3.89 0l.025-.016.025.017a3.647 3.647 0 0 0 3.89 0l.025-.017.025.017zm0-.354c.207.142.43.26.665.349.07-.056.14-.112.21-.17-.322-.099-.625-.248-.9-.442a3.497 3.497 0 0 1-3.94 0 3.497 3.497 0 0 1-3.94 0 3.499 3.499 0 0 1-3.94 0 3.5 3.5 0 0 1-3.94-.001 3.234 3.234 0 0 1-.898.441c.07.058.14.114.211.17.234-.089.456-.206.661-.348l.026-.018.026.018a3.524 3.524 0 0 0 3.888 0l.026-.018.026.018a3.524 3.524 0 0 0 3.888 0l.026-.018.026.018a3.522 3.522 0 0 0 3.888 0l.026-.018.026.019a3.522 3.522 0 0 0 3.888 0l.026-.018.025.018zm.001-.355c.29.208.615.365.958.464.073-.061.145-.122.217-.185a3.228 3.228 0 0 1-1.201-.542 3.385 3.385 0 0 1-3.94 0 3.385 3.385 0 0 1-3.94-.001 3.385 3.385 0 0 1-3.94 0 3.385 3.385 0 0 1-3.94 0c-.357.26-.765.445-1.197.542.072.063.144.124.216.184.342-.1.665-.256.955-.464l.026-.019.027.02a3.404 3.404 0 0 0 3.886 0l.027-.02.027.02a3.404 3.404 0 0 0 3.886 0l.027-.02.027.02a3.403 3.403 0 0 0 3.886 0l.027-.019.026.02a3.403 3.403 0 0 0 3.887 0l.027-.02.026.02zm0-.356c.374.277.803.469 1.259.56l.221-.2a3.206 3.206 0 0 1-1.506-.625 3.277 3.277 0 0 1-3.94 0 3.277 3.277 0 0 1-3.94 0 3.277 3.277 0 0 1-3.94 0 3.277 3.277 0 0 1-3.94 0 3.206 3.206 0 0 1-1.503.623c.073.068.147.134.221.2a3.142 3.142 0 0 0 1.255-.56l.027-.02.028.02a3.292 3.292 0 0 0 3.885.001l.027-.02.027.02a3.29 3.29 0 0 0 3.886 0l.027-.02.027.02a3.291 3.291 0 0 0 3.885 0l.028-.02.027.02a3.291 3.291 0 0 0 3.885 0l.028-.02.027.02zm.002-.358c.452.353.994.573 1.564.637l.228-.22a3.153 3.153 0 0 1-1.82-.682 3.175 3.175 0 0 1-3.94 0 3.173 3.173 0 0 1-3.94 0 3.173 3.173 0 0 1-3.94 0 3.175 3.175 0 0 1-3.94-.001c-.519.412-1.155.65-1.817.681.076.075.152.149.23.222a3.116 3.116 0 0 0 1.56-.638l.027-.022.028.022a3.184 3.184 0 0 0 3.884 0l.028-.022.028.023a3.183 3.183 0 0 0 3.884 0l.028-.022.028.022a3.184 3.184 0 0 0 3.884 0l.028-.022.028.022a3.185 3.185 0 0 0 3.883 0l.029-.022.028.022zm0-.358a3.06 3.06 0 0 0 1.88.687c.08-.081.16-.163.239-.247h-.009a3.078 3.078 0 0 1-2.139-.707 3.076 3.076 0 0 1-3.94 0 3.076 3.076 0 0 1-3.94 0 3.077 3.077 0 0 1-3.939 0 3.076 3.076 0 0 1-3.94 0 3.078 3.078 0 0 1-2.144.707c.079.083.158.164.238.245a3.062 3.062 0 0 0 1.877-.687l.03-.023.028.023a3.082 3.082 0 0 0 3.882 0l.03-.023.028.024a3.082 3.082 0 0 0 3.882 0l.029-.023.029.023a3.082 3.082 0 0 0 3.882 0l.029-.023.029.023a3.082 3.082 0 0 0 3.882 0l.029-.023.028.024zm1.942.357c.09 0 .179-.005.268-.013.077-.083.154-.168.23-.253a2.68 2.68 0 0 1-2.468-.814 2.686 2.686 0 0 1-3.94 0 2.684 2.684 0 0 1-3.94 0 2.686 2.686 0 0 1-3.94 0 2.684 2.684 0 0 1-3.94 0 2.676 2.676 0 0 1-2.462.816c.075.085.151.168.228.25a2.988 2.988 0 0 0 2.205-.705l.03-.024.029.025a2.986 2.986 0 0 0 3.88 0l.03-.025.03.025a2.986 2.986 0 0 0 3.88 0l.03-.024.03.025a2.986 2.986 0 0 0 3.88 0l.03-.025.03.025a2.986 2.986 0 0 0 3.88 0l.03-.025.03.025c.54.463 1.228.717 1.94.717zm-.987-.745c.055.025.112.049.169.07a12.564 12.564 0 1 0-18.06-.001c.057-.022.113-.045.168-.07a12.393 12.393 0 1 1 17.723 0zm.386.14c.146.039.296.063.446.073l-.273-.246-.173.173zM23.62 19.18c-.053.573.005 1.838.981 3.881.635 1.47.924 3.066.845 4.665a8.03 8.03 0 0 0-.006 1.1 2.346 2.346 0 0 0 2.438-1.024c.206.317.485.58.814.767l.054-.055.154-.157-.102-.091.445-.495.099.089c.131-.156.259-.316.383-.479l-.111-.08.39-.538.11.078c.114-.169.224-.34.33-.516l-.12-.069.333-.576.116.067c.097-.18.188-.363.276-.548l-.127-.056.27-.608.124.055c.076-.19.149-.38.216-.574l-.133-.043.206-.633.129.042c.056-.196.108-.394.154-.593l-.136-.03.138-.65.132.028c.035-.2.066-.403.091-.607l-.137-.014.07-.662.131.014c.015-.203.024-.407.028-.612h-.136v-.665h.132a12.24 12.24 0 0 0-.036-.612l-.136.014-.07-.662.133-.013a12.387 12.387 0 0 0-.099-.606l-.135.03-.139-.651.132-.029c-.049-.199-.103-.396-.162-.591l-.132.043-.206-.633.13-.042a11.88 11.88 0 0 0-.224-.57l-.128.056-.27-.608.123-.054a12.34 12.34 0 0 0-.283-.545l-.12.07-.332-.577.115-.066a12.153 12.153 0 0 0-.337-.512l-.111.08-.392-.538.108-.078c-.126-.161-.255-.32-.389-.474l-.102.092-.445-.494.099-.089c-.142-.147-.288-.29-.437-.43l-.091.1-.495-.444.089-.098a12.25 12.25 0 0 0-.479-.384l-.08.111-.538-.39.078-.11c-.169-.114-.34-.224-.516-.33l-.069.12-.576-.333.067-.116c-.18-.097-.362-.188-.548-.276l-.056.127-.608-.27.055-.124c-.19-.076-.38-.148-.574-.216l-.043.133-.633-.206.042-.129a12.108 12.108 0 0 0-.594-.154l-.028.136-.651-.138.028-.132a12.18 12.18 0 0 0-.607-.091l-.014.137-.662-.07.014-.131a12.237 12.237 0 0 0-.612-.028v.136h-.665V7.8c-.206.007-.41.019-.612.036l.014.136-.662.07-.013-.133c-.204.028-.406.06-.606.099l.029.135-.65.139-.029-.132c-.199.049-.396.103-.591.162l.043.132-.633.206-.042-.13c-.192.07-.383.145-.57.224l.056.128-.607.27-.056-.123c-.184.09-.365.184-.544.283l.07.12-.577.333-.066-.116a12.26 12.26 0 0 0-.512.337l.08.112-.538.39-.078-.107c-.161.126-.32.255-.474.389l.092.102-.494.445-.089-.098c-.147.142-.29.287-.43.436l.1.091-.444.495-.099-.089c-.131.156-.259.316-.383.479l.111.08-.39.538-.11-.078c-.114.169-.224.34-.33.516l.12.07-.333.575-.116-.067c-.096.18-.188.363-.276.548l.128.056-.271.608-.124-.055c-.076.19-.148.38-.216.574l.133.043-.206.633-.129-.042c-.056.196-.108.394-.154.594l.136.029-.138.65-.132-.028c-.035.2-.066.403-.091.607l.137.014-.07.662-.131-.014c-.015.203-.024.407-.028.612h.137v.665h-.133c.007.206.019.41.036.612l.136-.014.07.662-.133.014c.028.203.06.405.099.605l.135-.029.139.65-.132.029c.049.199.103.396.162.591l.132-.043.206.633-.13.042c.07.192.145.383.224.57l.128-.056.27.608-.123.055c.09.184.184.365.283.544l.12-.07.332.577-.115.066c.108.174.22.345.337.512l.112-.08.39.538-.107.078c.126.161.255.32.389.474l.102-.092.445.494-.098.089c.02.022.042.043.064.065l.033.034c.329-.188.607-.45.813-.767a2.347 2.347 0 0 0 2.574.993c.044-.424.048-.85.01-1.275-.132-1.395.093-3.485.77-4.611 1.275-2.119 1.318-3.164 1.13-3.668a1.598 1.598 0 0 0-.92-.844 1.727 1.727 0 0 0-.46-.133v-.002l-1.605-.119 1.236.375c-.866.175-1.543.543-1.867 1.017a8.092 8.092 0 0 1-.13.183l-.028.04c-.284.394-.672.933-.71 1.353a.605.605 0 0 0 .097.347 1.271 1.271 0 0 1-1.065.006.93.93 0 0 0 .4-.245c.148-.188.258-.402.325-.631.064-.18.138-.355.21-.524.18-.418.321-.748.193-.922-.064-.087-.185-.12-.37-.102-.463.03-1.764.723-1.79 1.098a.429.429 0 0 0 .022.152.875.875 0 0 1-.217-.09.328.328 0 0 0-.263-.036.2.2 0 0 0-.126.116.569.569 0 0 0 .067.427 3.082 3.082 0 0 1-.87-.582.236.236 0 0 1-.092-.19.374.374 0 0 1 .145-.234.39.39 0 0 1 .12-.041c.11-.029 1.559-1.04 1.684-1.148l.073-.064-.091-.032c-.16-.056-.243-.117-.255-.188-.025-.15.265-.357.666-.645h.001l.058-.042a6.762 6.762 0 0 0 2.459-2.874c.06-.152.11-.308.15-.467.017-.09.027-.18.032-.271.021.063.043.14.063.226a4.62 4.62 0 0 1-.159 2.134l-.03.096.098-.024 2.566-1.115.013-.005-.42.91.079.008c.406.035.805.133 1.182.292.757.32 1.4.862 1.843 1.555l-.06.13-.012.028-.2.443c-.757 1.716-1.117 3.021-1.204 4.365a7.792 7.792 0 0 0 .284 2.895 11.516 11.516 0 0 1-.074-1.899c.087-2.084.727-3.612 1.347-5.09l.047-.112c.087-.208.182-.42.267-.61l.007-.015.004-.01c.429-.958.834-1.863.684-2.793a2.038 2.038 0 0 0-.723-1.295l-.467-.669.53 1.373c-.697-.601-1.44-.944-2.052-.944a1.6 1.6 0 0 0-.1.003 10.6 10.6 0 0 1-.248.012h-.01l-.042.002h-.001c-.53.02-1.257.049-1.645.298a.66.66 0 0 0-.235.321 1.436 1.436 0 0 1-.735-.936c.144.104.313.169.49.188.262.001.521-.048.764-.145.198-.067.4-.12.596-.172h.001c.48-.127.858-.227.92-.451.032-.113-.02-.239-.16-.384-.339-.38-1.811-1.036-2.15-.806a.476.476 0 0 0-.12.129.97.97 0 0 1-.074-.26.354.354 0 0 0-.144-.247.213.213 0 0 0-.18-.03.631.631 0 0 0-.326.356 3.337 3.337 0 0 1-.09-1.16.264.264 0 0 1 .105-.212.41.41 0 0 1 .305-.034.424.424 0 0 1 .118.077c.1.076 1.949.645 2.127.68l.095.018-.03-.091c-.061-.18-.064-.293-.009-.353.115-.125.491-.014 1.012.14h.002l.074.022a7.884 7.884 0 0 0 4.264.157c.17-.051.338-.113.5-.184.099-.05.192-.108.281-.173-.052.081-.109.159-.17.233-.55.554-1.21.99-1.936 1.28l-.125.05 3.068 1.3-1.36.194.046.074c.256.4.439.843.54 1.308.166.75.17 2.149-.763 4.55a8.55 8.55 0 0 0-.597 3.893 8.05 8.05 0 0 0 .822 2.73 8.71 8.71 0 0 1-.526-2.982 9.7 9.7 0 0 1 .703-3.517c.498-1.284 1.023-2.876.879-4.194a3.279 3.279 0 0 1 1.574-.394c.183 0 .366.014.547.04l.087.012-.29-.935 2.24 1.709.092.061-.005-.11a4.73 4.73 0 0 1 .35-1.87c.036-.077.07-.141.1-.191-.014.085-.022.17-.024.256.005.155.02.31.044.465a6.617 6.617 0 0 0 1.672 3.244l.046.052h.001c.316.352.544.607.49.74-.025.064-.115.104-.276.123l-.096.012.058.078c.095.128 1.247 1.38 1.345 1.429a.36.36 0 0 1 .104.064c.06.068.09.157.086.247a.224.224 0 0 1-.125.158 2.974 2.974 0 0 1-.932.365.545.545 0 0 0 .148-.384.195.195 0 0 0-.095-.137.316.316 0 0 0-.256-.02.84.84 0 0 1-.217.038.404.404 0 0 0 .05-.136c.053-.358-1.026-1.28-1.454-1.404a.37.37 0 0 0-.373.019c-.157.137-.093.476-.011.907v.003c.033.172.067.35.09.533.014.23.074.454.174.662.079.129.189.236.32.31a1.223 1.223 0 0 1-.99-.225.586.586 0 0 0 .163-.306c.051-.403-.202-.99-.387-1.42a9.92 9.92 0 0 1-.102-.242c-.205-.511-.762-.996-1.537-1.34l1.264-.098-1.25-.212a1.51 1.51 0 0 0-1.449.139 1.78 1.78 0 0 0-.786 1.451zm7.426 7.991.547.315.583-1.01-.738-.426.265-.539.2.09-.168.376.577.257.474-1.066-.779-.347.208-.563.208.067-.128.393.6.195.361-1.11-.81-.263.146-.582.215.045-.086.404.618.13.242-1.14-.834-.178.086-.594.217.023-.043.41.628.066.122-1.16-.848-.09.023-.599h.22v.412h.63V19.52h-.852l-.04-.598.218-.023.043.41.627-.066-.121-1.16-.848.088-.102-.59.214-.046.085.403.618-.131-.243-1.142-.834.178-.163-.577.208-.068.128.392.6-.195-.36-1.11-.812.263-.222-.556.2-.09.167.377.577-.257-.475-1.066-.778.347-.28-.53.19-.11.205.357.547-.316-.584-1.01-.738.426-.334-.499.177-.128.243.333.51-.37-.685-.945-.69.501-.384-.46.163-.147.276.306.469-.422-.781-.867-.634.57-.43-.418.146-.163.307.276.422-.469-.867-.78-.57.633-.472-.371.129-.177.333.242.371-.51-.944-.687-.5.69-.509-.32.11-.19.357.207.316-.547-1.011-.583-.426.738-.539-.265.09-.2.376.168.257-.577-1.066-.474-.347.778-.563-.207.068-.208.392.128.195-.6-1.11-.361-.263.81-.582-.147.045-.214.404.086.131-.617-1.142-.243-.177.834-.594-.086.023-.217.41.043.066-.628-1.16-.122-.09.848-.599-.023v-.22h.412v-.63H19.52v.852l-.6.04-.022-.218.41-.043-.066-.628-1.16.122.089.848-.592.103-.045-.215.403-.085-.131-.618-1.142.243.178.834-.577.163-.068-.208.392-.128-.195-.6-1.11.36.263.811-.557.223-.089-.2.377-.167-.257-.577-1.066.475.347.778-.53.28-.11-.19.357-.205-.316-.547-1.01.583.426.739-.498.334-.13-.178.334-.242-.37-.51-.945.685.501.69-.46.384-.147-.162.306-.276-.422-.47-.867.781.57.634-.418.43-.163-.147.276-.306-.469-.422-.78.867.633.57-.371.472-.177-.129.242-.333-.51-.371-.687.944.69.5-.32.508-.19-.109.207-.357-.547-.316-.583 1.011.738.426-.265.539-.2-.09.168-.376-.577-.257-.474 1.066.779.347-.208.563-.208-.068.128-.392-.6-.195-.361 1.11.81.263-.146.582-.215-.045.086-.404-.617-.13-.243 1.14.834.178-.086.594-.217-.023.043-.41-.628-.066-.122 1.16.848.09-.023.599h-.219v-.412h-.631v1.166h.852l.04.6-.218.022-.043-.41-.627.066.121 1.16.848-.088.102.59-.214.046-.085-.403-.618.131.243 1.142.834-.178.163.578-.208.067-.127-.392-.6.195.36 1.11.81-.264.223.557-.2.09-.167-.377-.577.257.475 1.066.779-.347.28.53-.19.11-.206-.357-.547.316.583 1.01.739-.426.334.498-.177.13-.243-.334-.51.37.685.945.69-.501.384.46-.162.147-.276-.306-.462.415c.1.041.202.075.306.101l-.074-.081.217-.195.276.306.41-.37-.59-.708-.681.494-.486-.669.235-.17.243.333.447-.325-.514-.767-.728.421-.414-.716.253-.146.206.357.478-.276-.43-.816-.77.342-.336-.755.267-.119.167.377.505-.225-.343-.856-.8.26-.256-.787.278-.09.127.392.525-.17-.251-.888-.823.175-.172-.81.285-.06.085.404.54-.115-.156-.91-.837.089-.087-.823.29-.03.043.41.55-.058-.062-.92h-.841v-.828h.291v.413h.552l.036-.922-.837-.088.086-.822.29.03-.043.41.55.058.13-.914-.822-.174.172-.81.285.061-.086.403.54.115.226-.894-.8-.26.255-.787.278.09-.128.393.526.17.318-.866-.769-.342.337-.756.266.119-.168.377.505.224.407-.828-.729-.42.414-.716.252.145-.206.357.478.276.492-.78-.681-.495.486-.669.236.171-.243.334.447.325.57-.726-.625-.563.554-.614.216.195-.276.306.41.37.644-.662-.563-.625.614-.554.195.217-.306.276.37.41.708-.59-.494-.681.669-.486.17.235-.333.243.325.447.766-.514-.42-.728.716-.414.146.252-.357.207.276.478.816-.43-.342-.77.755-.336.119.267-.377.167.225.505.856-.343-.26-.8.787-.256.09.277-.392.128.17.525.888-.251-.175-.823.809-.172.06.285-.403.085.115.54.91-.156-.089-.837.823-.087.03.29-.41.043.058.55.92-.062v-.841h.827v.291h-.412v.552l.922.036.088-.837.822.086-.03.29-.41-.043-.058.55.913.13.175-.822.81.172-.061.284-.403-.085-.116.54.895.226.26-.8.787.256-.09.277-.393-.128-.17.526.865.318.343-.769.755.337-.118.266-.377-.168-.224.505.827.407.421-.729.716.414-.145.252-.357-.206-.277.478.781.492.495-.681.669.486-.171.236-.334-.243-.325.447.726.57.563-.625.614.554-.195.216-.306-.276-.37.41.662.644.625-.563.553.614-.216.195-.276-.306-.41.37.59.708.681-.494.486.669-.235.17-.243-.333-.447.325.514.766.728-.42.414.716-.252.146-.207-.357-.478.276.43.816.77-.342.335.755-.266.119-.167-.377-.505.225.343.856.8-.26.256.787-.277.09-.128-.393-.525.171.251.888.823-.175.172.809-.285.06-.086-.403-.54.115.157.91.837-.089.087.823-.29.03-.043-.41-.55.058.062.92h.841v.828h-.291v-.413h-.552l-.036.922.837.088-.086.823-.29-.03.043-.411-.55-.058-.13.913.822.175-.171.81-.285-.061.085-.403-.54-.116-.226.895.8.26-.256.787-.276-.09.127-.393-.526-.17-.318.866.769.342-.337.756-.266-.119.168-.377-.505-.225-.407.828.729.421-.414.716-.252-.145.206-.357-.478-.277-.492.781.681.495-.486.669-.236-.171.243-.334-.447-.325-.57.726.574.517c.067-.014.133-.03.199-.05l-.542-.487.371-.472.177.129-.242.333.51.371.687-.944-.69-.5.32-.509.19.11-.207.357z" fill="#fff"/>
</svg>
