<svg viewBox="0 0 68 28" fill="none" xmlns="http://www.w3.org/2000/svg">
    <g clip-path="url(#a)" fill="#fff">
        <path d="M31.75 5.317h8.61v2.087h-5.381v4.585h5.058v2.09h-5.058v5.359h5.596v2.087h-8.826V5.317zM42.346 5.317h3.25l2.26 5.037 2.238-5.037h3.273l-3.897 8.008 4.047 8.2H50.16l-2.303-5.36-2.303 5.36h-3.358l4.047-8.2-3.896-8.008zM66.418 17.63c0 2.497-1.464 3.895-4.993 3.895h-5.64V5.317h5.64c3.53 0 4.993 1.507 4.993 4.111v8.201zm-7.404 1.808h1.98c1.55 0 2.196-.647 2.196-2.11V9.514c0-1.442-.453-2.11-1.981-2.11h-2.195v12.034zM12.774.776A12.66 12.66 0 0 0 .13 13.421a12.66 12.66 0 0 0 12.645 12.646A12.66 12.66 0 0 0 25.42 13.42 12.66 12.66 0 0 0 12.774.776zm1.161.524-1.138 2.648-.097.13-.043.001a10.69 10.69 0 0 0-2.939.492l-.614.22 4.831-3.49zm5.544 1.954L17.233 5.06l-.146.069-.04-.019a10.674 10.674 0 0 0-2.826-.943l-.646-.093 5.904-.82zm3.982 4.325-2.824.543-.168-.008-.026-.035A10.673 10.673 0 0 0 18.39 5.92l-.527-.385 5.599 2.043zm1.49 5.686-2.754-.847-.139-.082-.006-.043a10.697 10.697 0 0 0-.804-2.87l-.285-.587 3.989 4.43zm-24.38.156a12.143 12.143 0 0 1 2.197-6.98 6.096 6.096 0 0 0 1.17 8.214 8.932 8.932 0 0 0 8.83 7.695 11.502 11.502 0 0 0 4.173-.764l.079-.031-.04.075-1.247 2.346 1.441-1.192-.05.117a8.59 8.59 0 0 0-.555 2.118A12.202 12.202 0 0 1 .572 13.421zm16.757 11.321.011-.034c.527-1.936 2.008-3.118 2.987-3.9.537-.429.89-.712.842-.933-.024-.108-.145-.193-.37-.26l-.051-.015.038-.038c.19-.183.537-.526.788-.783a1.45 1.45 0 0 1 .48-.348 2.1 2.1 0 0 0 .547-.375c.121-.1.264-.173.418-.21a.511.511 0 0 0 .171-.072.513.513 0 0 0 .19-.351.36.36 0 0 0-.15-.278.516.516 0 0 0-.188-.09h-.001a.234.234 0 0 1-.165-.114 2.32 2.32 0 0 0-.886-.508l-.067-.023.036.061a.678.678 0 0 1-.03.73c-.12.153-.244.073-.365-.003-.075-.047-.137-.088-.193-.06-.052.022-.07.093-.079.145-.036.207-.443.596-1.064 1.014-.405.314-.871.54-1.368.667a.153.153 0 0 1-.123-.055c-.175-.206-.061-.916.05-1.603.039-.244.075-.47.099-.673a.65.65 0 0 1 .425-.576c.044-.023.143-.067.18-.09a1.035 1.035 0 0 0-.158-.132c-.109-.083-.114-.095-.123-.113a.045.045 0 0 1 .002-.038c.126-.152.294-.264.482-.321a2.442 2.442 0 0 0-.482-.052 1.74 1.74 0 0 0-.985.302l-.004.015.017.012a.477.477 0 0 1 .125.404 3.586 3.586 0 0 1-.707 1.829c-.117.07-.244.123-.376.158-.331.102-.673.208-.968 1.1-.3.908-2.743.908-3.545.908a6.622 6.622 0 0 1-6.125-4.126 6.098 6.098 0 0 0 6.131-2.492 6.097 6.097 0 0 1 6.096-2.497 6.592 6.592 0 0 0-6.09-4.09c-.797 0-3.222 0-3.515.888-.3.906-.65 1.015-.989 1.12-.13.033-.253.085-.368.154a3.542 3.542 0 0 0-.693 1.803.452.452 0 0 0 .112.379l.034.024-.011.04c-.296.211-.65.323-1.013.32a1.85 1.85 0 0 1-.543-.082c.199-.058.377-.172.514-.328.048-.055-.133-.136-.3-.294.054-.022.17-.077.217-.1a.625.625 0 0 0 .408-.552c.024-.205.06-.433.099-.674.105-.654.223-1.383.057-1.578a.121.121 0 0 0-.1-.045 3.74 3.74 0 0 0-1.35.662c-.605.407-1.018.798-1.052.994a.213.213 0 0 1-.096.169c-.072.032-.145-.015-.222-.063-.138-.088-.229-.132-.325-.01a.646.646 0 0 0-.027.695l.078.133-.146-.05a2.34 2.34 0 0 1-.9-.52.204.204 0 0 0-.15-.1.433.433 0 0 1-.2-.097.389.389 0 0 1-.16-.302.546.546 0 0 1 .2-.374.529.529 0 0 1 .181-.078c.15-.037.29-.106.408-.205.163-.155.35-.283.554-.38.179-.08.34-.196.471-.341.254-.26.605-.606.789-.784-.237-.07-.366-.164-.392-.283-.053-.241.307-.53.853-.965.977-.78 2.452-1.959 2.976-3.886l.002-.005-.015.003c.286-.117.577-.223.873-.319l-.027.012v.005a8.65 8.65 0 0 1-.56 2.134l1.464-1.211-1.32 2.485a11.534 11.534 0 0 1 4.184-.766 8.963 8.963 0 0 1 8.866 7.753 6.096 6.096 0 0 1 1.134 8.188 12.238 12.238 0 0 1-5.452 4.34z"/>
        <path d="M11.323 22.706c-.985-.18-1.94-.499-2.836-.945l-.026-.013-.132.063-2.153 1.731 5.577-.773-.43-.063zM15.84 22.3c-.954.302-1.945.468-2.944.494l-.032.001-.088.118-1.09 2.539 4.564-3.298-.41.147zM4.273 17.432a10.733 10.733 0 0 1-.807-2.876l-.004-.03-.126-.075-2.642-.811 3.768 4.184-.19-.392zM7.141 20.946a10.69 10.69 0 0 1-2.06-2.164l-.018-.023-.153-.007-2.707.52 5.289 1.931-.351-.257z"/>
    </g>
    <defs>
        <clipPath id="a">
            <path fill="#fff" transform="translate(.129 .776)" d="M0 0h66.289v25.29H0z"/>
        </clipPath>
    </defs>
</svg>
