<svg width="327" height="118" viewBox="0 0 327 118" fill="none" xmlns="http://www.w3.org/2000/svg">
    <path d="M103.331 18.518c0 1.728-.99 2.646-2.502 2.646h-2.304v-9.882h2.304c1.512 0 2.502.99 2.502 2.646v4.59zm2.52-4.734c0-2.502-1.674-4.338-4.77-4.338h-5.076V23h5.076c3.096 0 4.77-1.746 4.77-4.338v-4.878zm6.689 3.726 3.096 5.49h2.808l-3.348-5.778c1.458-.414 2.484-1.44 2.484-3.294v-.9c0-2.178-1.422-3.582-4.176-3.582h-5.256V23h2.52v-5.49h1.872zm-1.872-6.228h2.124c1.638 0 2.268 1.008 2.268 1.962v.468c0 .936-.738 1.962-2.268 1.962h-2.124v-4.392zM128.127 23h2.574l-3.852-13.554h-3.852L119.145 23h2.556l.972-3.744h4.464l.99 3.744zm-3.366-11.628h.324l1.602 6.138h-3.546l1.62-6.138zm12.14 11.898c3.384 0 4.878-1.494 4.878-4.248h-2.52c0 1.638-.648 2.412-2.358 2.412-1.584 0-2.538-.792-2.538-2.754v-4.914c0-1.962.81-2.754 2.394-2.754 1.602 0 2.394.864 2.394 2.25h2.52c0-2.376-1.638-4.086-4.914-4.086-3.33 0-4.914 1.674-4.914 4.338v5.418c0 2.664 1.728 4.338 5.058 4.338zm14.012-4.59c0 1.8-.864 2.754-2.448 2.754s-2.448-.954-2.448-2.754v-4.914c0-1.8.864-2.754 2.448-2.754s2.448.954 2.448 2.754v4.914zm2.52-4.986c0-2.862-1.8-4.518-4.968-4.518s-4.968 1.656-4.968 4.518v5.058c0 2.862 1.8 4.518 4.968 4.518s4.968-1.656 4.968-4.518v-5.058zm9.78-4.248h-2.52V23h2.52V9.446zM168.217 23v-6.156c0-1.08.594-1.818 1.692-1.818 1.134 0 1.71.738 1.71 1.818V23h2.484v-6.246c0-1.908-1.242-3.492-3.33-3.492-1.386 0-2.268.54-2.826 1.242l-.288-.972h-1.926V23h2.484zm8.17-9.468V23h2.484v-9.468h-2.484zm2.538-1.638V9.32h-2.592v2.574h2.592zm2.84-1.314v2.952h-1.764v1.764h1.764V20.3c0 1.944.864 2.97 2.808 2.97h2.016v-1.764h-1.116c-.81 0-1.224-.324-1.224-1.242v-4.968h2.286v-1.764h-2.286V10.58h-2.484zm6.206 2.952V23h2.484v-9.468h-2.484zm2.538-1.638V9.32h-2.592v2.574h2.592zM200.615 23v-6.642c0-1.836-1.494-3.096-3.942-3.096-2.484 0-3.888 1.278-3.888 2.952h2.484c0-.702.468-1.188 1.422-1.188.918 0 1.44.504 1.44 1.422v.954h-1.908c-2.628 0-3.78 1.242-3.78 2.772v.216c0 1.8 1.206 2.88 3.204 2.88 1.44 0 2.376-.612 2.754-1.242l.288.972h1.926zm-5.688-2.79c0-.774.594-1.296 1.746-1.296h1.458v.9c0 1.08-.648 1.692-1.8 1.692-.882 0-1.404-.414-1.404-1.188v-.108zm8.354-9.63v2.952h-1.764v1.764h1.764V20.3c0 1.944.864 2.97 2.808 2.97h2.016v-1.764h-1.116c-.81 0-1.224-.324-1.224-1.242v-4.968h2.286v-1.764h-2.286V10.58h-2.484zm6.205 2.952V23h2.484v-9.468h-2.484zm2.538-1.638V9.32h-2.592v2.574h2.592zM218.951 23l3.312-9.468h-2.538l-2.088 6.948-2.088-6.948h-2.538L216.323 23h2.628zm10.038-2.628v.036c0 .576-.486 1.098-1.656 1.098-1.08 0-1.656-.63-1.656-1.728v-.882h5.706v-2.304c0-1.998-1.584-3.33-4.104-3.33s-4.104 1.35-4.104 3.42v3.096c0 2.286 1.44 3.492 4.122 3.492 2.862 0 4.068-1.278 4.068-2.718v-.18h-2.376zm-3.33-3.726c.054-1.224.594-1.746 1.62-1.746 1.026 0 1.62.522 1.62 1.746v.738h-3.24v-.738zM124.541 45.52c0-4.84-2.72-7.64-9.28-7.64h-10.48V68h10.48c6.56 0 9.28-2.6 9.28-7.24V45.52zm-13.76-3.76h4.08c2.84 0 3.68 1.24 3.68 3.92V60.2c0 2.72-1.2 3.92-4.08 3.92h-3.68V41.76zM151.888 68l-3.88-10.36c-.88-2.28-1.6-3.04-3.32-3.56 2.56-.52 4.6-2.2 4.6-5.84v-3.12c0-4.6-3.16-7.24-8.48-7.24h-10.48V68h6V55.48h2.56c1.92 0 2.44.52 3.2 2.56l3.6 9.96h6.2zm-15.56-26.24h3.28c2.84 0 3.68 1.6 3.68 3.52v2.8c0 1.8-.84 3.52-3.68 3.52h-3.28v-9.84zm25.634 13.08 2.08-13.08h2.16l2.08 13.08h-6.32zm6.88 3.88 1.44 9.28h6.24l-5.16-30.12h-12.48L153.722 68h6.24l1.44-9.28h7.44zm17.799-20.84h-6V68h6V37.88zM211.873 68V44.92c0-4.64-2.48-7.64-9.68-7.64-7.2 0-9.68 3-9.68 7.64V68h6V45.08c0-1.92.84-3.92 3.68-3.92 2.84 0 3.68 2 3.68 3.92V68h6zm11.077-4.2v-5.92h-5.92v5.92h5.92zm0-14.96v-5.92h-5.92v5.92h5.92zM44.014 98.28c0-2.88-1.56-5.04-4.28-5.84 2.12-.76 3.48-2.6 3.48-5.44v-1.6c0-4.64-2.52-7.52-9.28-7.52h-9.68V108h10.48c6.76 0 9.28-2.76 9.28-7.44v-2.28zm-13.76 5.84v-9.36h3.88c2.6 0 3.88 1.32 3.88 3.96v1.44c0 2.64-1.28 3.96-3.88 3.96h-3.88zm0-22.36h3.08c2.6 0 3.88 1.28 3.88 3.88V87c0 2.56-1.2 4.04-3.88 4.04h-3.08v-9.28zM56.894 105c-2.04 0-2.84-1.04-2.84-2.6V86.96h-5.68v15.16c0 3.84 2.24 6.48 6.6 6.48 2.28 0 4.28-.8 5.2-2.04l.4 1.44h4.88V86.96h-5.68v15.44c0 1.56-.84 2.6-2.88 2.6zM81.26 86.96v15.24c0 1.56-.84 2.8-2.88 2.8s-2.88-1.24-2.88-2.8V86.96h-5.68v15.36c0 3.68 2.56 6.28 6.76 6.28 2.68 0 4.04-.8 4.68-1.72v5c0 1.56-.96 2.48-2.84 2.48s-2.84-1.08-2.84-2.48v-.44H69.9v.44c0 3.84 2.76 6.08 8.36 6.08s8.68-2.24 8.68-6.08V86.96h-5.68zm10.605-9.36V108h4.8l.4-1.84c.92 1.4 2.44 2.44 5.16 2.44 4.2 0 6.76-2.6 6.76-6.28v-9.68c0-3.72-2.6-6.28-6.8-6.28-2.76 0-4 .92-4.64 1.68V77.6h-5.68zm8.56 12.36c1.92 0 2.88 1.24 2.88 2.8v9.44c0 1.56-.96 2.8-2.88 2.8s-2.88-1.24-2.88-2.8v-9.44c0-1.56.96-2.8 2.88-2.8zM130.019 108V92.44c0-3.84-3.08-6.08-8.08-6.08s-8.08 2.24-8.08 6.08v.36h5.68v-.24c0-1.56.76-2.6 2.4-2.6s2.4 1.04 2.4 2.6v2.88h-3.6c-5.48 0-7.68 2.6-7.68 5.96v1.12c0 3.84 2.6 6.08 6.8 6.08 2.4 0 4.28-1 4.96-2.44l.4 1.84h4.8zm-11.28-6.4c0-1.6.96-2.8 3.04-2.8h2.56v3.56c0 1.48-.92 2.64-2.8 2.64s-2.8-1.12-2.8-2.68v-.72zm26.611-.8v1.6c0 1.56-.76 2.6-2.68 2.6-1.92 0-2.68-1.04-2.68-2.6v-9.84c0-1.56.76-2.6 2.68-2.6 1.92 0 2.68 1.04 2.68 2.6v.36h5.68v-.48c0-3.84-2.88-6.08-8.36-6.08-5.48 0-8.36 2.24-8.36 6.08v10.08c0 3.84 2.48 6.08 8.36 6.08 5.88 0 8.36-2.24 8.36-6.08v-1.72h-5.68zm10.382-23.2V108h5.68v-6.36l-.04-2.56 1.56 2.56 4.28 6.36h6.8l-8.52-11.76 7.92-9.28h-6.8l-3.72 4.56-1.52 2.08.04-2.12V77.6h-5.68zm49.841 30.4h6.32l-4.64-5.48c1-1.96 1.52-4.32 1.52-7.04v-2.44h-5.08v2.16c0 1.08-.08 1.96-.2 2.8l-4.4-5.28c3.64-2.76 5.32-4.68 5.32-8.52 0-3.68-2.68-6.92-7.88-6.92-5.56 0-7.92 3.32-7.92 7.16 0 2.6.88 4.44 3.64 7.76-4 2.96-5.24 5.24-5.24 8.52 0 4.8 2.96 7.88 9.48 7.88 3.04 0 5.6-.76 7.64-2.28l1.44 1.68zm-8.6-3.28c-2.88 0-4.36-1.68-4.36-3.8s.72-3.72 2.6-5.2l6.16 7.32c-1.08 1.12-2.56 1.68-4.4 1.68zm-2.76-20.32c0-2.12.92-3.24 2.32-3.24s2.32.84 2.32 3.36c0 1.72-.48 3.28-2.52 4.72l-.12.08c-1.76-2.08-2-3.24-2-4.92zm51.285 13.88c0-2.88-1.56-5.04-4.28-5.84 2.12-.76 3.48-2.6 3.48-5.44v-1.6c0-4.64-2.52-7.52-9.28-7.52h-9.68V108h10.48c6.76 0 9.28-2.76 9.28-7.44v-2.28zm-13.76 5.84v-9.36h3.88c2.6 0 3.88 1.32 3.88 3.96v1.44c0 2.64-1.28 3.96-3.88 3.96h-3.88zm0-22.36h3.08c2.6 0 3.88 1.28 3.88 3.88V87c0 2.56-1.2 4.04-3.88 4.04h-3.08v-9.28zM258.379 105c-2.04 0-2.84-1.04-2.84-2.6V86.96h-5.68v15.16c0 3.84 2.24 6.48 6.6 6.48 2.28 0 4.28-.8 5.2-2.04l.4 1.44h4.88V86.96h-5.68v15.44c0 1.56-.84 2.6-2.88 2.6zm12.966-18.04V108h5.68V97.6c0-4.84 1.72-6.84 6.2-6.84h.28v-4.4h-.12c-3.72 0-5.48 1.52-6.44 3.64l-.44-3.04h-5.16zm23.716 3c1.88 0 2.84 1.04 2.84 2.6V108h5.68V92.44c0-3.84-2.6-6.08-6.8-6.08-2.52 0-4.04 1.04-4.96 2.16l-.44-1.56h-4.88V108h5.68V92.56c0-1.56 1-2.6 2.88-2.6z" fill="#729"/>
</svg>
