<svg width="140" height="30" viewBox="0 0 140 30" fill="none" xmlns="http://www.w3.org/2000/svg">
    <path d="M13.047 11.782a.692.692 0 1 0 0 1.385.692.692 0 0 0 0-1.385zM40.697 18.415v.985c0 2.538-.986 4.179-4.5 4.179-3.515 0-4.5-1.641-4.5-4.179v-8.773c0-2.538 1.152-4.179 4.5-4.179 3.347 0 4.5 1.641 4.5 4.179v.766h-2.79v-.679c0-1.05-.39-2.144-1.71-2.144-1.32 0-1.71 1.094-1.71 2.144v8.599c0 1.246.39 2.144 1.71 2.144 1.32 0 1.71-.898 1.71-2.144v-.898h2.79zM51.928 19.4c0 2.538-1.153 4.179-4.5 4.179-3.348 0-4.501-1.641-4.501-4.179v-8.773c0-2.538 1.153-4.179 4.5-4.179 3.348 0 4.5 1.641 4.5 4.179V19.4zm-2.79-8.686c0-1.05-.39-2.144-1.71-2.144-1.321 0-1.711 1.094-1.711 2.144v8.599c0 1.05.39 2.144 1.71 2.144 1.32 0 1.711-1.094 1.711-2.144v-8.599zM54.623 6.776h2.79v14.352h4.834v2.122h-7.624V6.776zM64.2 6.776h2.788v14.352h4.835v2.122H64.2V6.776zM73.775 6.776h7.438V8.9h-4.649v4.66h4.37v2.122h-4.37v5.447H81.4v2.122h-7.624V6.776zM92.538 18.415v.985c0 2.538-.986 4.179-4.501 4.179-3.514 0-4.5-1.641-4.5-4.179v-8.773c0-2.538 1.153-4.179 4.5-4.179 3.348 0 4.5 1.641 4.5 4.179v.766h-2.789v-.679c0-1.05-.39-2.144-1.711-2.144-1.32 0-1.71 1.094-1.71 2.144v8.599c0 1.246.39 2.144 1.71 2.144 1.32 0 1.711-.898 1.711-2.144v-.898h2.79zM93.93 6.776h9.001V8.9h-3.105V23.25h-2.79V8.9h-3.105V6.776zM107.579 23.25h-2.789V6.776h2.789V23.25zM119.555 19.181c0 2.56-1.172 4.07-4.315 4.07h-4.872V6.775h4.5c3.143 0 4.314 1.575 4.314 4.114v.874c0 1.554-.632 2.56-1.617 2.976 1.264.438 1.99 1.619 1.99 3.194v1.247zm-6.398-5.207h1.432c1.246 0 1.804-.81 1.804-2.21v-.743c0-1.422-.595-2.122-1.804-2.122h-1.432v5.076zm1.804 7.154c1.209 0 1.804-.722 1.804-2.166v-.787c0-1.444-.595-2.166-1.804-2.166h-1.804v5.12h1.804zM121.97 6.776h2.79v14.352h4.835v2.122h-7.625V6.776zM131.547 6.776h7.438V8.9h-4.649v4.66h4.37v2.122h-4.37v5.447h4.835v2.122h-7.624V6.776z" fill="#fff"/>
    <path d="M1.904 8.566v12.867l11.143 6.434 11.144-6.434V8.566L13.048 2.132 1.903 8.566zm12.878-4.94.455 1.93c.116.338.293.651.523.924.329.341 3.355 2.42 3.372 6.028a5.083 5.083 0 0 1-1.4 3.517 9.97 9.97 0 0 0-.922 1.005c-.021-.27 0-.54.06-.803 0 0 .055-.233-.266-.204-.308.02-.705.633-.958 1.084-.127.242-.572.543-1.067 1.152v-2.301s2.226-.835 2.438-3.119h-.171a2.236 2.236 0 0 1-.114.522s-.676.013-.062.209c-.093.272-.22.53-.378.77a.826.826 0 0 1-.74.412c-.283-.045-.496-.119-.545.09-.05.21.152.204.206.169.053-.035.101-.099.084-.14 0 0 .206.157-.01.387a.329.329 0 0 1-.45.042s-.207-.134-.108-.52a.585.585 0 0 1 .294-.396.349.349 0 0 1 .128-.321.253.253 0 0 1 .285-.033s-.262.102-.021.33c0 0 .361-.01.429-.247.067-.236-.133-.386-.244-.502a4.283 4.283 0 0 0-.335-.29.258.258 0 0 1-.081-.153l-.149-.083a2.083 2.083 0 0 1-1.485 1.407l.003.22a.282.282 0 0 0 .154.11.44.44 0 0 1 .312.363.274.274 0 0 1-.34.276s-.135-.024-.04.125c.096.15.205.314.205.314l-.225.21.002.73-.091.047.003.12.108.035.005.072a.348.348 0 0 1 .154.333.298.298 0 0 1-.264.219l.064.067.002.341s.116.068-.008.14l.005.11.059.053.005.168.15.237-.011.052-.086.09.047.052.025.067-.14.208v6.254l.138.26s.058.02.058.245c0 0 .083.468-.114.468 0 0-.107.309-.683.309-.575 0-.682-.309-.682-.309-.191 0-.114-.468-.114-.468 0-.224.058-.245.058-.245l.138-.26v-6.254l-.14-.208.025-.067.046-.051-.085-.091-.012-.052.15-.237.006-.168.059-.053.005-.11c-.124-.072-.008-.14-.008-.14l.002-.34.064-.069a.298.298 0 0 1-.264-.218.349.349 0 0 1 .154-.333l.005-.072.107-.035.004-.12-.091-.047.002-.73-.226-.21s.11-.165.206-.314c.095-.15-.04-.125-.04-.125a.276.276 0 0 1-.34-.276.44.44 0 0 1 .311-.362.282.282 0 0 0 .155-.11l.003-.221a2.082 2.082 0 0 1-1.485-1.407l-.149.083a.259.259 0 0 1-.081.152 4.265 4.265 0 0 0-.335.291c-.111.115-.311.266-.244.502.068.236.43.246.43.246.24-.227-.022-.33-.022-.33a.252.252 0 0 1 .285.034.35.35 0 0 1 .127.32.586.586 0 0 1 .295.398c.099.385-.107.52-.107.52a.329.329 0 0 1-.451-.043c-.216-.23-.01-.386-.01-.386-.017.04.03.104.084.139.054.035.255.04.206-.169-.05-.209-.262-.136-.546-.09a.825.825 0 0 1-.739-.412 3.387 3.387 0 0 1-.378-.77c.614-.196-.062-.21-.062-.21a2.232 2.232 0 0 1-.114-.52h-.171c.212 2.283 2.438 3.118 2.438 3.118v2.3c-.495-.608-.94-.91-1.067-1.151-.254-.451-.65-1.064-.959-1.084-.32-.03-.266.204-.266.204.061.263.082.534.061.803a9.97 9.97 0 0 0-.922-1.005 5.083 5.083 0 0 1-1.4-3.517c.017-3.609 3.043-5.687 3.372-6.028.23-.273.407-.586.523-.924l.455-1.93c.752 1.59.98 3.379.65 5.107l-.501.229c-1.932.966-2.315 2.477-2.387 3.163h.168c.04-.342.13-.677.267-.993.433.083.093-.176.093-.176.078-.204.189-.395.326-.565a.702.702 0 0 1 .839-.236c.274.123.391.013.426-.023.036-.037.058-.14-.067-.191-.125-.052-.242.103-.242.103a.277.277 0 0 1 .293-.416c.172.037.315.16.336.466a.576.576 0 0 1-.291.484c-.045.296-.225.302-.376.322-.151.02-.037-.098.034-.137.07-.04.015-.237-.19-.246a.353.353 0 0 0-.242.609l.423.48.002.235.183.03a2.079 2.079 0 0 1 3.98 0l.184-.03.002-.236.423-.479a.352.352 0 0 0-.243-.609c-.204.009-.26.207-.189.246.07.04.185.158.034.137-.15-.02-.331-.026-.376-.322a.576.576 0 0 1-.291-.483c.02-.307.164-.43.336-.467a.276.276 0 0 1 .292.416s-.117-.155-.241-.103c-.125.051-.103.154-.068.19.036.037.153.147.427.024a.703.703 0 0 1 .839.236c.137.17.247.36.326.565 0 0-.34.259.093.176.138.316.228.65.267.993h.168c-.072-.686-.455-2.197-2.387-3.163l-.502-.229a8.315 8.315 0 0 1 .651-5.107z" fill="#fff"/>
    <path d="M13.047.892.83 7.946v14.108l12.218 7.055 12.219-7.055V7.946L13.048.892zm11.279 20.62-.034.019-11.245 6.492-.033-.02-11.245-6.491V8.488l.034-.02 11.244-6.49.034.018 11.245 6.492v13.024z" fill="#fff"/>
</svg>
