<svg viewBox="0 0 15 15" fill="none" xmlns="http://www.w3.org/2000/svg">
  <path d="m14.43 7.301-.006-.08c0-.027-.005-.057-.007-.085a6.773 6.773 0 0 0-.056-.458h-1.675a.431.431 0 0 0-.396.243l-.565 1.146-.673-2.847a.437.437 0 0 0-.854.027l-.516 3.026-.517-4.555a.43.43 0 0 0-.433-.386.43.43 0 0 0-.433.385l-.957 8.164a.315.315 0 0 0 .276.347.224.224 0 0 0 .036 0 .314.314 0 0 0 .311-.277L8.73 5.42l.49 4.25a.437.437 0 0 0 .863.023l.581-3.419.576 2.45a.437.437 0 0 0 .815.092l.747-1.516h.836a6.227 6.227 0 0 1-1.52 4.573 6.21 6.21 0 0 1-8.104 1.088 6.221 6.221 0 0 1-2.56-3.542H.638a7.013 7.013 0 0 0 2.807 4.108 6.994 6.994 0 0 0 9.229-1.095 7.018 7.018 0 0 0 1.755-5.13z" fill="#fff"/>
  <path d="M7.445.783A6.983 6.983 0 0 0 2.498 2.83a7.003 7.003 0 0 0-2.036 5.43c0 .032.005.065.008.1.003.034 0 .035 0 .054a5.828 5.828 0 0 0 .02.194c.01.1.024.188.038.28h1.674a.431.431 0 0 0 .391-.243l.565-1.146.674 2.847a.437.437 0 0 0 .854-.027L5.2 7.293l.525 4.551a.43.43 0 0 0 .433.386.43.43 0 0 0 .433-.385l.955-8.163a.314.314 0 0 0-.505-.282.314.314 0 0 0-.117.21l-.759 6.528-.495-4.249a.437.437 0 0 0-.863-.023L4.23 9.284l-.58-2.448a.437.437 0 0 0-.815-.092l-.747 1.515h-.836c-.015-.159-.015-.318-.015-.48a6.227 6.227 0 0 1 1.545-4.084 6.21 6.21 0 0 1 8.094-1.083 6.221 6.221 0 0 1 2.561 3.534h.816a7.012 7.012 0 0 0-2.477-3.863 6.993 6.993 0 0 0-4.332-1.5z" fill="#fff"/>
</svg>
