<svg viewBox="0 0 52 11" fill="none" xmlns="http://www.w3.org/2000/svg">
  <g clip-path="url(#tl0cdnrhwa)">
      <path d="M4.568 8.445a1.119 1.119 0 0 1-.275.823 1.044 1.044 0 0 1-.773.275.964.964 0 0 1-.785-.3 1.23 1.23 0 0 1-.25-.811V.974H.558v7.369c-.003.329.046.657.147.97.095.294.262.56.485.773.25.232.55.406.875.51.43.135.878.197 1.328.186.486.024.97-.06 1.418-.25.277-.122.522-.308.716-.542.196.236.446.422.728.543a3.33 3.33 0 0 0 1.43.249c.441.01.881-.05 1.303-.179.325-.1.623-.27.875-.498.226-.213.395-.478.492-.773a3.07 3.07 0 0 0 .153-.99V.975H8.604v7.458c.014.29-.077.576-.256.805a.973.973 0 0 1-.792.306 1.062 1.062 0 0 1-.785-.275 1.118 1.118 0 0 1-.275-.823V.974H4.568v7.47zm7.536 2.145h5.237V9.364H14.02v-3.18h2.989V4.933h-2.99V2.2h3.194V.974h-5.11v9.616zm10.665 0h1.903V3.12a1.12 1.12 0 0 1 .275-.818 1.049 1.049 0 0 1 .786-.281.984.984 0 0 1 .791.3c.182.235.273.527.256.824v7.445h1.916V3.221a3.179 3.179 0 0 0-.14-.958 1.84 1.84 0 0 0-.473-.772 2.346 2.346 0 0 0-.869-.517 4.028 4.028 0 0 0-1.341-.192 3.326 3.326 0 0 0-1.412.243c-.29.125-.543.323-.734.574a1.822 1.822 0 0 0-.728-.568 3.297 3.297 0 0 0-1.418-.25c-.44-.009-.88.051-1.303.18a2.395 2.395 0 0 0-.881.498c-.229.211-.4.477-.498.772-.105.32-.157.654-.153.99v7.37h1.916V3.144a1.23 1.23 0 0 1 .255-.824 1 1 0 0 1 .805-.3c.698 0 1.047.366 1.047 1.098v7.471zm9.733-4.201.664-4.19h.69l.664 4.19h-2.018zM34.7 7.627l.46 2.963h2.005L35.504.974h-3.985l-1.635 9.616h1.992l.447-2.963H34.7zm9.989-4.214c0-.766-.232-1.364-.697-1.794-.464-.43-1.22-.645-2.267-.645h-3.36v9.616h3.36c1.048 0 1.804-.2 2.268-.6.463-.4.696-.966.696-1.698v-4.88zM40.28 2.2h1.303c.468 0 .783.106.945.319.18.276.265.603.243.932v4.662c0 .434-.102.751-.307.951-.204.2-.536.3-.996.3H40.28V2.2zm5.914 8.39h5.25V9.364H48.11v-3.18h3.014V4.933h-3.014V2.2h3.193V.974h-5.11v9.616z" fill="#fff"/>
  </g>
  <defs>
      <clipPath id="tl0cdnrhwa">
          <path fill="#fff" transform="translate(.557 .784)" d="M0 0h50.888v10H0z"/>
      </clipPath>
  </defs>
</svg>
