<svg width="80" height="20" fill="none" xmlns="http://www.w3.org/2000/svg">
    <g clip-path="url(#a)" fill="#fff">
        <path d="M27.366 14.682c0 2.777-1.438 4.334-4.908 4.334h-5.542V.984h5.542c3.47 0 4.908 1.676 4.908 4.574v9.124zm-7.277 2.011h1.947c1.522 0 2.157-.718 2.157-2.346V5.654c0-1.605-.444-2.347-1.946-2.347h-2.158v13.386zM38.556 19.016l-1.904-5.962c-.402-1.222-.677-1.533-1.693-1.533h-1.354v7.495h-3.173V.984h5.543c2.813 0 4.485 1.58 4.485 4.334v1.868c0 2.18-1.08 3.185-2.434 3.497.91.311 1.291.766 1.756 2.131l2.052 6.202h-3.278zm-4.95-9.818h1.734c1.502 0 1.946-1.03 1.946-2.107V5.415c0-1.15-.444-2.108-1.946-2.108h-1.735v5.89zM46.868 13.46l-.762 5.556h-3.3L45.536.984h6.6l2.728 18.032h-3.3l-.761-5.555h-3.935zm3.639-2.322-1.1-7.83h-1.143l-1.1 7.83h3.343zM67.175 13.724V14.8c0 2.778-1.121 4.574-5.12 4.574-3.998 0-5.12-1.796-5.12-4.574V5.2c0-2.778 1.312-4.574 5.12-4.574s5.12 1.796 5.12 4.574v.838h-3.173v-.743c0-1.149-.445-2.346-1.947-2.346-1.501 0-1.946 1.197-1.946 2.346v9.412c0 1.365.445 2.346 1.946 2.346 1.502 0 1.947-.981 1.947-2.346v-.982h3.173zM79.95 14.801c0 2.778-1.312 4.574-5.12 4.574-3.807 0-5.119-1.796-5.119-4.574V5.2c0-2.778 1.312-4.574 5.12-4.574 3.807 0 5.12 1.796 5.12 4.574V14.8zm-3.173-9.507c0-1.149-.444-2.346-1.947-2.346-1.501 0-1.946 1.197-1.946 2.346v9.412c0 1.15.445 2.346 1.947 2.346s1.946-1.197 1.946-2.346V5.294zM6.825 6.84H3.308L.05.984h3.517L6.825 6.84z"/>
        <path d="M8.58 10.007 13.6.984h-3.518L5.066 10l5.016 9.016H13.6l-5.013-9.009H8.58zM4.564 10.904.05 19.016h3.517l2.755-4.952-1.758-3.16z"/>
    </g>
    <defs>
        <clipPath id="a">
            <path fill="#fff" transform="translate(.05 .625)" d="M0 0h79.901v18.75H0z"/>
        </clipPath>
    </defs>
</svg>
