<svg width="90" height="16" fill="none" xmlns="http://www.w3.org/2000/svg">
    <g clip-path="url(#a)" fill="#fff">
        <path d="M30.932 10.98v.861c0 2.222-1.015 3.659-4.636 3.659-3.62 0-4.636-1.437-4.636-3.659V4.16C21.66 1.937 22.848.5 26.296.5c3.448 0 4.636 1.437 4.636 3.66v.67h-2.873v-.594c0-.92-.403-1.878-1.763-1.878-1.36 0-1.763.958-1.763 1.878v7.528c0 1.092.403 1.878 1.763 1.878 1.36 0 1.762-.786 1.762-1.878v-.785h2.874zM39.723 15.213V8.585h-3.525v6.628h-2.873V.787h2.873v5.94h3.525V.786h2.873v14.426h-2.873zM48.246 10.769l-.69 4.444h-2.988L47.04.787h5.977l2.472 14.426h-2.989l-.69-4.444h-3.563zm3.295-1.859-.996-6.264H49.51l-.995 6.264h3.026zM63.802 15.213V4.236c0-.92-.402-1.878-1.763-1.878-1.36 0-1.762.958-1.762 1.878v10.977h-2.874V4.159C57.403 1.937 58.591.5 62.04.5c3.449 0 4.636 1.437 4.636 3.66v11.053h-2.873zM74.202 7.588h4.464v4.253c0 2.222-1.016 3.659-4.636 3.659s-4.636-1.437-4.636-3.659V4.16C69.394 1.937 70.58.5 74.03.5c3.448 0 4.636 1.437 4.636 3.66v.689h-2.874v-.613c0-.92-.402-1.878-1.762-1.878-1.36 0-1.763.958-1.763 1.878v7.528c0 1.092.403 1.878 1.763 1.878 1.36 0 1.762-.786 1.762-1.878V9.446h-1.59V7.588zM81.252.787h7.663v1.859h-4.79v4.08h4.502v1.859h-4.501v4.77h4.98v1.858h-7.854V.787zM2.772 2.358h5.88V.826H.895V5.46h1.878V2.358z"/>
        <path d="M18.02.826 15.09 6.117 12.158.826h-2.012l3.908 7.107-3.16 5.747H2.772V8.412h5.287V6.898H.894v8.315h11.302l2.91-5.345L20.032.826h-2.01zM16.885 9.318l-1.038 1.906 2.134 3.989h2.146l-3.242-5.895z"/>
    </g>
    <defs>
        <clipPath id="a">
            <path fill="#fff" transform="translate(.894 .5)" d="M0 0h88.212v15H0z"/>
        </clipPath>
    </defs>
</svg>
