<svg viewBox="0 0 150 30" fill="none" xmlns="http://www.w3.org/2000/svg">
    <path d="M40.545 18.5v.985c0 2.537-.986 4.178-4.5 4.178-3.514 0-4.5-1.641-4.5-4.178v-8.772c0-2.537 1.153-4.178 4.5-4.178s4.5 1.64 4.5 4.178v.766h-2.79V10.8c0-1.05-.39-2.143-1.71-2.143-1.32 0-1.71 1.093-1.71 2.143v8.597c0 1.247.39 2.144 1.71 2.144 1.32 0 1.71-.897 1.71-2.144V18.5h2.79zM51.773 19.485c0 2.537-1.152 4.178-4.5 4.178-3.346 0-4.499-1.641-4.499-4.178v-8.772c0-2.537 1.153-4.178 4.5-4.178s4.5 1.64 4.5 4.178v8.772zM48.984 10.8c0-1.05-.39-2.143-1.71-2.143-1.32 0-1.71 1.093-1.71 2.143v8.597c0 1.05.39 2.144 1.71 2.144 1.32 0 1.71-1.094 1.71-2.144V10.8zM54.468 6.863h2.789v14.35h4.834v2.121h-7.623V6.863zM64.043 6.863h2.788v14.35h4.835v2.121h-7.623V6.863zM73.617 6.863h7.437v2.121h-4.648v4.66h4.37v2.121h-4.37v5.447h4.834v2.122h-7.623V6.863zM92.376 18.5v.985c0 2.537-.985 4.178-4.5 4.178-3.513 0-4.499-1.641-4.499-4.178v-8.772c0-2.537 1.153-4.178 4.5-4.178s4.5 1.64 4.5 4.178v.766h-2.79V10.8c0-1.05-.39-2.143-1.71-2.143-1.32 0-1.71 1.093-1.71 2.143v8.597c0 1.247.39 2.144 1.71 2.144 1.32 0 1.71-.897 1.71-2.144V18.5h2.79zM93.77 6.863h8.998v2.121h-3.105v14.35h-2.789V8.984H93.77V6.863zM107.416 23.334h-2.789V6.863h2.789v16.471zM119.389 19.265c0 2.56-1.171 4.069-4.314 4.069h-4.871V6.863h4.499c3.142 0 4.314 1.574 4.314 4.112v.875c0 1.553-.632 2.559-1.618 2.975 1.265.437 1.99 1.618 1.99 3.194v1.246zm-6.396-5.206h1.431c1.246 0 1.804-.81 1.804-2.21v-.743c0-1.422-.595-2.122-1.804-2.122h-1.431v5.075zm1.803 7.153c1.209 0 1.804-.722 1.804-2.165v-.788c0-1.444-.595-2.166-1.804-2.166h-1.803v5.12h1.803zM121.804 6.863h2.789v14.35h4.834v2.121h-7.623V6.863zM131.379 6.863h7.437v2.121h-4.648v4.66h4.369v2.121h-4.369v5.447h4.834v2.122h-7.623V6.863zM143.556 18.587v.81c0 1.05.39 2.144 1.711 2.144 1.32 0 1.711-1.094 1.711-2.144v-.656c0-1.313-.41-1.904-1.581-2.428l-2.175-1.006a3.798 3.798 0 0 1-2.362-3.675v-.919c0-2.537 1.172-4.178 4.314-4.178 3.049 0 4.221 1.64 4.221 4.178v.766h-2.79V10.8c0-1.246-.334-2.143-1.431-2.143-1.171 0-1.525.897-1.525 2.143v.504c0 .984.521 1.53 1.395 1.968l2.287 1.116c1.338.634 2.435 1.466 2.435 3.74v1.357c0 2.537-1.152 4.178-4.499 4.178-3.347 0-4.5-1.641-4.5-4.178v-.898h2.789zM12.452 11.782a.692.692 0 1 0 0 1.385.692.692 0 0 0 0-1.385z" fill="#fff"/>
    <path d="M1.308 8.566v12.867l11.144 6.434 11.143-6.434V8.566L12.452 2.132 1.308 8.566zm12.879-4.94.455 1.93c.115.338.293.651.523.924.328.341 3.354 2.42 3.372 6.028a5.083 5.083 0 0 1-1.4 3.517c-.33.314-.639.65-.923 1.005-.02-.27 0-.54.062-.803 0 0 .053-.233-.267-.204-.308.02-.705.633-.959 1.084-.127.242-.572.543-1.067 1.152v-2.301s2.226-.835 2.439-3.118h-.172a2.235 2.235 0 0 1-.113.52s-.677.014-.063.21c-.093.272-.22.53-.378.77a.826.826 0 0 1-.739.412c-.284-.045-.496-.119-.546.09-.05.21.152.204.206.169.054-.035.102-.099.084-.14 0 0 .206.157-.01.387a.328.328 0 0 1-.45.042s-.206-.134-.107-.52a.586.586 0 0 1 .294-.396.348.348 0 0 1 .127-.321.251.251 0 0 1 .285-.033s-.261.102-.02.33c0 0 .36-.01.428-.247.068-.236-.132-.386-.243-.502a4.304 4.304 0 0 0-.335-.29.258.258 0 0 1-.082-.153l-.148-.083a2.084 2.084 0 0 1-1.486 1.407l.003.22a.283.283 0 0 0 .155.11.44.44 0 0 1 .312.363.273.273 0 0 1-.214.277.276.276 0 0 1-.126 0s-.135-.025-.04.124c.095.15.205.314.205.314l-.226.21.002.73-.09.047.003.12.107.035.006.072a.35.35 0 0 1 .154.333.298.298 0 0 1-.264.219l.063.067.003.341s.115.068-.009.14l.005.11.059.053.006.168.15.237-.012.052-.085.09.047.052.025.067-.141.208v6.254l.139.26s.057.02.057.245c0 0 .084.468-.114.468 0 0-.107.309-.682.309-.576 0-.683-.309-.683-.309-.19 0-.113-.468-.113-.468 0-.224.057-.245.057-.245l.139-.26v-6.254l-.14-.208.024-.067.047-.051-.085-.09-.012-.053.15-.237.006-.168.058-.053.006-.11c-.124-.072-.009-.14-.009-.14l.002-.34.064-.069a.297.297 0 0 1-.264-.218.349.349 0 0 1 .154-.333l.006-.072.107-.035.004-.12-.091-.047.002-.73-.226-.21s.11-.164.205-.314c.095-.15-.04-.124-.04-.124a.276.276 0 0 1-.34-.277.44.44 0 0 1 .312-.362.282.282 0 0 0 .155-.11l.002-.221a2.083 2.083 0 0 1-1.485-1.407l-.148.083a.258.258 0 0 1-.082.152 4.286 4.286 0 0 0-.335.291c-.111.116-.31.266-.243.502s.429.246.429.246c.24-.227-.021-.33-.021-.33a.252.252 0 0 1 .284.034.348.348 0 0 1 .128.32.586.586 0 0 1 .294.398c.1.385-.107.52-.107.52a.328.328 0 0 1-.45-.043c-.216-.23-.01-.386-.01-.386-.018.04.03.104.084.139.053.035.255.04.205-.168-.049-.21-.262-.136-.546-.091a.825.825 0 0 1-.738-.412 3.388 3.388 0 0 1-.379-.77c.615-.196-.062-.21-.062-.21a2.232 2.232 0 0 1-.114-.52h-.17c.211 2.283 2.437 3.118 2.437 3.118v2.3c-.495-.608-.94-.91-1.067-1.151-.253-.451-.65-1.064-.958-1.084-.32-.03-.267.204-.267.204.062.263.083.534.062.803a9.97 9.97 0 0 0-.922-1.005 5.083 5.083 0 0 1-1.4-3.517C6.384 8.899 9.41 6.82 9.738 6.48c.23-.273.408-.586.523-.924l.455-1.93c.752 1.59.98 3.379.651 5.107l-.502.229c-1.931.966-2.315 2.477-2.386 3.163h.168c.039-.342.129-.677.267-.993.433.083.092-.176.092-.176.079-.204.19-.395.327-.565a.702.702 0 0 1 .839-.236c.273.124.39.013.426-.023.035-.037.058-.14-.067-.191-.125-.052-.242.103-.242.103a.276.276 0 0 1 .292-.416c.172.037.316.16.336.466a.576.576 0 0 1-.29.484c-.045.296-.226.302-.377.322-.15.021-.036-.098.034-.137.071-.04.016-.237-.189-.246a.353.353 0 0 0-.242.609l.422.48.002.235.184.03a2.08 2.08 0 0 1 3.98 0l.183-.03.003-.236.422-.479a.352.352 0 0 0-.242-.609c-.205.01-.26.207-.19.246.071.04.186.158.035.137-.151-.02-.332-.026-.376-.322a.576.576 0 0 1-.292-.483c.021-.307.165-.43.337-.467a.277.277 0 0 1 .292.416s-.117-.155-.242-.103c-.125.051-.102.154-.067.19.035.037.152.148.426.024a.702.702 0 0 1 .84.236c.137.17.247.36.325.565 0 0-.34.259.093.176.138.316.228.65.267.993h.168c-.072-.686-.455-2.197-2.386-3.163l-.502-.229a8.315 8.315 0 0 1 .65-5.107z" fill="#fff"/>
    <path d="M12.452.892.234 7.946v14.108l12.218 7.055 12.218-7.055V7.946L12.452.892zm11.278 20.62-.033.019-11.245 6.492-.034-.02-11.244-6.491V8.488l.033-.02 11.245-6.49.034.018L23.73 8.488v13.024z" fill="#fff"/>
</svg>
