<svg viewBox="0 0 70 28" fill="none" xmlns="http://www.w3.org/2000/svg">
    <path d="M4.304 14a9.91 9.91 0 0 0 9.9 9.899 9.912 9.912 0 0 0 9.9-9.899 9.91 9.91 0 0 0-12.962-9.414 6.976 6.976 0 0 1-.46 1.747l1.186-.98L10.8 7.36a9.331 9.331 0 0 1 3.404-.624A7.274 7.274 0 0 1 21.469 14 7.271 7.271 0 0 1 10.4 20.192a7.24 7.24 0 0 1-2.898-3.39 1.101 1.101 0 0 0-.197-.28.988.988 0 0 1-.3-.623c-.101-1.883.634-4.035.642-4.056l.091-.265-.008.28c0 .024-.06 2.416.75 3.682a.801.801 0 0 1 .033.594.794.794 0 0 0 .005.507c.995 1.913 2.802 2.804 5.686 2.804a5.248 5.248 0 0 0 3.778-1.617A5.46 5.46 0 0 0 19.55 14a5.35 5.35 0 0 0-5.346-5.345c-.648 0-2.618 0-2.857.722-.242.734-.525.821-.8.906-.104.028-.205.07-.299.126-.155.1-.55.943-.564 1.466a.364.364 0 0 0 .093.31l.025.018-.009.033c-.023.069-.467.263-.83.255h-.028c-.092.003-.216.007-.239-.07-.02-.067.056-.146.261-.271a.664.664 0 0 0-.041-.039c-.048-.042-.109-.095-.111-.16a.121.121 0 0 1 .037-.091.366.366 0 0 1 .109-.068.419.419 0 0 0 .267-.398c.07-.6.05-1.31-.156-1.54a.195.195 0 0 0-.151-.074c-.384 0-1.542.738-1.603 1.093a.17.17 0 0 1-.077.135c-.056.025-.114-.013-.177-.052-.113-.072-.188-.108-.268-.007a.533.533 0 0 0-.022.568l.06.1-.11-.038c-.024-.007-.567-.195-.73-.42a.17.17 0 0 0-.122-.083.349.349 0 0 1-.161-.078.312.312 0 0 1-.13-.242.448.448 0 0 1 .161-.3.423.423 0 0 1 .146-.063.83.83 0 0 0 .332-.167c.133-.126.285-.23.45-.308.145-.065.276-.16.383-.278.217-.222.504-.505.644-.64-.2-.058-.3-.13-.321-.229-.043-.193.249-.426.69-.779.798-.637 1.995-1.593 2.42-3.162A9.85 9.85 0 0 0 4.303 14zm7.615-3.206h2.222A3.21 3.21 0 0 1 17.347 14a3.21 3.21 0 0 1-3.206 3.206h-2.222v-6.412zm2.268-4.568-.066.086-.02.001c-.365.017-1.478.068-2.418.405l-.285.102 3.675-2.655-.886 2.061zm3.79 1.075-.018-.01a8.78 8.78 0 0 0-2.297-.858l-.298-.054 4.51-.462-1.788 1.337-.109.047zm2.845 2.784-.011-.017c-.198-.308-.798-1.246-1.56-1.892l-.23-.196 4.136 1.855-2.223.264-.112-.014zm.563 1.11 2.655 3.674-2.052-.88-.095-.072v-.02a8.78 8.78 0 0 0-.405-2.418l-.103-.285zm-.472 6.56c.169-.325.68-1.314.86-2.297l.053-.298.462 4.51-1.342-1.798-.042-.1.01-.018zm-2.793 2.861.017-.01c.308-.198 1.246-.798 1.892-1.56l.196-.23-1.855 4.136-.264-2.218.014-.118zm-3.904 1.167.07-.095.02-.001c.366-.017 1.479-.068 2.42-.405l.284-.102-3.675 2.655.88-2.052zM10.43 20.7l.018.01a8.78 8.78 0 0 0 2.297.858l.298.054-4.51.462 1.788-1.337.11-.047zm-2.963-2.797.119.013.01.017a8.77 8.77 0 0 0 1.56 1.892l.231.196-4.137-1.855 2.217-.263z" fill="#fff"/>
    <path d="M14.2 3.278a10.69 10.69 0 0 1 4.088.81L14.2 0l-4.088 4.087a10.688 10.688 0 0 1 4.088-.809zM24.114 18.088l4.088-4.087-4.088-4.087c.535 1.296.81 2.685.809 4.087a10.683 10.683 0 0 1-.81 4.087zM14.201 24.722a10.69 10.69 0 0 1-4.088-.809L14.201 28l4.088-4.087a10.69 10.69 0 0 1-4.088.809zM3.482 14.001a10.683 10.683 0 0 1 .808-4.087L.203 14.001 4.29 18.09A10.685 10.685 0 0 1 3.482 14zM43.85 17.777c0 2.54-1.487 3.964-5.072 3.964H33.05V5.25h5.727c3.585 0 5.072 1.533 5.072 4.183v8.344zm-7.52 1.84h2.01c1.575 0 2.23-.657 2.23-2.147V9.52c0-1.467-.458-2.146-2.01-2.146h-2.23v12.243zM49.251 17.317v.81c0 1.052.46 2.147 2.012 2.147s2.01-1.095 2.01-2.146v-.657c0-1.315-.48-1.906-1.858-2.432l-2.557-1.007c-1.64-.613-2.776-1.84-2.776-3.68v-.92c0-2.54 1.377-4.182 5.071-4.182 3.585 0 4.962 1.642 4.962 4.183v.766h-3.279V9.52c0-1.248-.393-2.146-1.683-2.146-1.377 0-1.792.898-1.792 2.146v.504c0 .986.612 1.533 1.64 1.971l2.688 1.117c1.574.635 2.864 1.467 2.864 3.745v1.358c0 2.54-1.356 4.183-5.29 4.183-3.935 0-5.29-1.642-5.29-4.183v-.898h3.278zM69.797 11.382c0 2.343-1.377 3.745-4.853 3.745h-2.666v6.614h-3.28V5.25h5.946c3.476 0 4.853 1.423 4.853 3.745v2.387zm-7.52 1.62h2.23c1.487 0 2.011-.678 2.011-1.927V9.301c0-1.248-.546-1.927-2.033-1.927h-2.207v5.628z" fill="#fff"/>
</svg>
