<svg viewBox="0 0 110 32" fill="none" xmlns="http://www.w3.org/2000/svg">
  <path d="M13.534 3.39c.004.021-.008.005.008.025.055-.038.06-.022.13-.057l-.113-.016a.983.983 0 0 1 .315 0l-.025-.033-.064-.016c.082 0 .125.028.17.016 0 .025-.008.012.008.033.05-.042.092.028.129.016.016-.018.041-.05.08-.04h.033c-.026.038-.004.036-.057.056v.008a.411.411 0 0 1 .235 0c-.02.02-.01.005-.017.024.053.03.103.062.152.097h4.812l-.79-.456H9.41l-.788.456h4.686a.639.639 0 0 1 .226-.113zM16.93 2.117h-5.908l-.94.543h7.788l-.94-.543zM15.319 1.187h-2.687l-.922.533h4.532l-.923-.533zM13.976.412l-.638.368h1.276l-.638-.368zM12.856 4.941l-.024.016.016-.089h-.008c-.015.025.005.019-.024.017v-.151h2.294a1.524 1.524 0 0 0-.04.199h-.01a41.065 41.065 0 0 0-.007-.154c-.022.117.024.244.011.39h7.151l-.814-.47H6.55l-.815.47h7.109c.007-.076.011-.152.011-.228zm-.056-.208h.004l-.005.079v-.079zM13.405 5.959V5.95a.974.974 0 0 0-.21-.372H14.8l-.095.259.274.129a.119.119 0 0 0 .015.04h7.31l.818-.314-.289-.167H5.117l-.833.481h8.981a.386.386 0 0 1 .14-.048zm1.543-.13h-.065c-.021-.014-.02-.015-.032-.04l.024.016-.016-.016.016-.097.016-.032.033.024-.025-.065a.267.267 0 0 1 .049.21zm-1.773-.25a.256.256 0 0 0-.069.057.125.125 0 0 0-.03-.057h.099zm-.093.307v-.008l.016-.178.016.008v.049c.022-.037.005-.028.04-.016-.012-.04-.014-.042-.048-.04l.017-.041a.274.274 0 0 1 .072.226.093.093 0 0 1-.113 0zM23.448 5.88l-.322.127h.541l-.22-.127zM20.985 6.845h4.134l-.85-.49h-2.028l-1.256.49zM13.026 6.694l.016.008.032.04-.02.103h.225a1.234 1.234 0 0 0-.17-.42h1.872c-.005.1-.01.198-.017.244a.229.229 0 0 0 .06.176h.179a.304.304 0 0 1 .044-.232l.29.194c.028.016.063.024.093.038h4.489l1.28-.49H3.681l-.85.49h10.022a.92.92 0 0 0 .172-.151zM11.342 7.27h5.199l-.018.037c.232.089.459.191.678.307.028.015.087.047.136.069h.11a.429.429 0 0 1 .28-.101c.008.054.038.07.049.1h.15c.203-.076.598-.227 1.085-.413h.883l-1.064.414h7.74l-.867-.5H2.248l-.867.5H11.62c-.05-.11-.2-.268-.277-.414zM27.138 8.011H.814l-.338.195v.315h10.841c.059-.07.166-.151.19-.236a.13.13 0 0 1-.067-.17h6.991l.022.008.267.033a.917.917 0 0 1 .535.365h8.22v-.315l-.337-.195zM.476 22.918v.689h7.07c.027-.047.054-.095.076-.138l.065-.134h.774l-.103.272h2.428l-.093-.271h10.1l-.202.27h6.885v-.688h-27zM13.995 24.309l-.29-.089-.025.032c.002.065.008.13.018.193h.284l.013-.136z" fill="#fff"/>
  <path d="M.476 23.746v.048l1.127.651h9.501a298.13 298.13 0 0 1-.112-.264h7.389a2.013 2.013 0 0 1-.291.264h8.258l1.128-.65v-.049h-27zm7.59.636H8.05c-.06-.036-.074-.084-.12-.13l-.267.17a8.571 8.571 0 0 1-.073-.024c-.016-.049-.058-.13-.096-.217h.648l-.075.2zM14.383 26.958v.002h.003l-.003-.002zM10.283 29.456h7.386l1.284-.741H8.999l1.284.741zM11.66 30.252h4.63l1.259-.726h-7.146l1.258.726zM13.048 31.052h1.856l1.284-.74h-4.424l1.284.74zM13.976 31.588l.842-.486h-1.685l.843.486zM12.92 4.06l-.072.098a.6.6 0 0 1 .135-.26h1.89c.077.138.14.283.189.433h5.702l-.78-.45H7.967l-.78.45h5.63c.027-.093.062-.183.103-.27zM.476 8.839v.52h11.1c.025-.08.05-.163.069-.25a.489.489 0 0 0-.014-.148h4.246a.755.755 0 0 0-.194.172 1.134 1.134 0 0 0-.113.226h1.925a.798.798 0 0 0 .094-.08v-.243c-.088-.014-.248.035-.331-.008a.289.289 0 0 1-.075-.067h2.116a.515.515 0 0 1-.083.398h8.26v-.52h-27zM.476 9.667v.53h11.143a.356.356 0 0 0 .114-.095c-.06-.022-.08-.072-.113-.121a.563.563 0 0 1-.08-.175h3.875l-.16.296a.576.576 0 0 0-.026.095h1.609c.078-.08.151-.166.218-.257-.026-.031-.022-.019 0-.056l-.057-.016.017-.032c-.019-.002-.013.003-.033-.009l.008-.016.009-.005h1.84a2.946 2.946 0 0 1-.742.304l-.015.087h9.393v-.53h-27zM.476 10.495v.54h12.122a1.48 1.48 0 0 1-.057-.133c-.03-.091-.048-.172-.066-.25h3.03c.053.022.107.04.162.056l.39-.056h.015c.154-.004.317.089.402.048.008-.018.019-.031.027-.048h.997c-.14.133-.275.273-.396.384h10.374v-.54h-27zM.476 11.324v.55h12.053a.213.213 0 0 1 .036-.132.76.76 0 0 0 .14-.245h3.559a.706.706 0 0 1-.306.075l.226.302h11.292v-.55h-27zM.476 12.152v.56H12.26c.004-.016.004-.028-.003-.033l-.048-.114.12-.222h4.043l.045.045c.06.08.073.206.13.283a.437.437 0 0 0 .042.04h10.886v-.56h-27zM.476 12.98v.57h11.238c.07-.106.138-.212.213-.314l.035-.048h4.97c.016.08.047.157.092.226l.113.088.035.048h10.304v-.57h-27zM.476 13.808v.58H11.24c.06-.122.127-.237.19-.354h6.083c.08.117.161.231.237.354h9.726v-.58h-27zM.476 14.636v.59h10.408a.3.3 0 0 1 .01-.052c.04-.103.084-.197.127-.294h7.008c.006.012.014.023.02.036.05.103.098.207.147.31h9.28v-.59h-27zM.476 15.464v.6h10.18l.097-.339h7.675c0 .005.002.01 0 .014a1.71 1.71 0 0 1-.247.325h9.295v-.6h-27zM.476 16.293v.609h9.963c.025-.112.055-.22.082-.332h7.868l.175.332h8.912v-.61h-27zM.476 17.12v.62h9.77l.073-.324h8.512l.162.324h8.483v-.62h-27zM.476 17.949v.63h9.63c.015-.106.03-.212.047-.317h9.1l.137.272.034.044h8.052v-.63h-27zM.476 18.777v.64h9.273l.209-.31h9.866l.233.31h7.419v-.64h-27zM.476 19.605v.65H9.23c.057-.1.11-.202.166-.302h11.186l.291.301h6.603v-.649h-27zM.476 20.433v.66H8.78l.156-.294h1.009l-.198.294h.398l-.052-.294h11.368c.131.097.262.195.392.294h5.622v-.66h-27zM.476 21.262v.669h7.892l.139-.287h.87l-.196.287h1.11l-.05-.287H22.59c.107.08.212.164.323.242l.066.045h4.498v-.67h-27zM.476 22.09v.679h7.486l.072-.148c.02-.045.043-.088.064-.132h.795l-.141.28H10.5c-.03-.094-.056-.186-.085-.28h13.15a.94.94 0 0 1 .073.27l-.016.01h3.854v-.68h-27zM1.827 24.574l1.228.71h9.926c-.017-.089-.037-.173-.056-.258h.897l-.021.107.057.186.016-.008.05-.285h.892l-.038.123-.025.134h1.22l-.072-.15c-.169-.06-.8.143-.905.056l-.038-.163h1.91c-.086.028-.17.056-.256.082l-.567.175h8.852l1.228-.709H1.827zM3.261 25.402l1.245.72h8.577c-.003-.085-.011-.168-.019-.25h1.572l-.079.25h8.888l1.245-.72H3.261z" fill="#fff"/>
  <path d="m4.695 26.23 1.263.73h7.057l.003-.01c.016-.078.024-.156.034-.234h1.437c-.001.005 0 .01-.002.016l-.072.17a.31.31 0 0 1-.02.057h7.599l1.262-.729H4.696zM6.13 27.059l1.28.738h5.288c.028-.08.063-.157.095-.235h1.66c.013.08.03.158.05.235h6.039l1.28-.738H6.13zM7.564 27.887l1.297.748h4.722l.008-.228h1.205c.03.073.054.15.07.228h4.225l1.296-.748H7.564zM41.863 11.579c0-1.213-.639-1.852-1.745-1.852-1.193 0-1.746.745-1.746 1.873v12.412h-3.194V11.728c0-2.384 1.299-4.066 4.705-4.066 1.98 0 3.087.66 3.577 1.341.49-.681 1.597-1.341 3.577-1.341 3.406 0 4.705 1.682 4.705 4.066v12.284h-3.194V11.6c0-1.128-.553-1.873-1.746-1.873-1.107 0-1.745.639-1.745 1.852v12.433h-3.194V11.58zM58.065 24.012H54.87V7.982h3.194v16.03zM69.433 24.012l-1.916-5.301c-.404-1.086-.681-1.362-1.703-1.362h-1.363v6.663h-3.193V7.982h5.578c2.831 0 4.513 1.404 4.513 3.852v1.66c0 1.938-1.085 2.833-2.448 3.11.916.276 1.299.68 1.767 1.894l2.065 5.514h-3.3zm-4.982-8.729h1.746c1.512 0 1.959-.915 1.959-1.873v-1.49c0-1.022-.447-1.874-1.959-1.874h-1.746v5.237zM77.8 19.073l-.766 4.94h-3.322L76.46 7.98H83.1l2.746 16.031h-3.32l-.767-4.94H77.8zm3.662-2.065-1.107-6.962h-1.15l-1.107 6.962h3.364zM93.277 15.539h4.96v4.726c0 2.47-1.127 4.067-5.151 4.067s-5.152-1.597-5.152-4.067v-8.537c0-2.47 1.32-4.066 5.152-4.066s5.152 1.596 5.152 4.066v.767h-3.194v-.682c0-1.022-.447-2.086-1.958-2.086-1.512 0-1.959 1.064-1.959 2.086v8.367c0 1.213.447 2.086 1.959 2.086 1.511 0 1.958-.873 1.958-2.086v-2.576h-1.767V15.54zM101.112 7.981h8.516v2.065h-5.322v4.535h5.003v2.065h-5.003v5.301h5.535v2.065h-8.729V7.982z" fill="#fff"/>
</svg>
