<svg width="96" height="26" fill="none" xmlns="http://www.w3.org/2000/svg">
    <path d="M42.367 17.158c0 2.469-1.459 3.853-4.997 3.853h-5.65V4.982h5.645c3.532 0 4.996 1.49 4.996 4.066l.006 8.11zm-7.41 1.787h1.983c1.55 0 2.196-.638 2.196-2.085V9.133c0-1.427-.452-2.085-1.982-2.085h-2.203l.006 11.897zM53.754 21.01l-1.939-5.299c-.408-1.085-.688-1.363-1.722-1.363h-1.38v6.663h-3.23V4.982h5.644c2.864 0 4.566 1.406 4.566 3.853v1.66c0 1.937-1.1 2.83-2.48 3.109.927.277 1.313.68 1.789 1.894l2.096 5.513h-3.344zm-5.04-8.719h1.766c1.53 0 1.981-.915 1.981-1.874V8.921c0-1.021-.452-1.873-1.981-1.873h-1.767v5.243zM62.212 16.073l-.775 4.938h-3.355l2.771-16.029h6.72l2.77 16.029H66.99l-.776-4.938h-4zm3.705-2.065-1.12-6.96H63.63l-1.12 6.96h3.407zM82.89 16.308v.957c0 2.47-1.141 4.065-5.213 4.065s-5.21-1.595-5.21-4.065V8.729c0-2.468 1.334-4.064 5.21-4.064s5.214 1.596 5.214 4.064v.746h-3.232v-.66c0-1.021-.452-2.086-1.982-2.086s-1.98 1.065-1.98 2.085v8.36c0 1.212.452 2.085 1.98 2.085s1.982-.873 1.982-2.085V16.3l3.232.008zM95.9 17.265c0 2.47-1.336 4.065-5.212 4.065-3.877 0-5.213-1.595-5.213-4.065V8.729c0-2.468 1.336-4.064 5.213-4.064 3.876 0 5.212 1.596 5.212 4.064v8.536zm-3.23-8.45c0-1.021-.452-2.086-1.982-2.086s-1.982 1.065-1.982 2.085v8.36c0 1.021.453 2.085 1.982 2.085 1.528 0 1.982-1.064 1.982-2.085v-8.36zM.1 12.999c0 2.64.845 5.212 2.415 7.348a12.642 12.642 0 0 0 6.325 4.541 12.79 12.79 0 0 0 7.818 0 12.642 12.642 0 0 0 6.324-4.541 12.401 12.401 0 0 0 2.415-7.348c0-2.64-.846-5.212-2.416-7.348a12.642 12.642 0 0 0-6.326-4.54 12.792 12.792 0 0 0-7.818.002 8.755 8.755 0 0 1-.583 2.205L9.768 2.08 8.404 4.616a12.058 12.058 0 0 1 4.349-.788c1.65 0 3.272.435 4.695 1.26a9.225 9.225 0 0 1 3.406 3.434 9.086 9.086 0 0 1-.192 9.279 9.237 9.237 0 0 1-3.544 3.294 9.371 9.371 0 0 1-9.383-.38 9.21 9.21 0 0 1-3.26-3.568 16.702 16.702 0 0 1-.291-.609c-.065-.13-.15-.25-.251-.354a1.245 1.245 0 0 1-.385-.787c-.129-2.378.81-5.095.82-5.122l.117-.335-.01.355c0 .03-.077 3.051.958 4.65.146.22.09.488.041.749-.045.236-.087.46.008.64 1.271 2.415 3.578 3.54 7.264 3.54a6.775 6.775 0 0 0 2.624-.534 6.71 6.71 0 0 0 2.203-1.507A6.847 6.847 0 0 0 19.577 13a6.718 6.718 0 0 0-2.003-4.77 6.88 6.88 0 0 0-4.827-1.98c-.828 0-3.345 0-3.646.913-.3.914-.67 1.036-1.02 1.143a1.51 1.51 0 0 0-.384.159c-.197.126-.703 1.191-.72 1.851 0 .196.034.332.117.391l.034.023-.012.042c-.029.086-.596.332-1.06.321H6.02c-.117 0-.276.008-.305-.089-.03-.097.071-.184.334-.343a.893.893 0 0 0-.054-.048c-.061-.053-.146-.12-.146-.203a.154.154 0 0 1 .048-.115.456.456 0 0 1 .139-.085c.132-.064.299-.144.341-.503.09-.758.063-1.653-.2-1.944a.246.246 0 0 0-.192-.094c-.49 0-1.97.931-2.042 1.38a.214.214 0 0 1-.098.17c-.071.032-.146-.015-.227-.066-.146-.089-.24-.135-.342-.007-.26.323-.03.712-.027.72l.076.128-.146-.048c-.03-.01-.73-.246-.932-.53a.208.208 0 0 0-.156-.105.468.468 0 0 1-.206-.098.396.396 0 0 1-.166-.307.575.575 0 0 1 .206-.38.527.527 0 0 1 .186-.079c.156-.037.301-.109.425-.21.169-.16.363-.29.574-.388.186-.083.352-.203.49-.352.277-.288.643-.638.823-.808-.255-.074-.384-.164-.412-.288-.054-.244.32-.538.884-.983 1.021-.805 2.548-2.018 3.09-3.993a12.558 12.558 0 0 0-5.74 4.592A12.335 12.335 0 0 0 .1 12.999zM9.83 8.952h2.838a4.14 4.14 0 0 1 1.591.286c.506.198.967.495 1.356.872.388.377.697.826.908 1.322a4.006 4.006 0 0 1-.908 4.457 4.142 4.142 0 0 1-2.947 1.158H9.829V8.952zm2.898-5.765-.085.108h-.027c-.467.021-1.89.085-3.09.51l-.365.13L13.856.582l-1.13 2.605zm4.846 1.353-.023-.012c-.416-.211-1.678-.864-2.935-1.083l-.38-.068 5.762-.577-2.285 1.688-.139.052zm3.633 3.515-.013-.021c-.253-.39-1.021-1.573-1.992-2.389l-.292-.247 5.285 2.343-2.84.333-.148-.019zm.72 1.401 3.393 4.64-2.626-1.112-.12-.09v-.024c-.023-.46-.087-1.864-.517-3.052l-.13-.362zm-.602 8.284c.214-.41.875-1.659 1.097-2.9l.07-.376.583 5.695-1.71-2.27-.053-.127.013-.022zm-3.569 3.614.022-.013c.394-.25 1.591-1.01 2.417-1.97l.25-.289-2.37 5.223-.336-2.799.017-.152zm-4.995 1.473.09-.12h.027c.467-.022 1.887-.085 3.089-.51l.365-.13-4.697 3.352 1.126-2.592zm-4.834-1.368.022.011c.415.212 1.678.865 2.934 1.084l.38.068-5.762.584 2.289-1.688.137-.06zm-3.792-3.533.146.018.014.021c.251.39 1.021 1.573 1.993 2.388l.291.248-5.285-2.343 2.841-.332z" fill="#fff"/>
</svg>
