<svg viewBox="0 0 179 68" fill="none" xmlns="http://www.w3.org/2000/svg">
    <g clip-path="url(#a)">
        <path d="M34 0A34.038 34.038 0 0 0 0 34a34.039 34.039 0 0 0 34 34 34.039 34.039 0 0 0 34-34A34.038 34.038 0 0 0 34 0zm3.121 1.41-3.06 7.119-.26.348-.117.004c-2.682.07-5.342.515-7.9 1.322l-1.653.591L37.12 1.41zm14.907 5.252-6.04 4.856-.393.184-.105-.05a28.7 28.7 0 0 0-7.6-2.535l-1.737-.251 15.875-2.204zm10.707 11.629-7.594 1.46-.451-.022-.07-.094a28.698 28.698 0 0 0-5.523-5.8l-1.418-1.038 15.056 5.494zm4.008 15.29-7.408-2.28-.373-.22-.017-.116a28.756 28.756 0 0 0-2.161-7.714l-.767-1.58 10.726 11.91zM1.19 34a32.649 32.649 0 0 1 5.906-18.77 16.391 16.391 0 0 0 3.145 22.087 24.015 24.015 0 0 0 23.742 20.689c3.835.017 7.64-.679 11.221-2.053l.211-.084-.106.201-3.353 6.31 3.874-3.206-.134.315a23.09 23.09 0 0 0-1.493 5.695A32.81 32.81 0 0 1 1.19 34zm45.055 30.44.03-.092c1.417-5.207 5.397-8.383 8.03-10.486 1.444-1.155 2.395-1.915 2.264-2.51-.064-.29-.39-.519-.996-.7l-.137-.04.103-.1a109.96 109.96 0 0 0 2.118-2.106c.36-.398.8-.716 1.29-.936a5.655 5.655 0 0 0 1.472-1.008 2.824 2.824 0 0 1 1.124-.567c.164-.036.32-.1.46-.193a1.38 1.38 0 0 0 .51-.943.968.968 0 0 0-.403-.748 1.389 1.389 0 0 0-.505-.242l-.003-.001a.628.628 0 0 1-.444-.304 6.24 6.24 0 0 0-2.381-1.365l-.18-.062.097.164a1.821 1.821 0 0 1-.08 1.96c-.322.413-.658.2-.983-.005-.2-.128-.368-.24-.52-.165-.137.06-.185.253-.21.392-.097.557-1.193 1.603-2.861 2.727a10.087 10.087 0 0 1-3.68 1.794.411.411 0 0 1-.33-.149c-.471-.554-.164-2.464.133-4.31.105-.655.203-1.264.267-1.81a1.749 1.749 0 0 1 1.142-1.55c.12-.06.385-.18.486-.238a2.76 2.76 0 0 0-.426-.356c-.291-.223-.305-.257-.33-.305a.123.123 0 0 1 .006-.102c.338-.409.788-.71 1.296-.864a6.576 6.576 0 0 0-1.297-.138 4.678 4.678 0 0 0-2.647.81l-.011.041.045.033a1.28 1.28 0 0 1 .337 1.087 9.64 9.64 0 0 1-1.903 4.915 3.79 3.79 0 0 1-1.01.425c-.89.276-1.81.56-2.603 2.957-.807 2.444-7.374 2.444-9.532 2.444A17.804 17.804 0 0 1 17.515 40.7 16.396 16.396 0 0 0 34 34a16.394 16.394 0 0 1 16.39-6.714 17.722 17.722 0 0 0-16.373-10.997c-2.143 0-8.665 0-9.454 2.387-.806 2.437-1.746 2.729-2.656 3.01-.349.09-.682.23-.99.416a9.523 9.523 0 0 0-1.865 4.847 1.215 1.215 0 0 0 .303 1.018l.091.066-.031.11a4.63 4.63 0 0 1-2.723.859c-.495 0-.987-.075-1.46-.221a2.953 2.953 0 0 0 1.383-.884c.127-.147-.358-.364-.806-.79.142-.058.458-.205.582-.267a1.68 1.68 0 0 0 1.096-1.485c.065-.551.163-1.164.267-1.813.283-1.757.599-3.719.152-4.243a.325.325 0 0 0-.267-.12c-1.319.34-2.555.946-3.633 1.779-1.625 1.096-2.734 2.145-2.825 2.674a.573.573 0 0 1-.26.453c-.193.086-.39-.039-.597-.17-.372-.235-.614-.354-.874-.026a1.737 1.737 0 0 0-.072 1.868l.21.358-.392-.135a6.293 6.293 0 0 1-2.422-1.395.55.55 0 0 0-.4-.273 1.165 1.165 0 0 1-.537-.259 1.045 1.045 0 0 1-.435-.813 1.468 1.468 0 0 1 .539-1.005c.148-.1.314-.171.489-.21a2.738 2.738 0 0 0 1.095-.55c.44-.417.943-.761 1.491-1.02a3.87 3.87 0 0 0 1.267-.92 115.51 115.51 0 0 1 2.12-2.107c-.638-.19-.983-.44-1.054-.762-.142-.648.827-1.421 2.293-2.593 2.627-2.098 6.594-5.267 8.003-10.448l.005-.014-.04.007c.768-.314 1.551-.6 2.348-.857-.024.011-.05.02-.074.032l-.001.013a23.26 23.26 0 0 1-1.503 5.737l3.934-3.255-3.55 6.68A31.012 31.012 0 0 1 34.017 9.91a24.1 24.1 0 0 1 23.837 20.846 16.392 16.392 0 0 1 3.05 22.015A32.906 32.906 0 0 1 46.244 64.44z" fill="#FFDC0A"/>
        <path d="M30.097 58.963a28.712 28.712 0 0 1-7.624-2.543l-.07-.033-.357.168-5.788 4.656 14.995-2.08-1.156-.168zM42.245 57.874a28.858 28.858 0 0 1-7.918 1.327l-.084.003-.237.316-2.932 6.827 12.272-8.866-1.101.393zM11.14 44.783a28.854 28.854 0 0 1-2.168-7.733l-.012-.08-.339-.201-7.101-2.183 10.13 11.25-.51-1.053zM18.851 54.232a28.741 28.741 0 0 1-5.541-5.818l-.046-.062-.412-.02-7.278 1.401 14.221 5.19-.944-.69z" fill="#FFDC0A"/>
        <path d="M85.02 55.078h3.996v.969H86.52v2.128h2.348v.97h-2.348v2.489h2.598v.968h-4.098v-7.524zM89.933 55.078h1.509l1.05 2.338 1.038-2.338h1.52l-1.81 3.718 1.88 3.806h-1.56l-1.069-2.488-1.069 2.489h-1.559l1.879-3.807-1.809-3.718zM100.848 60.392v.45c0 1.158-.529 1.909-2.418 1.909-1.889 0-2.418-.75-2.418-1.91v-4.007c0-1.16.62-1.908 2.418-1.908 1.799 0 2.418.749 2.418 1.908v.35h-1.499v-.31a.866.866 0 0 0-.919-.98.869.869 0 0 0-.92.98v3.927c0 .57.21.98.92.98.71 0 .92-.41.92-.98v-.41h1.498zM105.431 62.602v-3.457h-1.838v3.457h-1.499v-7.524h1.499v3.097h1.838v-3.097h1.499v7.524h-1.499zM109.876 60.285l-.36 2.318h-1.559l1.289-7.525h3.118l1.289 7.524h-1.559l-.359-2.317h-1.859zm1.719-.97-.52-3.268h-.54l-.52 3.268h1.58zM117.982 62.6v-5.725a.857.857 0 0 0-.227-.708.873.873 0 0 0-.692-.272.871.871 0 0 0-.886.6.871.871 0 0 0-.033.38V62.6h-1.499v-5.766c0-1.16.619-1.908 2.418-1.908 1.798 0 2.418.749 2.418 1.908V62.6h-1.499zM123.403 58.623h2.328v2.219c0 1.158-.529 1.909-2.418 1.909-1.889 0-2.418-.75-2.418-1.91v-4.007c0-1.16.619-1.908 2.418-1.908 1.799 0 2.418.749 2.418 1.908v.36h-1.499v-.32a.857.857 0 0 0-.227-.707.873.873 0 0 0-.692-.272.871.871 0 0 0-.886.6.871.871 0 0 0-.033.38V60.8c0 .57.209.98.919.98.709 0 .919-.41.919-.98v-1.209h-.829v-.969zM127.078 55.078h3.997v.969h-2.498v2.128h2.349v.97h-2.349v2.489h2.598v.968h-4.097v-7.524zM136.356 55.008v2.608a1.393 1.393 0 0 1 1.159-.42 1.54 1.54 0 0 1 1.7 1.57v2.417a1.541 1.541 0 0 1-.49 1.167 1.541 1.541 0 0 1-1.199.402 1.405 1.405 0 0 1-1.29-.61l-.099.46h-1.199v-7.594h1.418zm0 3.787v2.358a.667.667 0 0 0 .439.665c.09.032.186.044.281.035a.663.663 0 0 0 .719-.7v-2.358a.66.66 0 0 0-.719-.7.661.661 0 0 0-.72.7zM144.547 57.344v6.225c0 .96-.77 1.52-2.169 1.52-1.398 0-2.088-.56-2.088-1.52v-.11h1.419v.11a.627.627 0 0 0 .212.473.628.628 0 0 0 .497.147c.47 0 .71-.23.71-.62V62.32a1.325 1.325 0 0 1-1.169.43 1.533 1.533 0 0 1-1.57-.933 1.541 1.541 0 0 1-.119-.636v-3.837h1.419v3.806a.64.64 0 0 0 .436.67.65.65 0 0 0 .284.03.646.646 0 0 0 .719-.7v-3.806h1.419zM153.413 60.793c0 1.16-.68 1.81-2.318 1.81h-2.618v-7.525h2.618c1.638 0 2.318.7 2.318 1.908v3.807zm-3.437.84h.919c.72 0 1.019-.3 1.019-.98v-3.627c0-.669-.21-.979-.919-.979h-1.019v5.587zM158.693 62.602l-.9-2.488c-.189-.51-.32-.64-.799-.64h-.639v3.129h-1.5v-7.525h2.618c1.33 0 2.119.66 2.119 1.808v.78a1.344 1.344 0 0 1-1.149 1.46c.43.129.61.318.83.888l.968 2.588h-1.548zm-2.338-4.096h.819a.81.81 0 0 0 .919-.88v-.7c0-.479-.21-.879-.919-.879h-.819v2.459zM162.614 60.285l-.36 2.318h-1.559l1.29-7.525h3.117l1.289 7.524h-1.558l-.36-2.317h-1.859zm1.719-.97-.52-3.268h-.539l-.52 3.268h1.579zM172.208 60.392v.45c0 1.158-.53 1.909-2.419 1.909-1.888 0-2.418-.75-2.418-1.91v-4.007c0-1.16.62-1.908 2.418-1.908 1.799 0 2.419.749 2.419 1.908v.35h-1.499v-.31a.872.872 0 0 0-.543-.921.869.869 0 0 0-.377-.058.864.864 0 0 0-.885.6.872.872 0 0 0-.034.38V60.8c0 .57.21.98.919.98.71 0 .92-.41.92-.98v-.41h1.499zM178.239 60.842c0 1.158-.619 1.909-2.418 1.909-1.799 0-2.419-.75-2.419-1.91v-4.007c0-1.16.62-1.908 2.419-1.908s2.418.749 2.418 1.908v4.008zm-1.499-3.967a.872.872 0 0 0-.543-.922.864.864 0 0 0-.376-.058.869.869 0 0 0-.92.98V60.8a.873.873 0 0 0 .227.709.867.867 0 0 0 .693.272.863.863 0 0 0 .692-.272.863.863 0 0 0 .227-.709v-3.926zM85.02 5.672h23.15v5.613H93.702v12.328h13.601v5.617h-13.6V43.64h15.047v5.613H85.02V5.672zM113.511 5.672h8.739l6.077 13.544 6.018-13.544h8.798l-10.476 21.532 10.882 22.05h-9.03l-6.192-14.411-6.192 14.41h-9.03l10.882-22.05-10.476-21.531zM178.236 38.778c0 6.715-3.935 10.476-13.426 10.476h-15.165V5.672h15.165c9.491 0 13.426 4.053 13.426 11.056v22.05zm-19.909 4.863h5.323c4.169 0 5.905-1.739 5.905-5.674V16.96c0-3.879-1.216-5.674-5.325-5.674h-5.903V43.64z" fill="#fff"/>
    </g>
    <defs>
        <clipPath id="a">
            <path fill="#fff" d="M0 0h178.236v68H0z"/>
        </clipPath>
    </defs>
</svg>
