<svg width="31" height="31" viewBox="0 0 31 31" fill="none" xmlns="http://www.w3.org/2000/svg">
<path d="M30.4971 14.4729C30.5011 14.4156 30.5011 14.358 30.4971 14.3006C30.5008 14.2407 30.5008 14.1807 30.4971 14.1208C30.4971 13.7911 30.4296 13.469 30.3771 13.1468H26.7475C26.5733 13.1468 26.4027 13.1961 26.2554 13.2889C26.1081 13.3817 25.9901 13.5143 25.9151 13.6713L24.7002 16.1287L23.2528 10.0226C23.2 9.81591 23.0782 9.63341 22.9074 9.50532C22.7366 9.37722 22.5272 9.31121 22.3138 9.3182C22.1004 9.32519 21.8958 9.40477 21.7338 9.54376C21.5718 9.68276 21.4621 9.87284 21.423 10.0826L20.3206 16.5707L19.1957 6.83099C19.1698 6.60319 19.0605 6.39302 18.8889 6.24088C18.7172 6.08874 18.4953 6.00539 18.2658 6.00685C18.0372 6.00558 17.8162 6.08918 17.6458 6.24146C17.4753 6.39374 17.3676 6.60383 17.3434 6.83099L15.2961 24.2876C15.2846 24.3752 15.2906 24.4643 15.3139 24.5496C15.3372 24.6349 15.3772 24.7148 15.4316 24.7845C15.486 24.8542 15.5538 24.9124 15.631 24.9557C15.7081 24.9991 15.7932 25.0266 15.8811 25.0368H15.9636C16.1279 25.0362 16.2863 24.9757 16.4092 24.8668C16.532 24.7578 16.6109 24.6078 16.631 24.4449L18.2658 10.4347L19.3232 19.5526C19.3558 19.7699 19.4638 19.969 19.6284 20.1148C19.793 20.2606 20.0037 20.3439 20.2237 20.3502C20.4436 20.3565 20.6587 20.2852 20.8313 20.149C21.004 20.0128 21.1232 19.8202 21.168 19.605L22.4129 12.2702L23.6578 17.5147C23.703 17.7008 23.8042 17.8686 23.9478 17.9955C24.0914 18.1224 24.2704 18.2022 24.4609 18.2243C24.6513 18.2463 24.8439 18.2095 25.0127 18.1188C25.1816 18.0281 25.3185 17.8879 25.4051 17.717L27.0099 14.4654H28.8023C28.8023 14.8026 28.8023 15.1472 28.8023 15.4918C28.7769 18.6952 27.5957 21.7819 25.4754 24.1851C23.3552 26.5883 20.4383 28.1466 17.2604 28.5739C14.0825 29.0012 10.857 28.2687 8.17627 26.511C5.49552 24.7533 3.5395 22.0884 2.66742 19.0056H0.912598C1.76872 22.5772 3.90792 25.7102 6.92394 27.8098C9.93997 29.9094 13.6228 30.8293 17.273 30.3949C20.9232 29.9604 24.2866 28.2018 26.7244 25.4531C29.1623 22.7043 30.5048 19.1569 30.4971 15.4844C30.4971 15.1547 30.4971 14.8101 30.4971 14.4729Z" fill="#27EA84"/>
<path d="M15.4985 0.500017C11.5206 0.500017 7.70571 2.0787 4.89295 4.88879C2.08019 7.69887 0.5 11.5102 0.5 15.4842H0.5C0.5 15.8288 0.5 16.1735 0.537496 16.5106C0.53351 16.5805 0.53351 16.6505 0.537496 16.7204C0.537496 16.7204 0.537496 16.8028 0.537496 16.8403L0.582492 17.2299C0.582492 17.4322 0.634986 17.6344 0.664983 17.8367H4.24962C4.42377 17.8367 4.59437 17.7875 4.74168 17.6947C4.88899 17.6019 5.00699 17.4693 5.08203 17.3123L6.29691 14.8549L7.77426 20.9984C7.82706 21.2051 7.94893 21.3876 8.11968 21.5157C8.29043 21.6438 8.49985 21.7098 8.71327 21.7028C8.92668 21.6958 9.13132 21.6162 9.29331 21.4772C9.4553 21.3383 9.56493 21.1482 9.60407 20.9385L10.7065 14.4503L11.8313 24.19C11.8572 24.4178 11.9665 24.628 12.1382 24.7801C12.3099 24.9323 12.5318 25.0156 12.7612 25.0142C12.9899 25.0154 13.2109 24.9318 13.3813 24.7795C13.5517 24.6273 13.6595 24.4172 13.6837 24.19L15.7309 6.71096C15.7505 6.61923 15.7507 6.52444 15.7315 6.43264C15.7122 6.34083 15.6741 6.25404 15.6194 6.17781C15.5647 6.10158 15.4947 6.03759 15.4139 5.98992C15.333 5.94225 15.2431 5.91195 15.1499 5.90096C15.0566 5.88997 14.9622 5.89853 14.8724 5.9261C14.7827 5.95367 14.6997 5.99963 14.6288 6.06105C14.5578 6.12248 14.5005 6.19801 14.4604 6.28283C14.4204 6.36764 14.3984 6.45987 14.3961 6.55363L12.7537 20.5564L11.7039 11.4385C11.6812 11.2132 11.5769 11.004 11.4107 10.8502C11.2445 10.6963 11.0278 10.6083 10.8013 10.6028C10.5748 10.5973 10.354 10.6746 10.1805 10.8202C10.007 10.9658 9.89271 11.1697 9.85904 11.3935L8.60667 18.7208L7.3693 13.4763C7.31225 13.2351 7.16182 13.0263 6.95097 12.8957C6.74012 12.7651 6.48604 12.7233 6.24441 12.7796C6.10996 12.8118 5.98407 12.8727 5.87534 12.958C5.76662 13.0434 5.67764 13.1512 5.61448 13.274L4.01714 16.5181H2.22482C2.22482 16.181 2.17983 15.8363 2.17983 15.4917C2.1834 12.2691 3.35687 9.1571 5.48255 6.73315C7.60822 4.3092 10.5418 2.73782 13.739 2.31053C16.9363 1.88323 20.1801 2.62903 22.8688 4.40957C25.5574 6.1901 27.5084 8.8845 28.3597 11.9929H30.107C29.3208 8.71484 27.4513 5.79737 24.8005 3.71192C22.1497 1.62647 18.8725 0.494884 15.4985 0.500017Z" fill="#27EA84"/>
</svg>
