<svg width="26" height="14" viewBox="0 0 26 14" fill="none" xmlns="http://www.w3.org/2000/svg">
<path fill-rule="evenodd" clip-rule="evenodd" d="M22 1.5H4C2.61929 1.5 1.5 2.61929 1.5 4V10C1.5 11.3807 2.61929 12.5 4 12.5H22C23.3807 12.5 24.5 11.3807 24.5 10V4C24.5 2.61929 23.3807 1.5 22 1.5ZM4 0C1.79086 0 0 1.79086 0 4V10C0 12.2091 1.79086 14 4 14H22C24.2091 14 26 12.2091 26 10V4C26 1.79086 24.2091 0 22 0H4Z" fill="#2A3448"/>
<path fill-rule="evenodd" clip-rule="evenodd" d="M6.49986 4.25C6.93602 4.25 7.28961 4.60178 7.28961 5.03571V5.63846L7.81471 5.33684C8.19244 5.11987 8.67544 5.24863 8.89352 5.62443C9.11161 6.00024 8.98219 6.48077 8.60446 6.69774L8.07932 6.99938L8.60464 7.30113C8.98237 7.5181 9.11179 7.99863 8.89371 8.37443C8.67562 8.75024 8.19262 8.879 7.81489 8.66203L7.28961 8.3603V8.96429C7.28961 9.39822 6.93602 9.75 6.49986 9.75C6.06369 9.75 5.71011 9.39822 5.71011 8.96429V8.36026L5.18475 8.66203C4.80702 8.879 4.32402 8.75024 4.10594 8.37443C3.88786 7.99863 4.01728 7.5181 4.39501 7.30113L4.92033 6.99938L4.39519 6.69774C4.01746 6.48077 3.88804 6.00024 4.10612 5.62443C4.3242 5.24863 4.80721 5.11987 5.18494 5.33684L5.71011 5.63851V5.03571C5.71011 4.60178 6.06369 4.25 6.49986 4.25Z" fill="#2A3448"/>
<path fill-rule="evenodd" clip-rule="evenodd" d="M19.4999 4.25C19.936 4.25 20.2896 4.60178 20.2896 5.03571V5.63846L20.8147 5.33684C21.1924 5.11987 21.6754 5.24863 21.8935 5.62443C22.1116 6.00024 21.9822 6.48077 21.6045 6.69774L21.0793 6.99938L21.6046 7.30113C21.9824 7.5181 22.1118 7.99863 21.8937 8.37443C21.6756 8.75024 21.1926 8.879 20.8149 8.66203L20.2896 8.3603V8.96429C20.2896 9.39822 19.936 9.75 19.4999 9.75C19.0637 9.75 18.7101 9.39822 18.7101 8.96429V8.36026L18.1848 8.66203C17.807 8.879 17.324 8.75024 17.1059 8.37443C16.8879 7.99863 17.0173 7.5181 17.395 7.30113L17.9203 6.99938L17.3952 6.69774C17.0175 6.48077 16.888 6.00024 17.1061 5.62443C17.3242 5.24863 17.8072 5.11987 18.1849 5.33684L18.7101 5.63851V5.03571C18.7101 4.60178 19.0637 4.25 19.4999 4.25Z" fill="#2A3448"/>
<path fill-rule="evenodd" clip-rule="evenodd" d="M12.9999 4.25C13.436 4.25 13.7896 4.60178 13.7896 5.03571V5.63846L14.3147 5.33684C14.6924 5.11987 15.1754 5.24863 15.3935 5.62443C15.6116 6.00024 15.4822 6.48077 15.1045 6.69774L14.5793 6.99938L15.1046 7.30113C15.4824 7.5181 15.6118 7.99863 15.3937 8.37443C15.1756 8.75024 14.6926 8.879 14.3149 8.66203L13.7896 8.3603V8.96429C13.7896 9.39822 13.436 9.75 12.9999 9.75C12.5637 9.75 12.2101 9.39822 12.2101 8.96429V8.36026L11.6848 8.66203C11.307 8.879 10.824 8.75024 10.6059 8.37443C10.3879 7.99863 10.5173 7.5181 10.895 7.30113L11.4203 6.99938L10.8952 6.69774C10.5175 6.48077 10.388 6.00024 10.6061 5.62443C10.8242 5.24863 11.3072 5.11987 11.6849 5.33684L12.2101 5.63851V5.03571C12.2101 4.60178 12.5637 4.25 12.9999 4.25Z" fill="#2A3448"/>
</svg>
