<svg width="16" height="16" viewBox="0 0 16 16" fill="none" xmlns="http://www.w3.org/2000/svg">
<g clip-path="url(#clip0_114:2231)">
<path d="M8.23287 13.9892L7.98571 14.236C7.91754 14.3035 7.86354 14.384 7.82662 14.4724C7.78969 14.5609 7.77051 14.6556 7.77051 14.7514C7.77051 14.8473 7.78969 14.9423 7.82662 15.0308C7.86354 15.1193 7.91754 15.1994 7.98571 15.2669C8.05065 15.3367 8.12956 15.3921 8.21724 15.4296C8.30492 15.4671 8.39956 15.4861 8.49494 15.4849C8.59006 15.4844 8.68378 15.4649 8.77122 15.4275C8.85865 15.3901 8.93746 15.3353 9.00346 15.2669L9.26554 15.0056C9.39879 14.8699 9.47363 14.6877 9.47363 14.4976C9.47363 14.3076 9.39879 14.125 9.26554 13.9892C9.19793 13.9212 9.11766 13.8673 9.02903 13.8304C8.94041 13.7936 8.84521 13.7744 8.7492 13.7744C8.65319 13.7744 8.558 13.7936 8.46937 13.8304C8.38075 13.8673 8.30048 13.9212 8.23287 13.9892Z" fill="#BDBDBD"/>
<path d="M12.7128 9.53222L12.2618 9.98245C12.1286 10.1182 12.0537 10.3008 12.0537 10.4908C12.0537 10.6809 12.1286 10.8631 12.2618 10.9988C12.4006 11.1378 12.5887 11.2164 12.7852 11.2169C12.9771 11.2141 13.1602 11.1356 13.2945 10.9988L13.7455 10.5631C13.8797 10.425 13.9543 10.2401 13.9543 10.0477C13.9543 9.85524 13.8797 9.67038 13.7455 9.53222C13.6779 9.46417 13.5976 9.41026 13.509 9.3734C13.4203 9.33654 13.3251 9.31738 13.2291 9.31738C13.1331 9.31738 13.0379 9.33654 12.9493 9.3734C12.8607 9.41026 12.7804 9.46417 12.7128 9.53222Z" fill="#BDBDBD"/>
<path d="M10.4731 11.7685L10.0221 12.2188C9.88881 12.3545 9.81396 12.5367 9.81396 12.7268C9.81396 12.9168 9.88881 13.0994 10.0221 13.2352C10.1608 13.3742 10.3489 13.4524 10.5455 13.4528C10.7373 13.4501 10.9205 13.372 11.0547 13.2352L11.5057 12.7995C11.6399 12.6613 11.7145 12.4764 11.7145 12.284C11.7145 12.0916 11.6399 11.9067 11.5057 11.7685C11.4381 11.7005 11.3578 11.6466 11.2692 11.6097C11.1806 11.5729 11.0854 11.5537 10.9894 11.5537C10.8934 11.5537 10.7982 11.5729 10.7096 11.6097C10.6209 11.6466 10.5407 11.7005 10.4731 11.7685Z" fill="#BDBDBD"/>
<path d="M10.4731 4.23223C10.6118 4.37122 10.7999 4.44942 10.9965 4.4499C11.1883 4.44717 11.3714 4.36903 11.5057 4.23223C11.639 4.09651 11.7138 3.9139 11.7138 3.72386C11.7138 3.53382 11.639 3.35156 11.5057 3.21585L11.0547 2.76562C10.9871 2.69756 10.9069 2.64365 10.8182 2.60679C10.7296 2.56993 10.6344 2.55078 10.5384 2.55078C10.4424 2.55078 10.3472 2.56993 10.2586 2.60679C10.1699 2.64365 10.0897 2.69756 10.0221 2.76562C9.88881 2.90133 9.81396 3.08394 9.81396 3.27399C9.81396 3.46403 9.88881 3.64628 10.0221 3.782L10.4731 4.23223Z" fill="#BDBDBD"/>
<path d="M13.2945 5.00194C13.2269 4.93389 13.1466 4.87963 13.058 4.84277C12.9693 4.80591 12.8742 4.78711 12.7781 4.78711C12.6821 4.78711 12.5869 4.80591 12.4983 4.84277C12.4097 4.87963 12.3294 4.93389 12.2618 5.00194C12.1286 5.13766 12.0537 5.31992 12.0537 5.50996C12.0537 5.7 12.1286 5.88261 12.2618 6.01833L12.7128 6.46856C12.8471 6.60536 13.0302 6.6835 13.222 6.68623C13.4186 6.68575 13.6067 6.60755 13.7455 6.46856C13.8797 6.33039 13.9543 6.14554 13.9543 5.9531C13.9543 5.76066 13.8797 5.5758 13.7455 5.43764L13.2945 5.00194Z" fill="#BDBDBD"/>
<path d="M9.00346 0.718199C8.93817 0.648745 8.85949 0.593319 8.77193 0.555478C8.68437 0.517636 8.59035 0.498047 8.49494 0.498047C8.39953 0.498047 8.3048 0.517636 8.21724 0.555478C8.12968 0.593319 8.051 0.648745 7.98571 0.718199C7.91754 0.785694 7.86354 0.865829 7.82662 0.954304C7.78969 1.04278 7.77051 1.13781 7.77051 1.23366C7.77051 1.32951 7.78969 1.42419 7.82662 1.51266C7.86354 1.60114 7.91754 1.68163 7.98571 1.74912L8.23287 1.99586C8.37161 2.13485 8.55975 2.21305 8.7563 2.21353C8.94814 2.2108 9.13126 2.13266 9.26554 1.99586C9.39879 1.86014 9.47363 1.67753 9.47363 1.48749C9.47363 1.29745 9.39879 1.11519 9.26554 0.979474L9.00346 0.718199Z" fill="#BDBDBD"/>
<path d="M1.09091 7.28125H0.727273C0.534388 7.28125 0.349458 7.3578 0.213068 7.49396C0.0766781 7.63012 0 7.81473 0 8.00729C0.00372374 8.19869 0.0817383 8.38136 0.21733 8.51673C0.352921 8.65209 0.535554 8.72961 0.727273 8.73333H1.09091C1.28379 8.73333 1.46872 8.65714 1.60511 8.52098C1.7415 8.38482 1.81818 8.19985 1.81818 8.00729C1.81818 7.81473 1.7415 7.63012 1.60511 7.49396C1.46872 7.3578 1.28379 7.28125 1.09091 7.28125Z" fill="#BDBDBD"/>
<path d="M4.72701 7.28125H3.99973C3.80685 7.28125 3.62192 7.3578 3.48553 7.49396C3.34914 7.63012 3.27246 7.81473 3.27246 8.00729C3.27618 8.19869 3.3542 8.38136 3.48979 8.51673C3.62538 8.65209 3.80801 8.72961 3.99973 8.73333H4.72701C4.91989 8.73333 5.10482 8.65714 5.24121 8.52098C5.3776 8.38482 5.45428 8.19985 5.45428 8.00729C5.45428 7.81473 5.3776 7.63012 5.24121 7.49396C5.10482 7.3578 4.91989 7.28125 4.72701 7.28125Z" fill="#BDBDBD"/>
<path d="M12.7272 8.00729C12.7272 7.81473 12.6506 7.63012 12.5142 7.49396C12.3778 7.3578 12.1928 7.28125 12 7.28125H11.2727C11.0798 7.28125 10.8949 7.3578 10.7585 7.49396C10.6221 7.63012 10.5454 7.81473 10.5454 8.00729C10.5491 8.19869 10.6271 8.38136 10.7627 8.51673C10.8983 8.65209 11.081 8.72961 11.2727 8.73333H12C12.1928 8.73333 12.3778 8.65714 12.5142 8.52098C12.6506 8.38482 12.7272 8.19985 12.7272 8.00729Z" fill="#BDBDBD"/>
<path d="M9.091 8.00729C9.091 7.81473 9.01432 7.63012 8.87793 7.49396C8.74154 7.3578 8.55661 7.28125 8.36372 7.28125H7.63645C7.44357 7.28125 7.25864 7.3578 7.12225 7.49396C6.98586 7.63012 6.90918 7.81473 6.90918 8.00729C6.9129 8.19869 6.99092 8.38136 7.12651 8.51673C7.2621 8.65209 7.44473 8.72961 7.63645 8.73333H8.36372C8.55661 8.73333 8.74154 8.65714 8.87793 8.52098C9.01432 8.38482 9.091 8.19985 9.091 8.00729Z" fill="#BDBDBD"/>
<path d="M15.9416 8.26927C15.95 8.21636 15.95 8.16229 15.9416 8.10938C15.9416 8.10938 15.9416 8.10928 15.9416 8.00764C15.9416 7.90599 15.9416 7.93527 15.9416 7.89171C15.95 7.8388 15.95 7.78474 15.9416 7.73183C15.911 7.63691 15.856 7.55187 15.7818 7.48509L15.5346 7.22381C15.3962 7.08986 15.2111 7.01465 15.0183 7.01465C14.8255 7.01465 14.6404 7.08986 14.502 7.22381C14.3969 7.32976 14.3305 7.46781 14.313 7.6159C14.233 7.73154 14.1871 7.8672 14.1816 8.00764C14.1898 8.14308 14.2356 8.27369 14.313 8.38519C14.3335 8.53239 14.3995 8.66951 14.502 8.77728C14.6417 8.9039 14.8225 8.97626 15.0112 8.98077C15.2049 8.97978 15.3912 8.90718 15.5346 8.77728L15.7818 8.51601C15.856 8.44922 15.911 8.36418 15.9416 8.26927Z" fill="#BDBDBD"/>
</g>
<defs>
<clipPath id="clip0_114:2231">
<rect width="16" height="15" fill="white" transform="translate(0 0.5)"/>
</clipPath>
</defs>
</svg>
