<svg width="121" height="15" viewBox="0 0 121 15" fill="none" xmlns="http://www.w3.org/2000/svg">
<path d="M6.402 0.423544H9.22142V11.4005C9.22142 11.9393 9.35299 12.3466 9.61614 12.6223C9.89182 12.8979 10.274 13.0358 10.7627 13.0358C11.289 13.0358 11.6775 12.8854 11.9281 12.5847C12.1787 12.2839 12.304 11.8829 12.304 11.3817V0.423544H15.1234V11.2689C15.1234 11.7952 15.0482 12.2777 14.8979 12.7162C14.7475 13.1548 14.5031 13.537 14.1648 13.8628C13.839 14.1761 13.413 14.4204 12.8867 14.5959C12.3604 14.7713 11.7213 14.859 10.9695 14.859C10.0923 14.859 9.39685 14.74 8.88309 14.5019C8.38186 14.2513 8.02473 13.9756 7.81171 13.6748C7.59868 13.9756 7.23529 14.2513 6.72153 14.5019C6.2203 14.74 5.53111 14.859 4.65395 14.859C3.90211 14.859 3.26304 14.7713 2.73674 14.5959C2.21045 14.4204 1.77814 14.1761 1.43981 13.8628C1.11401 13.537 0.875923 13.1548 0.725554 12.7162C0.575185 12.2777 0.5 11.7952 0.5 11.2689V0.423544H3.31942V11.3817C3.31942 11.8829 3.44473 12.2839 3.69535 12.5847C3.94596 12.8854 4.33442 13.0358 4.86071 13.0358C5.34941 13.0358 5.72533 12.8979 5.98848 12.6223C6.26416 12.3466 6.402 11.9393 6.402 11.4005V0.423544Z" fill="black"/>
<path d="M17.8841 0.423544H25.4026V2.24677H20.7035V6.25036H25.1206V8.07358H20.7035V12.7538H25.5905V14.5771H17.8841V0.423544Z" fill="black"/>
<path d="M33.6968 3.60009C33.6968 3.06127 33.559 2.65402 33.2833 2.37834C33.0202 2.10267 32.6442 1.96483 32.1555 1.96483C31.6292 1.96483 31.2408 2.1152 30.9902 2.41594C30.7396 2.71668 30.6142 3.11766 30.6142 3.61889V14.5771H27.7948V3.73167C27.7948 3.20538 27.87 2.72294 28.0204 2.28436C28.1707 1.84579 28.4088 1.46986 28.7346 1.15659C29.073 0.830794 29.5053 0.580179 30.0316 0.404748C30.5579 0.229317 31.1969 0.141602 31.9488 0.141602C32.8259 0.141602 33.5151 0.266909 34.0163 0.517524C34.5301 0.755609 34.8935 1.02502 35.1065 1.32576C35.3195 1.02502 35.6767 0.755609 36.1779 0.517524C36.6917 0.266909 37.3871 0.141602 38.2643 0.141602C39.0161 0.141602 39.6552 0.229317 40.1815 0.404748C40.7078 0.580179 41.1338 0.830794 41.4596 1.15659C41.798 1.46986 42.0423 1.84579 42.1927 2.28436C42.343 2.72294 42.4182 3.20538 42.4182 3.73167V14.5771H39.5988V3.61889C39.5988 3.11766 39.4735 2.71668 39.2229 2.41594C38.9723 2.1152 38.5838 1.96483 38.0575 1.96483C37.5688 1.96483 37.1866 2.10267 36.911 2.37834C36.6478 2.65402 36.5162 3.06127 36.5162 3.60009V14.5771H33.6968V3.60009Z" fill="black"/>
<path d="M47.9983 14.5771H45.1789V0.423544H47.9983V14.5771Z" fill="black"/>
<path d="M50.0998 0.423544H52.9381L54.9117 4.82185L56.8665 0.423544H59.7235L56.3214 7.41572L59.8551 14.5771H56.9229L54.9117 9.89681L52.9005 14.5771H49.9683L53.5019 7.41572L50.0998 0.423544Z" fill="black"/>
<path d="M72.6291 0.423544H75.4485V11.4005C75.4485 11.9393 75.5801 12.3466 75.8432 12.6223C76.1189 12.8979 76.5011 13.0358 76.9898 13.0358C77.5161 13.0358 77.9046 12.8854 78.1552 12.5847C78.4058 12.2839 78.5311 11.8829 78.5311 11.3817V0.423544H81.3505V11.2689C81.3505 11.7952 81.2753 12.2777 81.125 12.7162C80.9746 13.1548 80.7303 13.537 80.3919 13.8628C80.0661 14.1761 79.6401 14.4204 79.1138 14.5959C78.5875 14.7713 77.9484 14.859 77.1966 14.859C76.3194 14.859 75.624 14.74 75.1102 14.5019C74.609 14.2513 74.2518 13.9756 74.0388 13.6748C73.8258 13.9756 73.4624 14.2513 72.9486 14.5019C72.4474 14.74 71.7582 14.859 70.8811 14.859C70.1292 14.859 69.4902 14.7713 68.9639 14.5959C68.4376 14.4204 68.0052 14.1761 67.6669 13.8628C67.3411 13.537 67.103 13.1548 66.9527 12.7162C66.8023 12.2777 66.7271 11.7952 66.7271 11.2689V0.423544H69.5465V11.3817C69.5465 11.8829 69.6718 12.2839 69.9225 12.5847C70.1731 12.8854 70.5615 13.0358 71.0878 13.0358C71.5765 13.0358 71.9524 12.8979 72.2156 12.6223C72.4913 12.3466 72.6291 11.9393 72.6291 11.4005V0.423544Z" fill="black"/>
<path d="M89.08 14.5771L88.892 13.7124C88.7291 14.0508 88.4409 14.3264 88.0274 14.5395C87.6139 14.7525 87.1252 14.859 86.5613 14.859C85.5714 14.859 84.7882 14.6084 84.2118 14.1072C83.6479 13.6059 83.366 12.9042 83.366 12.002V11.4757C83.366 11.0747 83.4286 10.705 83.5539 10.3667C83.6918 10.0284 83.9048 9.73391 84.193 9.48329C84.4937 9.23268 84.8697 9.03845 85.3208 8.90061C85.7844 8.75025 86.3358 8.67506 86.9748 8.67506H88.6665V7.32174C88.6665 6.95834 88.5725 6.66387 88.3846 6.43832C88.2091 6.21276 87.9272 6.09998 87.5387 6.09998C87.1503 6.09998 86.8621 6.21276 86.6741 6.43832C86.4987 6.66387 86.4109 6.95834 86.4109 7.32174V7.43451H83.7419V7.26535C83.7419 6.36313 84.0802 5.66141 84.7569 5.16018C85.4336 4.65895 86.3608 4.40833 87.5387 4.40833C88.7166 4.40833 89.6439 4.65895 90.3205 5.16018C90.9972 5.66141 91.3355 6.36313 91.3355 7.26535V14.5771H89.08ZM86.035 11.908C86.035 12.2714 86.1415 12.5721 86.3546 12.8102C86.5801 13.0483 86.9122 13.1673 87.3508 13.1673C87.7893 13.1673 88.1151 13.0483 88.3282 12.8102C88.5537 12.5721 88.6665 12.2777 88.6665 11.9268V10.2539H87.4635C86.9748 10.2539 86.6114 10.3792 86.3734 10.6299C86.1478 10.8805 86.035 11.1937 86.035 11.5697V11.908Z" fill="black"/>
<path d="M96.2657 0.29197V12.096C96.2657 12.5095 96.3409 12.7914 96.4913 12.9418C96.6542 13.0922 96.9236 13.1673 97.2995 13.1673H97.8822V14.859H96.2657C95.2883 14.859 94.5991 14.6397 94.1981 14.2011C93.7972 13.75 93.5967 13.111 93.5967 12.2839V0.29197H96.2657Z" fill="black"/>
<path d="M102.158 0.29197V12.096C102.158 12.5095 102.233 12.7914 102.383 12.9418C102.546 13.0922 102.816 13.1673 103.192 13.1673H103.774V14.859H102.158C101.18 14.859 100.491 14.6397 100.09 14.2011C99.6893 13.75 99.4888 13.111 99.4888 12.2839V0.29197H102.158Z" fill="black"/>
<path d="M113.106 11.8516V12.002C113.106 12.4531 113.037 12.8603 112.899 13.2237C112.774 13.5746 112.555 13.8753 112.242 14.1259C111.941 14.364 111.54 14.5457 111.039 14.671C110.537 14.7963 109.911 14.859 109.159 14.859C107.756 14.859 106.734 14.6084 106.095 14.1072C105.456 13.6059 105.137 12.9042 105.137 12.002V7.26535C105.137 6.36313 105.469 5.66141 106.133 5.16018C106.809 4.65895 107.806 4.40833 109.121 4.40833C110.437 4.40833 111.427 4.65895 112.091 5.16018C112.768 5.66141 113.106 6.36313 113.106 7.26535V10.3479H107.806V11.9456C107.806 12.309 107.912 12.6035 108.125 12.829C108.338 13.0546 108.683 13.1673 109.159 13.1673C109.447 13.1673 109.679 13.136 109.854 13.0734C110.03 13.0107 110.168 12.9293 110.268 12.829C110.368 12.7162 110.437 12.5847 110.475 12.4343C110.512 12.2839 110.531 12.121 110.531 11.9456V11.8516H113.106ZM107.806 8.76904H110.437V7.32174C110.437 6.95834 110.337 6.66387 110.136 6.43832C109.936 6.21276 109.598 6.09998 109.121 6.09998C108.645 6.09998 108.307 6.21276 108.106 6.43832C107.906 6.66387 107.806 6.95834 107.806 7.32174V8.76904Z" fill="black"/>
<path d="M118.62 1.6077V4.69027H120.5V6.38193H118.62V12.096C118.62 12.4844 118.714 12.7601 118.902 12.923C119.103 13.0859 119.422 13.1673 119.861 13.1673H120.5V14.859H118.921C117.869 14.859 117.11 14.6585 116.647 14.2575C116.183 13.844 115.951 13.1861 115.951 12.2839V6.38193H114.617V4.69027H115.951V1.6077H118.62Z" fill="black"/>
</svg>
