<svg xmlns="http://www.w3.org/2000/svg" width="23" height="23" viewBox="0 0 23 23">
    <g>
        <path d="M19.769 10.045a8.632 8.632 0 0 0-.783-1.445L17.34 9.711a6.419 6.419 0 0 1 .6 1.107 6.556 6.556 0 0 1 .38 3.849 6.447 6.447 0 0 1-.381 1.222 6.357 6.357 0 0 1-.6 1.1 6.549 6.549 0 0 1-1.763 1.762 6.41 6.41 0 0 1-1.106.6 6.558 6.558 0 0 1-1.22.38 6.684 6.684 0 0 1-2.627 0 6.529 6.529 0 0 1-3.291-1.771 6.7 6.7 0 0 1-.8-.966 6.509 6.509 0 0 1 .8-8.247 6.458 6.458 0 0 1 .965-.8A6.579 6.579 0 0 1 9.4 7.35a6.491 6.491 0 0 1 1.221-.379c.106-.022.214-.032.322-.049v3.019l4.963-3.971L10.944 2v2.916c-.241.029-.482.062-.72.11a8.521 8.521 0 0 0-4.3 2.317 8.508 8.508 0 0 0-1.821 2.7 8.479 8.479 0 0 0-.668 3.309 8.572 8.572 0 0 0 .173 1.712 8.467 8.467 0 0 0 1.28 3.04 8.8 8.8 0 0 0 1.037 1.259A8.551 8.551 0 0 0 7.182 20.4a8.348 8.348 0 0 0 1.445.784 8.487 8.487 0 0 0 1.6.5 8.608 8.608 0 0 0 3.427 0 8.513 8.513 0 0 0 1.592-.5 8.357 8.357 0 0 0 1.444-.784 8.554 8.554 0 0 0 1.259-1.038 8.647 8.647 0 0 0 1.037-1.257 8.516 8.516 0 0 0 1.279-3.04 8.5 8.5 0 0 0-.5-5.02z" transform="translate(-821 -367) translate(820.563 365.1)"/>
        <path fill="none" d="M0 0H23V23H0z" transform="translate(-821 -367) translate(821 367)"/>
    </g>
</svg>
