<svg viewBox="0 0 223 80" fill="none" xmlns="http://www.w3.org/2000/svg">
    <path d="M12.335 40A28.316 28.316 0 0 0 40.62 68.284 28.316 28.316 0 0 0 68.903 40a28.315 28.315 0 0 0-28.284-28.284c-2.97 0-5.922.467-8.747 1.386-.22 1.713-.66 3.39-1.312 4.99l3.385-2.802-3.05 5.74a26.655 26.655 0 0 1 9.724-1.784A20.778 20.778 0 0 1 61.373 40a20.778 20.778 0 0 1-20.754 20.754 20.688 20.688 0 0 1-18.51-11.37 21.016 21.016 0 0 1-.637-1.376 3.147 3.147 0 0 0-.56-.802 2.823 2.823 0 0 1-.86-1.78c-.288-5.381 1.812-11.529 1.834-11.59l.261-.757-.023.8c-.002.07-.173 6.904 2.144 10.52.247.533.28 1.14.092 1.697-.154.472-.148.98.015 1.449 2.843 5.467 8.005 8.014 16.244 8.014a14.993 14.993 0 0 0 10.794-4.62A15.6 15.6 0 0 0 55.892 40a15.29 15.29 0 0 0-15.273-15.273c-1.85 0-7.479 0-8.16 2.065-.693 2.095-1.503 2.346-2.285 2.588-.301.079-.59.2-.856.36-.443.286-1.573 2.695-1.612 4.188a1.04 1.04 0 0 0 .265.886l.073.052-.026.094c-.066.197-1.335.75-2.37.728l-.082.001c-.262.008-.618.019-.682-.2-.057-.193.16-.418.746-.776a1.862 1.862 0 0 0-.118-.11c-.138-.12-.31-.272-.318-.46a.344.344 0 0 1 .108-.26c.09-.081.195-.147.31-.193a1.197 1.197 0 0 0 .764-1.136c.2-1.716.14-3.743-.448-4.403a.558.558 0 0 0-.43-.209c-1.097 0-4.405 2.107-4.58 3.124a.485.485 0 0 1-.218.384c-.161.072-.329-.035-.507-.148-.324-.205-.537-.307-.765-.019a1.522 1.522 0 0 0-.063 1.622l.17.286-.315-.108c-.066-.022-1.618-.558-2.083-1.2a.488.488 0 0 0-.35-.238.996.996 0 0 1-.46-.222.89.89 0 0 1-.371-.693c.034-.335.2-.644.46-.859.126-.085.268-.146.417-.178.348-.085.673-.248.95-.477.379-.36.812-.656 1.285-.879a3.36 3.36 0 0 0 1.093-.794 97.727 97.727 0 0 1 1.84-1.829c-.57-.166-.856-.372-.918-.655-.121-.552.712-1.218 1.974-2.225 2.277-1.82 5.699-4.552 6.91-9.034A28.144 28.144 0 0 0 12.335 40zm21.755-9.16h6.348A9.171 9.171 0 0 1 49.6 40a9.171 9.171 0 0 1-9.16 9.16H34.09V30.84zm6.48-13.053-.187.247-.057.003c-1.044.047-4.222.193-6.91 1.155l-.814.292 10.5-7.585-2.531 5.888zm10.828 3.072-.051-.026a25.084 25.084 0 0 0-6.562-2.454l-.85-.154 12.884-1.32-5.11 3.82-.312.134zm8.126 7.953-.03-.048c-.565-.88-2.28-3.56-4.457-5.406l-.659-.559 11.819 5.3-6.35.755-.323-.042zm1.61 3.17 7.586 10.5-5.862-2.515-.273-.203-.003-.058a25.086 25.086 0 0 0-1.156-6.909l-.292-.814zm-1.348 18.745c.481-.928 1.944-3.753 2.454-6.561l.155-.851L63.714 56.2l-3.834-5.136-.12-.286.026-.05zm-7.98 8.178.049-.03c.88-.564 3.56-2.28 5.406-4.457l.559-.66-5.3 11.82-.753-6.336.04-.337zm-11.154 3.333.203-.272.058-.003c1.044-.047 4.222-.193 6.909-1.156l.814-.291-10.5 7.585 2.516-5.863zm-10.81-3.097.05.026a25.09 25.09 0 0 0 6.561 2.454l.851.154-12.885 1.32 5.11-3.82.312-.134zm-8.465-7.993.337.04.031.048a25.059 25.059 0 0 0 4.456 5.405l.66.56-11.82-5.3 6.336-.753z" fill="#fff"/>
    <path d="M40.619 9.367a30.534 30.534 0 0 1 11.678 2.311L40.619 0 28.94 11.678a30.534 30.534 0 0 1 11.679-2.31zM68.94 51.678l11.678-11.679L68.94 28.321a30.532 30.532 0 0 1 2.31 11.678 30.534 30.534 0 0 1-2.31 11.679zM40.619 70.633a30.533 30.533 0 0 1-11.679-2.311L40.62 80l11.678-11.678a30.533 30.533 0 0 1-11.678 2.31zM9.987 40a30.53 30.53 0 0 1 2.31-11.68L.62 40l11.678 11.678a30.534 30.534 0 0 1-2.31-11.679zM12.335 40A28.316 28.316 0 0 0 40.62 68.284 28.316 28.316 0 0 0 68.903 40a28.315 28.315 0 0 0-28.284-28.284c-2.97 0-5.922.467-8.747 1.386-.22 1.713-.66 3.39-1.312 4.99l3.385-2.802-3.05 5.74a26.655 26.655 0 0 1 9.724-1.784A20.778 20.778 0 0 1 61.373 40a20.778 20.778 0 0 1-20.754 20.754 20.688 20.688 0 0 1-18.51-11.37 21.016 21.016 0 0 1-.637-1.376 3.147 3.147 0 0 0-.56-.802 2.823 2.823 0 0 1-.86-1.78c-.288-5.381 1.812-11.529 1.834-11.59l.261-.757-.023.8c-.002.07-.173 6.904 2.144 10.52.247.533.28 1.14.092 1.697-.154.472-.148.98.015 1.449 2.843 5.467 8.005 8.014 16.244 8.014a14.993 14.993 0 0 0 10.794-4.62A15.6 15.6 0 0 0 55.892 40a15.29 15.29 0 0 0-15.273-15.273c-1.85 0-7.479 0-8.16 2.065-.693 2.095-1.503 2.346-2.285 2.588-.301.079-.59.2-.856.36-.443.286-1.573 2.695-1.612 4.188a1.04 1.04 0 0 0 .265.886l.073.052-.026.094c-.066.197-1.335.75-2.37.728l-.082.001c-.262.008-.618.019-.682-.2-.057-.193.16-.418.746-.776a1.862 1.862 0 0 0-.118-.11c-.138-.12-.31-.272-.318-.46a.344.344 0 0 1 .108-.26c.09-.081.195-.147.31-.193a1.197 1.197 0 0 0 .764-1.136c.2-1.716.14-3.743-.448-4.403a.558.558 0 0 0-.43-.209c-1.097 0-4.405 2.107-4.58 3.124a.485.485 0 0 1-.218.384c-.161.072-.329-.035-.507-.148-.324-.205-.537-.307-.765-.019a1.522 1.522 0 0 0-.063 1.622l.17.286-.315-.108c-.066-.022-1.618-.558-2.083-1.2a.488.488 0 0 0-.35-.238.996.996 0 0 1-.46-.222.89.89 0 0 1-.371-.693c.034-.335.2-.644.46-.859.126-.085.268-.146.417-.178.348-.085.673-.248.95-.477.379-.36.812-.656 1.285-.879a3.36 3.36 0 0 0 1.093-.794 97.727 97.727 0 0 1 1.84-1.829c-.57-.166-.856-.372-.918-.655-.121-.552.712-1.218 1.974-2.225 2.277-1.82 5.699-4.552 6.91-9.034A28.144 28.144 0 0 0 12.335 40zm21.755-9.16h6.348A9.171 9.171 0 0 1 49.6 40a9.171 9.171 0 0 1-9.16 9.16H34.09V30.84zm6.48-13.053-.187.247-.057.003c-1.044.047-4.222.193-6.91 1.155l-.814.292 10.5-7.585-2.531 5.888zm10.828 3.072-.051-.026a25.084 25.084 0 0 0-6.562-2.454l-.85-.154 12.884-1.32-5.11 3.82-.312.134zm8.126 7.953-.03-.048c-.565-.88-2.28-3.56-4.457-5.406l-.659-.559 11.819 5.3-6.35.755-.323-.042zm1.61 3.17 7.586 10.5-5.862-2.515-.273-.203-.003-.058a25.086 25.086 0 0 0-1.156-6.909l-.292-.814zm-1.348 18.745c.481-.928 1.944-3.753 2.454-6.561l.155-.851L63.714 56.2l-3.834-5.136-.12-.286.026-.05zm-7.98 8.178.049-.03c.88-.564 3.56-2.28 5.406-4.457l.559-.66-5.3 11.82-.753-6.336.04-.337zm-11.154 3.333.203-.272.058-.003c1.044-.047 4.222-.193 6.909-1.156l.814-.291-10.5 7.585 2.516-5.863zm-10.81-3.097.05.026a25.09 25.09 0 0 0 6.561 2.454l.851.154-12.885 1.32 5.11-3.82.312-.134zm-8.465-7.993.337.04.031.048a25.059 25.059 0 0 0 4.456 5.405l.66.56-11.82-5.3 6.336-.753zM127.228 53.696c0 8.127-4.765 12.68-16.255 12.68H92.618V13.623h18.355c11.49 0 16.255 4.904 16.255 13.382v26.692zm-24.101 5.885h6.445c5.045 0 7.147-2.102 7.147-6.866V27.283c0-4.693-1.472-6.865-6.446-6.865h-7.146v39.163zM144.529 51.174v2.592c0 3.363 1.472 6.866 6.446 6.866s6.446-3.503 6.446-6.866v-2.101c0-4.204-1.542-6.095-5.956-7.777l-8.196-3.223c-5.255-1.961-8.898-5.885-8.898-11.77v-2.942c0-8.127 4.414-13.381 16.254-13.381 11.49 0 15.903 5.254 15.903 13.381v2.452h-10.509v-2.172c0-3.993-1.26-6.866-5.394-6.866-4.414 0-5.745 2.873-5.745 6.866v1.612c0 3.152 1.961 4.904 5.255 6.305l8.616 3.573c5.045 2.032 9.178 4.694 9.178 11.98v4.343c0 8.128-4.343 13.382-16.954 13.382-12.61 0-16.954-5.254-16.954-13.382v-2.872h10.508zM210.381 32.812c0 7.497-4.414 11.98-15.554 11.98h-8.547V65.95h-10.509V13.196h19.056c11.14 0 15.554 4.553 15.554 11.98v7.636zm-24.101 5.185h7.146c4.764 0 6.446-2.172 6.446-6.165v-5.675c0-3.993-1.752-6.165-6.516-6.165h-7.076v18.005z" fill="#A0F"/>
</svg>
