<svg viewBox="0 0 315 120" fill="none" xmlns="http://www.w3.org/2000/svg">
    <g clip-path="url(#a)">
        <path d="M60 0A60.067 60.067 0 0 0 0 60a60.068 60.068 0 0 0 60 60 60.065 60.065 0 0 0 59.999-60 60.068 60.068 0 0 0-60-60zm5.508 2.487-5.4 12.564-.46.614-.206.008A50.725 50.725 0 0 0 45.5 18.005l-2.916 1.044L65.508 2.487zm26.306 9.27-10.66 8.568-.693.326-.184-.088a50.647 50.647 0 0 0-13.412-4.474l-3.066-.444 28.015-3.888zm18.894 20.52-13.4 2.577-.796-.039-.122-.166a50.64 50.64 0 0 0-9.749-10.236l-2.501-1.83 26.568 9.695zm7.073 26.983L104.71 55.24l-.659-.39-.03-.204a50.76 50.76 0 0 0-3.814-13.614l-1.353-2.789L117.78 59.26zM2.099 60a57.616 57.616 0 0 1 10.423-33.124 28.926 28.926 0 0 0 5.55 38.978 42.38 42.38 0 0 0 41.898 36.509 54.567 54.567 0 0 0 19.802-3.622l.372-.148-.187.355-5.917 11.134 6.837-5.656-.237.555a40.749 40.749 0 0 0-2.635 10.05A57.898 57.898 0 0 1 6.507 82.157 57.901 57.901 0 0 1 2.098 60zm79.51 53.716.053-.161c2.5-9.189 9.523-14.794 14.172-18.504 2.547-2.038 4.225-3.379 3.994-4.43-.112-.511-.687-.915-1.759-1.235l-.24-.072.18-.176c.905-.869 2.551-2.499 3.738-3.717a6.867 6.867 0 0 1 2.277-1.65 9.982 9.982 0 0 0 2.597-1.78 4.984 4.984 0 0 1 1.985-1c.289-.063.565-.178.813-.34a2.449 2.449 0 0 0 .9-1.665 1.708 1.708 0 0 0-.714-1.32 2.442 2.442 0 0 0-.89-.426l-.006-.002a1.112 1.112 0 0 1-.783-.538 11.016 11.016 0 0 0-4.202-2.408l-.318-.11.171.29a3.224 3.224 0 0 1-.139 3.46c-.57.728-1.163.351-1.736-.01-.353-.225-.65-.422-.916-.29-.244.106-.329.446-.372.69-.172.984-2.106 2.829-5.05 4.814a17.8 17.8 0 0 1-6.493 3.165.728.728 0 0 1-.582-.263c-.833-.977-.29-4.348.234-7.605.186-1.157.358-2.23.47-3.194a3.088 3.088 0 0 1 2.017-2.735c.211-.107.68-.317.858-.421a4.876 4.876 0 0 0-.752-.629c-.515-.393-.54-.452-.582-.537a.217.217 0 0 1 .01-.18 4.774 4.774 0 0 1 2.286-1.525 11.587 11.587 0 0 0-2.287-.245 8.255 8.255 0 0 0-4.673 1.431l-.019.072.079.058a2.263 2.263 0 0 1 .594 1.918 17.01 17.01 0 0 1-3.357 8.674 6.692 6.692 0 0 1-1.783.75c-1.57.486-3.193.989-4.592 5.218-1.425 4.314-13.014 4.314-16.822 4.314a31.42 31.42 0 0 1-29.061-19.58A28.931 28.931 0 0 0 59.999 60a28.93 28.93 0 0 1 28.925-11.849A31.274 31.274 0 0 0 60.03 28.745c-3.782 0-15.291 0-16.683 4.213-1.422 4.3-3.083 4.815-4.688 5.31a6.61 6.61 0 0 0-1.747.735 16.807 16.807 0 0 0-3.29 8.554 2.145 2.145 0 0 0 .534 1.796l.16.117-.054.193a8.172 8.172 0 0 1-4.805 1.517 8.77 8.77 0 0 1-2.578-.39 5.211 5.211 0 0 0 2.442-1.56c.223-.26-.632-.642-1.422-1.395a22.5 22.5 0 0 0 1.026-.47 2.965 2.965 0 0 0 1.935-2.621c.113-.973.287-2.054.47-3.2.5-3.1 1.057-6.562.269-7.486a.575.575 0 0 0-.47-.212 17.744 17.744 0 0 0-6.412 3.138c-2.868 1.935-4.825 3.786-4.987 4.719a1.01 1.01 0 0 1-.457.8c-.342.152-.687-.069-1.055-.3-.655-.415-1.083-.625-1.542-.046a3.065 3.065 0 0 0-.127 3.296l.372.633-.693-.238a11.106 11.106 0 0 1-4.274-2.463.97.97 0 0 0-.705-.481 2.056 2.056 0 0 1-.949-.457 1.845 1.845 0 0 1-.766-1.434 2.59 2.59 0 0 1 .95-1.776 2.51 2.51 0 0 1 .863-.369 4.832 4.832 0 0 0 1.932-.97 10.047 10.047 0 0 1 2.632-1.8 6.828 6.828 0 0 0 2.235-1.623 203.297 203.297 0 0 1 3.742-3.72c-1.127-.336-1.736-.777-1.86-1.345-.25-1.143 1.459-2.508 4.047-4.575C28.71 21.133 35.71 15.54 38.197 6.397l.008-.024-.072.012a58.068 58.068 0 0 1 4.145-1.512c-.043.02-.088.035-.13.055l-.003.023a41.044 41.044 0 0 1-2.651 10.125l6.941-5.744-6.264 11.789a54.726 54.726 0 0 1 19.858-3.633 42.528 42.528 0 0 1 42.065 36.788 28.927 28.927 0 0 1 5.381 38.85 58.071 58.071 0 0 1-25.867 20.59z" fill="#FFDC0A"/>
        <path d="M53.113 104.059a50.693 50.693 0 0 1-13.454-4.488l-.123-.06-.63.298-10.215 8.217 26.462-3.672-2.04-.295zM74.548 102.132a50.926 50.926 0 0 1-13.972 2.342l-.148.006-.418.557-5.174 12.047 21.656-15.646-1.944.694zM19.661 79.03a50.926 50.926 0 0 1-3.826-13.647l-.02-.141-.6-.355-12.531-3.852 17.878 19.853-.9-1.857zM33.27 95.705a50.726 50.726 0 0 1-9.779-10.266l-.082-.111-.725-.035L9.84 87.765l25.096 9.16-1.666-1.22z" fill="#FFDC0A"/>
        <path d="M150.035 97.195h7.053v1.71h-4.407v3.756h4.144v1.712h-4.144v4.391h4.585v1.71h-7.231V97.195zM158.702 97.195h2.662l1.852 4.127 1.833-4.127h2.681l-3.191 6.561 3.315 6.718h-2.752l-1.886-4.391-1.887 4.391h-2.751l3.315-6.718-3.191-6.56zM177.969 106.576v.794c0 2.044-.935 3.368-4.268 3.368-3.333 0-4.267-1.324-4.267-3.368v-7.073c0-2.046 1.093-3.367 4.267-3.367 3.175 0 4.268 1.321 4.268 3.367v.618h-2.645v-.546a1.535 1.535 0 0 0-.958-1.627 1.53 1.53 0 0 0-.665-.103 1.534 1.534 0 0 0-1.562 1.06 1.52 1.52 0 0 0-.06.67v6.929c0 1.005.37 1.73 1.622 1.73 1.252 0 1.623-.725 1.623-1.73v-.722h2.645zM186.058 110.474v-6.101h-3.245v6.101h-2.645V97.195h2.645v5.466h3.245v-5.466h2.645v13.279h-2.645zM193.894 106.383l-.635 4.091h-2.751l2.275-13.279h5.502l2.275 13.279h-2.751l-.635-4.091h-3.28zm3.033-1.712-.918-5.766h-.951l-.918 5.766h2.787zM208.206 110.473v-10.104a1.534 1.534 0 0 0-.4-1.25 1.54 1.54 0 0 0-1.222-.48 1.532 1.532 0 0 0-1.622 1.73v10.104h-2.646v-10.176c0-2.046 1.093-3.367 4.268-3.367 3.174 0 4.268 1.321 4.268 3.367v10.176h-2.646zM217.775 103.455h4.108v3.915c0 2.044-.935 3.368-4.268 3.368-3.333 0-4.267-1.324-4.267-3.368v-7.073c0-2.046 1.093-3.367 4.267-3.367 3.175 0 4.268 1.321 4.268 3.367v.635h-2.645v-.563a1.535 1.535 0 0 0-.958-1.627 1.53 1.53 0 0 0-.665-.103 1.527 1.527 0 0 0-1.562 1.06 1.52 1.52 0 0 0-.06.67v6.929c0 1.005.37 1.73 1.622 1.73 1.252 0 1.623-.725 1.623-1.73v-2.134h-1.463v-1.709zM224.254 97.195h7.053v1.71h-4.408v3.756h4.144v1.712h-4.144v4.391h4.585v1.71h-7.23V97.195zM240.625 97.074v4.602a2.46 2.46 0 0 1 2.045-.74 2.703 2.703 0 0 1 2.127.705 2.716 2.716 0 0 1 .872 2.064v4.267a2.715 2.715 0 0 1-.864 2.059 2.716 2.716 0 0 1-2.117.71 2.48 2.48 0 0 1-2.275-1.077l-.176.812h-2.116V97.074h2.504zm0 6.684v4.16a1.157 1.157 0 0 0 .351.91 1.155 1.155 0 0 0 .919.326 1.17 1.17 0 0 0 .919-.326 1.16 1.16 0 0 0 .35-.91v-4.16a1.173 1.173 0 0 0-.35-.91 1.168 1.168 0 0 0-.919-.326 1.17 1.17 0 0 0-.919.326 1.162 1.162 0 0 0-.351.91zM255.079 101.199v10.986c0 1.693-1.357 2.681-3.826 2.681-2.469 0-3.686-.988-3.686-2.681v-.194h2.504v.194a1.1 1.1 0 0 0 1.252 1.094c.829 0 1.252-.406 1.252-1.094v-2.204a2.33 2.33 0 0 1-2.063.759 2.715 2.715 0 0 1-2.77-1.647 2.718 2.718 0 0 1-.21-1.122v-6.772h2.504v6.718a1.141 1.141 0 0 0 1.27 1.236 1.13 1.13 0 0 0 .929-.316 1.129 1.129 0 0 0 .34-.92v-6.718h2.504zM270.727 107.281c0 2.046-1.199 3.193-4.091 3.193h-4.62V97.195h4.62c2.892 0 4.091 1.234 4.091 3.368v6.718zm-6.066 1.483h1.622c1.27 0 1.799-.53 1.799-1.73v-6.401c0-1.18-.371-1.728-1.623-1.728h-1.798v9.859zM280.049 110.474l-1.587-4.391c-.335-.9-.565-1.129-1.411-1.129h-1.128v5.52h-2.646V97.195h4.62c2.346 0 3.739 1.164 3.739 3.191v1.375a2.37 2.37 0 0 1-2.028 2.576c.758.229 1.076.563 1.464 1.569l1.71 4.568h-2.733zm-4.126-7.23h1.446a1.422 1.422 0 0 0 1.188-.382 1.43 1.43 0 0 0 .434-1.17v-1.235c0-.845-.37-1.552-1.622-1.552h-1.446v4.339zM286.972 106.383l-.635 4.091h-2.751l2.275-13.279h5.502l2.275 13.279h-2.751l-.635-4.091h-3.28zm3.033-1.712-.917-5.766h-.952l-.917 5.766h2.786zM303.891 106.576v.794c0 2.044-.935 3.368-4.268 3.368-3.333 0-4.268-1.324-4.268-3.368v-7.073c0-2.046 1.094-3.367 4.268-3.367 3.175 0 4.268 1.321 4.268 3.367v.618h-2.646v-.546a1.534 1.534 0 0 0-.4-1.25 1.54 1.54 0 0 0-1.222-.48 1.534 1.534 0 0 0-1.563 1.06 1.534 1.534 0 0 0-.059.67v6.929c0 1.005.37 1.73 1.622 1.73 1.252 0 1.622-.725 1.622-1.73v-.722h2.646zM314.535 107.37c0 2.044-1.093 3.368-4.267 3.368-3.174 0-4.268-1.324-4.268-3.368v-7.073c0-2.046 1.094-3.367 4.268-3.367 3.174 0 4.267 1.321 4.267 3.367v7.073zm-2.645-7.001a1.52 1.52 0 0 0-.401-1.25 1.523 1.523 0 0 0-1.221-.48 1.53 1.53 0 0 0-1.623 1.73v6.929a1.536 1.536 0 0 0 .958 1.628c.211.083.438.118.665.102a1.521 1.521 0 0 0 1.221-.48 1.536 1.536 0 0 0 .401-1.25v-6.929zM150.035 10.012h40.854v9.905h-25.531v21.755h24.001v9.913h-24.001v25.431h26.554v9.905h-41.877V10.01zM200.313 10.012h15.422l10.724 23.9 10.62-23.9h15.527l-18.487 37.997 19.202 38.912h-15.934L226.459 61.49l-10.927 25.43h-15.934L218.8 48.01l-18.487-37.997zM314.537 68.434c0 11.85-6.944 18.487-23.693 18.487h-26.762V10.01h26.762c16.749 0 23.693 7.153 23.693 19.51v38.913zm-35.132 8.582h9.393c7.356 0 10.42-3.069 10.42-10.013V29.93c0-6.844-2.145-10.012-9.397-10.012h-10.416v57.1z" fill="#fff"/>
    </g>
    <defs>
        <clipPath id="a">
            <path fill="#fff" d="M0 0h314.534v120H0z"/>
        </clipPath>
    </defs>
</svg>
