<svg viewBox="0 0 424 136" fill="none" xmlns="http://www.w3.org/2000/svg">
<path d="M144.182 50.2994V54.4381C144.182 65.1035 139.308 72 121.929 72C104.55 72 99.6758 65.1035 99.6758 54.4381V17.5639C99.6758 6.89632 105.376 0 121.929 0C138.479 0 144.182 6.89632 144.182 17.5639V20.7826H130.389V17.9315C130.389 13.5166 128.457 8.91906 121.929 8.91906C115.4 8.91906 113.469 13.5166 113.469 17.9315V54.0685C113.469 59.3098 115.4 63.0811 121.929 63.0811C128.457 63.0811 130.389 59.3098 130.389 54.0685V50.2994H144.182Z" fill="white"/>
<path d="M186.385 70.6213V38.8056H169.465V70.6213H155.672V1.37891H169.465V29.8845H186.385V1.37891H200.178V70.6213H186.385Z" fill="white"/>
<path d="M227.286 49.2884L223.976 70.6213H209.631L221.492 1.37891H250.183L262.044 70.6213H247.699L244.389 49.2884H227.286ZM243.101 40.3672L238.321 10.298H233.354L228.574 40.3672H243.101Z" fill="white"/>
<path d="M301.951 70.6213V17.9315C301.951 13.5166 300.02 8.91906 293.491 8.91906C286.962 8.91906 285.031 13.5166 285.031 17.9315V70.6213H271.238V17.564C271.238 6.89646 276.941 0 293.491 0C310.044 0 315.744 6.89646 315.744 17.564V70.6213H301.951Z" fill="white"/>
<path d="M351.874 34.023H373.301V54.4381C373.301 65.1035 368.427 72 351.048 72C333.669 72 328.795 65.1035 328.795 54.4381V17.5639C328.795 6.89632 334.495 0 351.048 0C367.598 0 373.301 6.89632 373.301 17.5639V20.874H359.508V17.9315C359.508 13.5166 357.577 8.91892 351.048 8.91892C344.519 8.91892 342.588 13.5166 342.588 17.9315V54.0685C342.588 59.3098 344.519 63.0811 351.048 63.0811C357.577 63.0811 359.508 59.3098 359.508 54.0685V42.9421H351.874L351.874 34.023Z" fill="white"/>
<path d="M385.721 1.37891H422.504V10.298H399.513V29.8845H421.123V38.8056H399.513V61.7023H423.421V70.6213H385.721V1.37891Z" fill="white"/>
<path d="M9.01213 8.91625H37.2413V1.5625H0V23.8072H9.01213V8.91625Z" fill="#AA00FF"/>
<path d="M82.2055 1.5625L68.1357 26.9611L54.0659 1.5625H44.4092L63.1698 35.6774L47.9989 63.2619H9.01213V37.9757H34.3924V30.7114H9.01213H0V70.6203H43.9505H54.2494L68.2206 44.9647V44.967L91.8576 1.5625H82.2055Z" fill="#AA00FF"/>
<path d="M76.7574 42.3281L71.7754 51.4756L82.0192 70.6215H92.3182L76.7574 42.3281Z" fill="#AA00FF"/>
<path d="M0 104.32V128.576H2.4L2.848 126.88C4.096 128.256 5.472 128.992 8 128.992C11.136 128.992 13.856 127.04 13.856 123.104V117.216C13.856 113.28 11.2 111.328 8 111.328C5.536 111.328 4.096 112.256 3.072 113.376V104.32H0ZM6.944 113.824C9.6 113.824 10.784 115.296 10.784 117.856V122.464C10.784 125.28 9.376 126.496 6.944 126.496C4.608 126.496 3.072 124.928 3.072 122.336V118.272C3.072 115.328 4.512 113.824 6.944 113.824Z" fill="white"/>
<path d="M22.9788 125.376L22.1788 122.816L18.3708 111.808H15.2348L21.5388 128.8L19.0428 136H21.8268L30.7548 111.808H27.6187L23.9708 122.816L23.1708 125.376H22.9788Z" fill="white"/>
<path d="M57.8742 110.592C57.8742 106.72 55.6983 104.48 50.4503 104.48H42.0662V128.576H50.4503C55.6983 128.576 57.8742 126.496 57.8742 122.784V110.592ZM46.8663 107.584H50.1303C52.4023 107.584 53.0742 108.576 53.0742 110.72V122.336C53.0742 124.512 52.1143 125.472 49.8103 125.472H46.8663V107.584Z" fill="white"/>
<path d="M79.7517 128.576L76.6478 120.288C75.9437 118.464 75.3678 117.856 73.9918 117.44C76.0397 117.024 77.6717 115.68 77.6717 112.768V110.272C77.6717 106.592 75.1438 104.48 70.8877 104.48H62.5037V128.576H67.3037V118.56H69.3517C70.8877 118.56 71.3037 118.976 71.9118 120.608L74.7917 128.576H79.7517ZM67.3037 107.584H69.9277C72.1997 107.584 72.8717 108.864 72.8717 110.4V112.64C72.8717 114.08 72.1997 115.456 69.9277 115.456H67.3037V107.584Z" fill="white"/>
<path d="M87.8105 118.048L89.4745 107.584H91.2025L92.8665 118.048H87.8105ZM93.3145 121.152L94.4665 128.576H99.4585L95.3305 104.48H85.3465L81.2185 128.576H86.2105L87.3625 121.152H93.3145Z" fill="white"/>
<path d="M113.282 121.504V122.816C113.282 124.64 112.61 125.952 110.338 125.952C108.066 125.952 107.394 124.64 107.394 122.816V110.24C107.394 108.704 108.066 107.104 110.338 107.104C112.61 107.104 113.282 108.704 113.282 110.24V111.232H118.082V110.112C118.082 106.4 116.098 104 110.338 104C104.578 104 102.594 106.4 102.594 110.112V122.944C102.594 126.656 104.29 129.056 110.338 129.056C116.386 129.056 118.082 126.656 118.082 122.944V121.504H113.282Z" fill="white"/>
<path d="M137.394 110.112C137.394 106.4 135.41 104 129.65 104C123.89 104 121.906 106.4 121.906 110.112V122.944C121.906 126.656 123.89 129.056 129.65 129.056C135.41 129.056 137.394 126.656 137.394 122.944V110.112ZM132.594 122.816C132.594 124.352 131.922 125.952 129.65 125.952C127.378 125.952 126.706 124.352 126.706 122.816V110.24C126.706 108.704 127.378 107.104 129.65 107.104C131.922 107.104 132.594 108.704 132.594 110.24V122.816Z" fill="white"/>
</svg>
