<svg viewBox="0 0 24 25" fill="none" xmlns="http://www.w3.org/2000/svg">
    <path fill-rule="evenodd" clip-rule="evenodd" d="M24 10c0 2.973-1.557 5.643-4.028 7.475L20 17.5l-10 7.3 1.708-4.803C5.215 19.867 0 15.441 0 10 0 4.477 5.373 0 12 0s12 4.477 12 10zm-13.21.33c-.177.452-.266 1.07-.266 1.855h2.307c.01-.408.067-.744.169-1.008.102-.268.285-.53.548-.782l.928-.863c.392-.381.677-.755.855-1.12.177-.366.266-.772.266-1.218 0-1.022-.33-1.81-.992-2.363C13.949 4.277 13.02 4 11.823 4c-1.205 0-2.14.301-2.807.903C8.35 5.5 8.011 6.336 8 7.411h2.726c.01-.403.115-.723.314-.96a.973.973 0 0 1 .783-.354c.698 0 1.048.406 1.048 1.218a1.5 1.5 0 0 1-.315.919c-.204.274-.505.578-.903.911a2.902 2.902 0 0 0-.863 1.186zm-.169 3.331a1.244 1.244 0 0 0-.428.976c0 .398.143.726.428.984.29.253.65.379 1.08.379.43 0 .788-.126 1.073-.379.29-.258.436-.586.436-.984s-.146-.723-.436-.976c-.285-.258-.642-.387-1.072-.387-.43 0-.79.13-1.081.387z" fill="#fff"/>
</svg>
