<svg viewBox="0 0 23 18" fill="none" xmlns="http://www.w3.org/2000/svg">
    <g clip-path="url(#zp4ligaama)">
        <path d="M22.576 2.132a9.371 9.371 0 0 1-2.65.715A4.571 4.571 0 0 0 21.954.332a9.298 9.298 0 0 1-2.931 1.102A4.637 4.637 0 0 0 16.664.11a4.687 4.687 0 0 0-2.706.209c-.861.335-1.6.917-2.12 1.67a4.496 4.496 0 0 0-.68 3.59 13.269 13.269 0 0 1-5.27-1.377A13.07 13.07 0 0 1 1.641.832c-.59 1-.77 2.184-.505 3.311a4.55 4.55 0 0 0 1.935 2.755A4.663 4.663 0 0 1 .98 6.33l-.001.056c0 1.05.369 2.067 1.044 2.88a4.633 4.633 0 0 0 2.66 1.577 4.728 4.728 0 0 1-2.086.078A4.55 4.55 0 0 0 4.24 13.18c.774.566 1.707.88 2.67.897a9.426 9.426 0 0 1-6.834 1.882A13.208 13.208 0 0 0 7.152 18c8.492 0 13.135-6.924 13.135-12.929 0-.196-.005-.393-.014-.588a9.303 9.303 0 0 0 2.303-2.351" fill="#fff"/>
    </g>
    <defs>
        <clipPath id="zp4ligaama">
            <path fill="#fff" transform="translate(.077)" d="M0 0h22.5v18H0z"/>
        </clipPath>
    </defs>
</svg>
