<svg width="50" height="20" viewBox="0 0 50 20" fill="none" xmlns="http://www.w3.org/2000/svg">
    <path d="M2.942 10a7.078 7.078 0 0 0 7.072 7.07A7.08 7.08 0 0 0 17.086 10a7.078 7.078 0 0 0-9.259-6.724A4.986 4.986 0 0 1 7.5 4.523l.847-.7-.763 1.435c.775-.299 1.6-.45 2.431-.446A5.196 5.196 0 0 1 15.204 10a5.193 5.193 0 0 1-7.907 4.423 5.172 5.172 0 0 1-2.07-2.42.785.785 0 0 0-.14-.201.706.706 0 0 1-.215-.445c-.072-1.346.453-2.883.458-2.898l.066-.19-.006.201c0 .017-.043 1.726.536 2.63.062.133.07.285.023.424a.567.567 0 0 0 .004.362c.71 1.367 2.001 2.004 4.061 2.004a3.749 3.749 0 0 0 2.699-1.155A3.9 3.9 0 0 0 13.833 10a3.822 3.822 0 0 0-3.819-3.818c-.462 0-1.87 0-2.04.516-.173.524-.376.587-.571.647a.815.815 0 0 0-.214.09c-.111.072-.394.674-.404 1.047a.26.26 0 0 0 .067.222l.018.013-.007.023c-.016.05-.333.188-.592.182a.74.74 0 0 0-.02 0c-.066.002-.155.005-.171-.05-.014-.048.04-.104.187-.194a.466.466 0 0 0-.03-.027c-.035-.03-.078-.068-.08-.115a.086.086 0 0 1 .028-.065.261.261 0 0 1 .077-.048.3.3 0 0 0 .191-.284c.05-.43.035-.936-.112-1.1a.14.14 0 0 0-.108-.053c-.274 0-1.1.527-1.145.78a.121.121 0 0 1-.054.097c-.04.018-.082-.01-.127-.037-.08-.052-.134-.077-.191-.005a.38.38 0 0 0-.016.405l.043.072-.08-.027c-.016-.006-.404-.14-.52-.3a.121.121 0 0 0-.087-.06.249.249 0 0 1-.115-.055.222.222 0 0 1-.093-.173.32.32 0 0 1 .115-.215.301.301 0 0 1 .104-.045.593.593 0 0 0 .237-.119c.095-.09.204-.164.322-.22a.84.84 0 0 0 .273-.198c.155-.159.36-.36.46-.457-.142-.042-.214-.093-.23-.164-.03-.138.179-.304.494-.556.57-.455 1.425-1.138 1.728-2.259A7.036 7.036 0 0 0 2.942 10zm5.44-2.29h1.587a2.293 2.293 0 0 1 2.29 2.29 2.292 2.292 0 0 1-2.29 2.29H8.382V7.71zm1.62-3.263-.047.062h-.014c-.261.012-1.056.049-1.728.29l-.203.072 2.625-1.896-.633 1.472zm2.707.768-.012-.007a6.272 6.272 0 0 0-1.641-.613l-.213-.038 3.222-.33-1.278.954-.078.034zm2.032 1.988-.008-.012c-.14-.22-.57-.89-1.114-1.351l-.165-.14 2.955 1.325-1.587.189-.08-.01zm.403.793 1.896 2.625-1.465-.63-.069-.05v-.014a6.274 6.274 0 0 0-.29-1.728l-.072-.203zm-.337 4.686c.12-.232.486-.939.613-1.64l.039-.213.33 3.22-.959-1.283-.03-.072.007-.012zm-1.996 2.044.012-.008c.22-.14.89-.57 1.352-1.114l.14-.164-1.325 2.954-.188-1.584.01-.084zm-2.788.833.05-.068h.015c.26-.012 1.055-.049 1.727-.29l.204-.072-2.625 1.896.629-1.466zm-2.704-.774.013.007c.516.28 1.068.486 1.64.613l.213.039-3.221.33 1.277-.955.078-.034zm-2.116-1.998.084.01.008.012c.306.5.682.955 1.114 1.351l.165.14-2.955-1.325 1.584-.188z" fill="#fff"/>
    <path d="M10.011 2.342c1.002-.001 1.994.195 2.92.577L10.011 0l-2.92 2.92a7.635 7.635 0 0 1 2.92-.578zM17.093 12.92l2.92-2.92-2.92-2.919a7.63 7.63 0 0 1 .577 2.92 7.632 7.632 0 0 1-.578 2.92zM10.012 17.658a7.635 7.635 0 0 1-2.92-.577L10.013 20l2.92-2.92a7.635 7.635 0 0 1-2.92.578zM2.355 10a7.63 7.63 0 0 1 .578-2.918L.013 10l2.92 2.92A7.632 7.632 0 0 1 2.355 10zM31.19 12.698c0 1.815-1.062 2.831-3.623 2.831h-4.09V3.75h4.09c2.56 0 3.623 1.096 3.623 2.989v5.96zm-5.372 1.314h1.437c1.124 0 1.592-.47 1.592-1.533V6.8c0-1.048-.328-1.533-1.436-1.533h-1.593v8.745zM35.048 12.37v.578c0 .751.328 1.533 1.437 1.533 1.108 0 1.436-.782 1.436-1.533v-.469c0-.939-.343-1.361-1.327-1.736l-1.827-.72c-1.171-.438-1.983-1.314-1.983-2.628v-.657c0-1.815.984-2.988 3.622-2.988 2.561 0 3.545 1.173 3.545 2.988v.547h-2.342V6.8c0-.891-.281-1.533-1.203-1.533-.983 0-1.28.642-1.28 1.533v.36c0 .704.437 1.095 1.171 1.408l1.92.798c1.125.454 2.046 1.048 2.046 2.675v.97c0 1.815-.968 2.988-3.778 2.988-2.811 0-3.78-1.173-3.78-2.988v-.642h2.343zM49.724 8.13c0 1.674-.984 2.675-3.467 2.675h-1.905v4.724H42.01V3.75h4.247c2.483 0 3.467 1.017 3.467 2.676V8.13zm-5.372 1.158h1.593c1.062 0 1.437-.485 1.437-1.377V6.644c0-.892-.39-1.377-1.453-1.377h-1.577v4.02z" fill="#fff"/>
</svg>
