<svg width="48" height="20" viewBox="0 0 48 20" fill="none" xmlns="http://www.w3.org/2000/svg">
    <path d="M11.13 5.942c.026-.133.146-.173.224-.254v-.156c-.057-.008-.16.023-.213-.005-.046-.024-.072-.081-.119-.103a1.426 1.426 0 0 1-.399-.11h-.186l-.006.068c-.028-.019-.033-.028-.062-.01-.024.086-.177.132-.238.222-.072.137-.13.281-.171.43l-.104.192c-.033.079-.031.157-.062.244.102.063.211.112.326.145l.254-.037c.1-.005.208.059.264.032.083-.206.254-.318.374-.487-.017-.02-.014-.013 0-.037l-.037-.01.01-.02c-.011-.002-.007.002-.02-.006l.005-.01c.054-.03.107-.06.16-.088z" fill="#fff"/>
    <path d="m8.96 15.978.01-.005.036-.208.042-.435a70.62 70.62 0 0 1-.187-.057l-.015.021c.017.165.048.328.093.487l-.015.078.036.119z" fill="#DC0000"/>
    <path d="M13.988 3.74 9.036.88 1.138 5.44v9.12l7.898 4.56 7.897-4.56V5.44l-2.729-1.575c-1.236.483-2.559.994-2.559.996.091.017.18.046.263.086l.17.02a.571.571 0 0 1 .384.301l-.015.187a.333.333 0 0 1-.052.29l-.026.088a1.165 1.165 0 0 1-.69.389l-.02.124c-.27.034-.503.398-.694.534l-.244.114-.077.072c-.038.019-.037-.023-.068.01a.57.57 0 0 1-.27.083c.053.07.105.138.156.208.012.037-.013.135.005.181l.135.135c.038.05.047.132.083.181.054.055.111.107.171.155.078.08.072.242.135.322l.072.057c.223.283.419.587.586.906l.181.384c.014.027.075.107.062.145-.024.074-.134.157-.181.238l.389.736.409.819.466.616.285.28.43.445c.352.279.71.549 1.078.809.214.151.426.23.466.56a1.14 1.14 0 0 1-.958.212 2.874 2.874 0 0 0-.544 0c-.057.005-.177-.02-.213.01l-.305.41-.161.04c-.352.068-.71.092-1.067.073-.231.407-.754.608-1.26.762l-.404.124a27.46 27.46 0 0 0-.051-.108c-.109-.039-.513.091-.58.036l-.063-.264h-.005l-.073.238-.077.42-.11.347c-.022.076.025.159 0 .248l-.046.11c-.003.008-.012.054-.02.036l.02.259c.016.108.038.215.068.321.107.167.185.351.233.544a5.135 5.135 0 0 1-.834-.041l.01-.322c-.11.054-.506.244-.642.11 0-.351.205-.582.269-.877a3.327 3.327 0 0 0-.13-1.523c-.231.064-.47.1-.71.109l-.067-.12H7.51c-.047.042-.163.125-.238.11l-.187-.44c-.114-.353-.268-.75-.373-1.13l-.186-1.073v.01l-.316.472-.265.389-.274.544-.156.29-.27.715h-.01c-.038-.023-.047-.054-.077-.083l-.171.109a4.033 4.033 0 0 1-.047-.016c-.023-.068-.125-.234-.103-.332.03-.092.072-.181.124-.264l.264-.544c.263-.605.565-1.194.902-1.761l.388-.575.099-.659c.095-.392.16-.795.28-1.165l.098-.342c.008-.023.04-.12.041-.114.015-.046.008-.113.026-.16.164-.443.387-.862.663-1.244.041-.056.245-.328.213-.358l-.031-.072.197-.363c.014-.04-.003-.13.03-.166a.468.468 0 0 0 .1-.176c.022-.1-.093-.294-.115-.363a1.526 1.526 0 0 0-.119-.373 56.52 56.52 0 0 0-.13-.03c-.109.054-.19.193-.388.14-.01-.05-.05-.107-.036-.146a.427.427 0 0 0 .155-.104c-.039-.014-.05-.046-.072-.077-.136-.198-.026-.36.015-.56A1.183 1.183 0 0 0 7.5 5.33c-.08.015-.136-.063-.176-.119.035-.048.113-.102.13-.16-.147-.069.076-.301.082-.342.009-.081-.205-.26-.223-.389a1.345 1.345 0 0 0 1.114-.29l.01.005.021.026-.046.243a.427.427 0 0 0 .18-.16 1.25 1.25 0 0 0-.17-.4c.07-.079.125-.169.249-.186v-.005a.605.605 0 0 0-.14-.243.144.144 0 0 0-.052.041c-.01-.058-.11-.097-.14-.145-.055-.085-.015-.21-.02-.3l-.016.01.01-.057h-.005c-.01.016.003.012-.016.01v-.207l-.01.16v-.165l-.015.041a.851.851 0 0 1 .093-.357l-.047.062c.023-.126.132-.206.187-.3l-.047.025v-.005a.672.672 0 0 1 .3-.212c.003.013-.004.003.006.015.035-.024.038-.014.083-.036l-.073-.01a.63.63 0 0 1 .202 0l-.015-.021a3.975 3.975 0 0 1-.042-.01c.053 0 .08.017.109.01 0 .016-.005.007.005.02.032-.026.06.019.083.011.01-.012.027-.032.052-.026h.02c-.016.025-.002.023-.036.036v.005a.264.264 0 0 1 .15 0c-.012.014-.006.003-.01.016.097.059.188.125.275.197l-.036-.02c.117.163.202.347.248.543.02.082-.03.18-.036.26h-.005l-.005-.1c-.016.083.024.173.005.28a.482.482 0 0 1-.114.213c-.01-.019-.02-.014-.042-.02v.01l-.072.197.176.083c-.002.017.032.063.026.077a2.214 2.214 0 0 0-.036.373c-.018.104.11.194.186.228a.275.275 0 0 1-.005-.264l.186.124a.947.947 0 0 0 .83.031.65.65 0 0 1-.037.161l-.114.031-.046.099c.149.056.294.122.435.197.03.016.12.066.135.057.062-.03.123-.092.202-.078.008.05.047.048.03.1.04-.012 1.447-.55 2.516-.96zm-5.526-.233.01-.114.011.005v.03c.014-.023.003-.017.026-.01-.008-.025-.01-.026-.031-.025l.01-.026a.175.175 0 0 1 .047.145.06.06 0 0 1-.073 0v-.005zm1.197-.032h-.041c-.014-.009-.014-.01-.02-.025l.015.01-.01-.01.01-.063.01-.02.02.015-.015-.041a.172.172 0 0 1 .031.134z" fill="#fff"/>
    <path d="M15.112 3.508c-.247.098-.516.204-.792.311l2.71 1.565v9.232l-.024.014-7.97 4.601-.025-.013-7.97-4.602V5.384l.024-.014L9.035.77l.025.014 5.044 2.912.8-.307L9.036 0 .376 5v10l8.66 5 8.66-5V5l-2.584-1.492zM27.556 15.918V6.92c0-.754-.33-1.539-1.445-1.539-1.114 0-1.444.785-1.444 1.539v8.998H22.31v-9.06c0-1.822.974-3 3.8-3 2.827 0 3.8 1.178 3.8 3v9.06h-2.355zM38.267 10.484h-3.69v5.434H32.22V4.094h6.281v1.523h-3.925V8.96h3.69v1.523zM39.556 4.094h7.6v1.523h-2.623v10.3h-2.355v-10.3h-2.622V4.094z" fill="#fff"/>
</svg>
