<svg viewBox="0 0 78 22" fill="none" xmlns="http://www.w3.org/2000/svg">
  <g clip-path="url(#myzsrdyf6a)">
    <path d="M12.174 6.536c.028-.145.16-.19.245-.28v-.17c-.062-.01-.175.025-.234-.006-.05-.026-.079-.09-.13-.114a1.567 1.567 0 0 1-.44-.12h-.205l-.006.075c-.03-.021-.037-.032-.068-.012-.027.095-.194.145-.262.245-.08.15-.143.31-.188.473l-.114.211c-.037.086-.034.173-.069.268.112.07.233.123.36.16l.279-.04c.11-.006.229.064.29.034.09-.227.28-.35.41-.536-.018-.022-.015-.013 0-.04l-.04-.011.012-.023c-.013-.001-.008.003-.023-.006l.006-.011.177-.097z" fill="url(#hb7e2gu2bb)"/>
    <path d="m16.553 3.86-.872.342-.125.049c-1.36.532-2.816 1.094-2.816 1.097.1.018.197.05.289.094l.188.022a.628.628 0 0 1 .421.331L13.622 6a.367.367 0 0 1-.057.32l-.028.096a1.281 1.281 0 0 1-.758.428l-.023.137c-.298.037-.554.438-.764.587l-.268.125-.085.08c-.042.02-.04-.025-.074.011a.626.626 0 0 1-.296.091l.17.228c.013.042-.014.15.006.2l.148.148c.042.056.052.145.092.2.059.06.122.117.188.17.085.088.08.266.148.354l.08.063c.244.312.46.645.644.997l.2.422c.014.03.081.117.067.16-.026.08-.147.172-.199.261l.428.81.45.9.513.678.313.308.473.49c.387.306.78.604 1.186.89.235.166.468.253.513.615a1.257 1.257 0 0 1-1.055.234 3.148 3.148 0 0 0-.598 0c-.063.005-.195-.023-.234.011l-.336.45-.177.046c-.387.073-.78.1-1.174.08-.254.446-.829.668-1.385.837l-.444.137-.057-.12c-.12-.042-.564.101-.639.04l-.068-.29h-.006l-.08.262-.085.462-.12.381c-.025.084.027.175 0 .274l-.051.12c-.004.01-.013.06-.023.04l.023.284c.017.12.042.238.074.354.118.184.204.386.256.598a5.652 5.652 0 0 1-.917-.045l.011-.354c-.12.06-.557.268-.706.12 0-.385.226-.64.296-.963a3.66 3.66 0 0 0-.143-1.676c-.254.07-.516.11-.78.12l-.074-.131H8.19c-.051.045-.18.137-.262.12a599.62 599.62 0 0 1-.205-.485c-.126-.387-.295-.824-.41-1.242-.07-.393-.138-.787-.206-1.18v.011l-.348.519-.29.427-.302.599-.171.319-.297.786h-.011c-.043-.025-.053-.058-.086-.09l-.188.119a9.329 9.329 0 0 1-.051-.017c-.025-.075-.138-.258-.114-.365.033-.102.08-.2.137-.29l.29-.599c.29-.666.621-1.313.992-1.938l.428-.632.108-.724c.105-.431.175-.875.308-1.283l.108-.376c.009-.024.045-.13.046-.125.016-.05.008-.124.028-.177.18-.486.426-.947.73-1.368.044-.06.269-.36.233-.393l-.034-.08.217-.399c.015-.044-.003-.143.034-.182a.514.514 0 0 0 .108-.194c.025-.11-.101-.323-.125-.399a1.679 1.679 0 0 0-.131-.41 82.167 82.167 0 0 0-.143-.034c-.12.06-.21.212-.427.154-.012-.054-.056-.117-.04-.16a.47.47 0 0 0 .17-.114c-.042-.016-.055-.05-.079-.085-.15-.218-.028-.396.017-.616a1.296 1.296 0 0 0-.046-.273c-.086.015-.149-.07-.193-.132.038-.052.124-.112.142-.176-.16-.075.084-.331.091-.376.01-.09-.225-.285-.245-.428a1.48 1.48 0 0 0 1.226-.32l.011.007.023.028-.051.268a.47.47 0 0 0 .2-.177 1.376 1.376 0 0 0-.189-.439c.077-.087.137-.186.274-.205V3.91a.665.665 0 0 0-.154-.268.158.158 0 0 0-.057.045c-.012-.064-.12-.107-.154-.16-.06-.093-.016-.23-.023-.33l-.017.012.011-.063h-.005c-.011.017.003.013-.018.011v-.228l-.01.177v-.182l-.018.045a.937.937 0 0 1 .103-.393l-.052.068c.026-.138.145-.226.205-.33l-.05.028v-.005a.739.739 0 0 1 .33-.234c.002.015-.006.003.005.017.039-.027.043-.015.092-.04l-.08-.011a.693.693 0 0 1 .222 0l-.017-.023a3.888 3.888 0 0 1-.046-.011c.059 0 .088.019.12.01 0 .018-.005.009.006.024.035-.03.065.02.091.011.011-.013.03-.035.057-.028h.023c-.018.027-.003.025-.04.04v.005a.29.29 0 0 1 .165 0c-.014.015-.007.003-.011.017.106.065.207.137.302.217l-.04-.023c.13.18.222.383.274.598.021.09-.033.198-.04.285h-.006l-.006-.108c-.017.09.027.19.006.308a.53.53 0 0 1-.126.234c-.011-.021-.022-.016-.045-.023v.011l-.08.217.194.09c-.002.02.035.071.028.087a2.435 2.435 0 0 0-.04.41c-.019.114.122.213.206.25a.301.301 0 0 1-.006-.29l.205.137a1.042 1.042 0 0 0 .912.034.714.714 0 0 1-.04.177 23.34 23.34 0 0 0-.125.034l-.052.108c.164.062.324.135.48.217.032.017.13.073.147.062.07-.032.136-.1.223-.085.009.055.052.053.034.111.044-.014 1.591-.607 2.767-1.058l.127-.048.88-.338L9.87 0 .343 5.5v11L9.869 22l9.526-5.5v-11l-2.842-1.64zM9.24 3.856l.011-.125.011.006v.034c.016-.026.004-.02.029-.012-.01-.027-.011-.03-.034-.028l.011-.028a.193.193 0 0 1 .051.159.065.065 0 0 1-.08 0v-.006zm1.316-.034h-.046c-.015-.01-.014-.01-.022-.028l.017.011-.012-.011.012-.069.011-.022.023.017-.017-.046a.19.19 0 0 1 .034.148z" fill="url(#5jdpn1hthc)"/>
    <path d="m9.786 17.576.011-.006.04-.228.046-.479c-.069-.02-.137-.042-.206-.063l-.017.023c.019.181.053.36.103.536l-.017.085.04.132z" fill="url(#1lj0rbkeed)"/>
    <path d="m18.405 2.903-.148.051c-.15.09-.311.16-.479.211-.135.06-1.088.421-1.147.443 0 0-4.01 1.539-4.081 1.561.018-.058-.025-.055-.034-.11-.086-.016-.154.053-.222.085-.017.01-.115-.045-.149-.063a4.272 4.272 0 0 0-.478-.217l.05-.108.126-.034a.71.71 0 0 0 .04-.177 1.043 1.043 0 0 1-.912-.034l-.205-.137a.302.302 0 0 0 .006.29c-.084-.037-.225-.136-.206-.25.002-.138.015-.275.04-.41.007-.015-.03-.067-.028-.086l-.194-.091.08-.217V3.6c.023.007.034.002.045.023a.53.53 0 0 0 .126-.234c.021-.118-.023-.217-.006-.308l.006.109h.006c.007-.087.061-.196.04-.285a1.695 1.695 0 0 0-.274-.599l.04.023a2.429 2.429 0 0 0-.302-.217c.004-.014-.003-.002.011-.017a.289.289 0 0 0-.165 0v-.006c.037-.014.022-.012.04-.04h-.023c-.028-.006-.046.016-.057.03-.026.008-.056-.042-.091-.012-.011-.015-.006-.006-.006-.023-.032.008-.061-.011-.12-.012l.046.012.017.023a.694.694 0 0 0-.222 0l.08.011c-.05.025-.053.014-.092.04-.011-.014-.003-.002-.005-.017a.738.738 0 0 0-.331.234v.005l.051-.028c-.06.104-.18.192-.205.33l.051-.068a.936.936 0 0 0-.102.393l.017-.045v.182l.011-.177v.228c.02.002.007.007.017-.011h.006l-.011.063.017-.012c.007.1-.038.237.023.33.034.054.142.096.154.16a.159.159 0 0 1 .057-.045.666.666 0 0 1 .153.268v.006c-.136.018-.196.117-.273.205.088.134.151.282.188.439a.471.471 0 0 1-.2.176l.052-.268-.023-.028-.011-.006a1.48 1.48 0 0 1-1.226.32c.02.142.255.338.245.427-.007.045-.251.3-.091.376-.018.064-.104.124-.143.177.045.062.107.147.194.13.025.09.04.182.046.274-.045.22-.167.399-.017.616.024.035.036.07.08.086a.47.47 0 0 1-.171.114c-.016.042.028.105.04.16.216.058.307-.095.427-.155l.142.034c.062.131.106.269.132.41.024.076.15.289.125.4a.513.513 0 0 1-.108.194c-.037.039-.019.138-.035.182l-.216.399.034.08c.035.033-.189.332-.234.393-.303.421-.549.881-.73 1.368-.02.053-.011.127-.028.177 0-.006-.037.1-.045.125l-.109.376c-.132.408-.202.852-.307 1.283l-.109.724-.427.632c-.371.625-.702 1.272-.992 1.938l-.29.599c-.058.09-.104.189-.138.29-.024.108.09.29.114.365l.052.017.188-.12c.033.033.043.067.085.092H5.7l.296-.787.171-.319.302-.598.29-.428.349-.518v-.012l.205 1.18c.115.419.285.855.41 1.243l.205.484c.083.017.211-.075.263-.12h.005l.074.131c.264-.01.527-.05.781-.12.177.54.226 1.114.143 1.677-.07.323-.297.578-.297.963.15.148.586-.06.707-.12l-.011.354c.304.04.61.055.917.045a1.996 1.996 0 0 0-.256-.598 2.783 2.783 0 0 1-.074-.354l-.023-.285c.01.02.02-.03.023-.04l.051-.12c.027-.098-.025-.189 0-.273l.12-.382.085-.462.08-.262h.006l.068.291c.075.06.52-.082.639-.04l.057.12.444-.137c.556-.17 1.132-.391 1.385-.838.394.02.788-.006 1.175-.08l.176-.045.337-.45c.038-.034.17-.007.233-.012.2-.019.4-.019.599 0a1.257 1.257 0 0 0 1.054-.234c-.044-.362-.277-.449-.513-.615a27.155 27.155 0 0 1-1.185-.89l-.473-.49-.314-.307-.513-.679-.45-.9-.428-.81c.052-.09.173-.18.2-.262.014-.042-.054-.13-.069-.16l-.2-.421a6.477 6.477 0 0 0-.643-.998l-.08-.062c-.069-.088-.062-.266-.148-.354a2.23 2.23 0 0 1-.188-.17c-.04-.055-.05-.144-.091-.2l-.149-.149c-.02-.05.008-.158-.005-.199l-.171-.228a.625.625 0 0 0 .296-.091c.034-.037.032.009.074-.012l.086-.08.268-.125c.21-.148.466-.549.763-.587l.023-.137c.295-.05.563-.2.758-.427l.029-.097a.367.367 0 0 0 .057-.32l.017-.205a.627.627 0 0 0-.422-.33l-.188-.023a1.167 1.167 0 0 0-.289-.094c0-.004 4.01-1.551 4.94-1.94.434-.183.09-.07.509-.252.238-.103.211-.153.372-.336-.09-.054-.081.039-.156.085zM9.837 17.341l-.04.229-.011.005-.04-.13.017-.086a3.133 3.133 0 0 1-.103-.536l.017-.023.206.063-.046.479zm2.582-11.086c-.085.09-.217.134-.245.28l-.177.096-.005.012c.014.008.01.004.022.005l-.011.023.04.012c-.016.026-.019.017 0 .04-.131.186-.32.309-.41.535-.062.03-.181-.04-.291-.034l-.28.04a1.416 1.416 0 0 1-.359-.16c.034-.094.032-.181.069-.267l.114-.211c.045-.164.108-.323.188-.473.068-.1.235-.15.262-.245.031-.02.037-.01.068.01l.006-.073h.205c.14.06.288.101.44.12.052.024.08.087.13.113.06.03.172-.003.234.006v.171zm-1.91-2.434h.046a.188.188 0 0 0-.034-.148l.017.046-.023-.017-.011.022-.012.069.012.011-.017-.011c.008.017.007.018.022.028zm-1.26-.09-.01.125v.005a.065.065 0 0 0 .08 0 .193.193 0 0 0-.052-.16l-.011.03c.023-.002.024 0 .034.028-.025-.009-.013-.015-.029.011v-.034L9.25 3.73z" fill="url(#inhknxwlae)"/>
    <path fill-rule="evenodd" clip-rule="evenodd" d="M12.215 1.538H7.523V1.17h4.692v.367zM15.75 3.155H3.989V2.79h11.76v.366zM18.555 4.773H1.183v-.367h17.372v.367zM19.395 6.39H.343v-.366h19.052v.366zM19.395 8.008H.343V7.64h19.052v.367zM19.395 9.625H.343V9.26h19.052v.366zM19.395 11.243H.343v-.367h19.052v.367zM19.395 12.86H.343v-.366h19.052v.366zM19.395 14.478H.343v-.367h19.052v.367zM19.395 16.096H.343v-.367h19.052v.367zM17.611 17.713H2.126v-.367h15.485v.367zM14.81 19.33H4.928v-.366h9.882v.367zM12.008 20.948H7.73v-.367h4.278v.367z" fill="#000"/>
  </g>
  <path d="M29.107 7.886c0-.855-.45-1.306-1.23-1.306-.84 0-1.23.526-1.23 1.321v8.749h-2.252V7.99c0-1.68.916-2.866 3.317-2.866 1.395 0 2.175.465 2.52.945.346-.48 1.126-.945 2.522-.945 2.4 0 3.316 1.186 3.316 2.866v8.659h-2.25V7.9c0-.795-.391-1.32-1.231-1.32-.78 0-1.23.45-1.23 1.305v8.764h-2.252V7.886zM40.527 16.65h-2.25V5.35h2.25v11.3zM48.54 16.65l-1.35-3.737c-.286-.765-.48-.96-1.201-.96h-.96v4.697h-2.251V5.35h3.931c1.996 0 3.182.99 3.182 2.716v1.17c0 1.366-.766 1.997-1.726 2.191.645.196.915.48 1.245 1.336l1.456 3.887H48.54zm-3.511-6.153h1.23c1.066 0 1.38-.645 1.38-1.32v-1.05c0-.721-.315-1.321-1.38-1.321h-1.23v3.691zM54.438 13.168l-.54 3.482h-2.342l1.936-11.3h4.682l1.936 11.3h-2.341l-.54-3.482h-2.791zm2.58-1.455-.78-4.907h-.81l-.78 4.907h2.37zM65.347 10.677h3.496v3.332c0 1.74-.795 2.866-3.631 2.866s-3.632-1.126-3.632-2.866V7.99c0-1.74.93-2.866 3.632-2.866 2.7 0 3.631 1.126 3.631 2.866v.54h-2.25v-.48c0-.72-.316-1.47-1.381-1.47-1.066 0-1.38.75-1.38 1.47v5.898c0 .855.314 1.47 1.38 1.47 1.065 0 1.38-.615 1.38-1.47v-1.816h-1.245v-1.456zM70.87 5.35h6.002v1.456H73.12v3.196h3.527v1.455H73.12v3.737h3.902v1.456h-6.153V5.35z" fill="#fff"/>
  <defs>
    <linearGradient id="hb7e2gu2bb" x1="11.561" y1="21.599" x2="11.561" y2=".69" gradientUnits="userSpaceOnUse">
        <stop stop-color="#fff"/>
        <stop offset="1" stop-color="#fff" stop-opacity=".5"/>
    </linearGradient>
    <linearGradient id="5jdpn1hthc" x1="9.869" y1="21.599" x2="9.869" y2=".69" gradientUnits="userSpaceOnUse">
        <stop offset=".238" stop-color="#fff"/>
        <stop offset=".305" stop-color="#fff" stop-opacity=".943"/>
        <stop offset=".785" stop-color="#fff" stop-opacity=".555"/>
        <stop offset="1" stop-color="#fff" stop-opacity=".4"/>
    </linearGradient>
    <linearGradient id="1lj0rbkeed" x1="204.35" y1="460.801" x2="204.35" y2="414.559" gradientUnits="userSpaceOnUse">
        <stop stop-color="#fff"/>
        <stop offset="1" stop-color="#fff" stop-opacity=".5"/>
    </linearGradient>
    <linearGradient id="inhknxwlae" x1="11.903" y1="19.97" x2="11.903" y2="2.032" gradientUnits="userSpaceOnUse">
        <stop stop-color="#fff" stop-opacity=".9"/>
        <stop offset=".929" stop-color="#fff" stop-opacity="0"/>
    </linearGradient>
    <clipPath id="myzsrdyf6a">
        <path fill="#fff" transform="translate(.343)" d="M0 0h19.052v22H0z"/>
    </clipPath>
  </defs>
</svg>
