<svg viewBox="0 0 49 20" fill="none" xmlns="http://www.w3.org/2000/svg">
    <g clip-path="url(#90zeynrg8a)" fill="#fff">
        <path d="M22.773 3.797h6.15v1.491h-3.844v3.275h3.613v1.493H25.08v3.828h3.998v1.491h-6.304V3.797zM30.341 3.797h2.322l1.615 3.598 1.598-3.598h2.338l-2.783 5.72 2.89 5.858h-2.398l-1.645-3.828-1.645 3.828h-2.4l2.892-5.858-2.784-5.72zM47.536 12.592c0 1.784-1.045 2.783-3.567 2.783h-4.028V3.797h4.028c2.522 0 3.567 1.077 3.567 2.937v5.858zm-5.289 1.292h1.414c1.108 0 1.569-.462 1.569-1.507V6.796c0-1.03-.323-1.508-1.415-1.508h-1.568v8.596zM9.219.554A9.042 9.042 0 0 0 .187 9.587a9.042 9.042 0 0 0 9.032 9.032 9.043 9.043 0 0 0 9.032-9.032A9.042 9.042 0 0 0 9.22.554zm.83.375L9.234 2.82l-.069.093h-.03a7.636 7.636 0 0 0-2.1.352l-.439.157L10.048.929zm3.96 1.395-1.605 1.29-.105.05-.028-.014a7.624 7.624 0 0 0-2.019-.674l-.461-.066 4.217-.586zm2.843 3.09-2.017.387-.12-.006-.018-.025a7.626 7.626 0 0 0-1.467-1.54l-.377-.276 4 1.46zm1.065 4.061L15.95 8.87l-.099-.059-.004-.03a7.64 7.64 0 0 0-.574-2.05l-.204-.42 2.85 3.164zM.503 9.587A8.673 8.673 0 0 1 2.072 4.6a4.354 4.354 0 0 0 .835 5.868 6.38 6.38 0 0 0 6.307 5.496 8.216 8.216 0 0 0 2.981-.545l.056-.023-.028.054-.89 1.676 1.029-.852-.036.084c-.196.485-.33.994-.397 1.513a8.7 8.7 0 0 1-6.046-.232 8.715 8.715 0 0 1-5.38-8.052zm11.969 8.086.008-.024c.376-1.384 1.434-2.227 2.133-2.786.384-.307.636-.508.602-.667-.017-.077-.104-.137-.265-.186l-.036-.01.027-.027c.136-.13.384-.376.563-.56.095-.105.212-.19.342-.248.144-.068.276-.158.391-.268a.748.748 0 0 1 .299-.15.364.364 0 0 0 .122-.052.368.368 0 0 0 .136-.25.257.257 0 0 0-.108-.199.37.37 0 0 0-.134-.064.168.168 0 0 1-.118-.081 1.659 1.659 0 0 0-.633-.363l-.048-.016.026.043a.485.485 0 0 1-.021.521c-.086.11-.175.053-.261-.001-.053-.034-.098-.064-.138-.044-.037.016-.05.067-.056.104-.026.148-.317.426-.76.724a2.68 2.68 0 0 1-.978.477.11.11 0 0 1-.088-.04c-.125-.147-.043-.654.036-1.145.028-.174.054-.335.07-.48a.464.464 0 0 1 .304-.412c.032-.016.102-.048.13-.063a.731.731 0 0 0-.114-.095c-.077-.06-.081-.068-.087-.08a.033.033 0 0 1 .001-.027.719.719 0 0 1 .344-.23 1.733 1.733 0 0 0-.344-.037c-.251-.001-.496.074-.704.215l-.002.01.011.01a.34.34 0 0 1 .09.288 2.56 2.56 0 0 1-.505 1.306c-.084.05-.174.089-.269.113-.236.073-.48.149-.691.786-.215.649-1.96.649-2.533.649a4.73 4.73 0 0 1-4.374-2.948 4.355 4.355 0 0 0 4.379-1.78 4.355 4.355 0 0 1 4.354-1.783 4.708 4.708 0 0 0-4.35-2.921c-.569 0-2.301 0-2.51.634-.215.647-.465.725-.707.8a.995.995 0 0 0-.263.11 2.53 2.53 0 0 0-.495 1.287.323.323 0 0 0 .08.271l.025.018-.009.029a1.23 1.23 0 0 1-.723.228 1.32 1.32 0 0 1-.388-.059.785.785 0 0 0 .368-.235c.033-.039-.095-.096-.214-.21.037-.015.121-.054.154-.07a.446.446 0 0 0 .291-.395c.017-.146.044-.31.071-.482.075-.466.16-.987.04-1.127a.087.087 0 0 0-.07-.032c-.35.091-.679.252-.965.473-.432.291-.727.57-.751.71a.152.152 0 0 1-.069.12c-.051.024-.103-.01-.159-.044-.098-.063-.163-.095-.232-.007a.462.462 0 0 0-.019.496l.056.095-.104-.036c-.24-.074-.46-.2-.644-.37a.146.146 0 0 0-.106-.073.31.31 0 0 1-.143-.069.278.278 0 0 1-.115-.216.39.39 0 0 1 .143-.267.378.378 0 0 1 .13-.055.727.727 0 0 0 .29-.146c.118-.111.251-.203.397-.271.128-.058.242-.141.336-.245.182-.185.432-.433.564-.56-.17-.05-.262-.117-.28-.202-.038-.172.22-.378.609-.689.698-.557 1.752-1.4 2.126-2.776l.001-.003-.01.002c.204-.084.412-.16.623-.228l-.02.008V1.3a6.179 6.179 0 0 1-.399 1.524l1.045-.865-.943 1.775a8.239 8.239 0 0 1 2.99-.547 6.402 6.402 0 0 1 6.332 5.538 4.355 4.355 0 0 1 .81 5.848 8.741 8.741 0 0 1-3.894 3.1z"/>
        <path d="M8.182 16.219a7.627 7.627 0 0 1-2.025-.676l-.019-.009-.094.045-1.538 1.237 3.983-.553-.307-.044zM11.409 15.93a7.667 7.667 0 0 1-2.103.352h-.023l-.063.084-.779 1.814 3.26-2.355-.292.104zM3.146 12.452a7.665 7.665 0 0 1-.576-2.055l-.003-.021-.09-.053-1.886-.58 2.691 2.988-.136-.28zM5.195 14.962a7.634 7.634 0 0 1-1.472-1.546l-.012-.017-.11-.005-1.933.373 3.778 1.378-.25-.183z"/>
    </g>
    <defs>
        <clipPath id="90zeynrg8a">
            <path fill="#fff" transform="translate(.187 .554)" d="M0 0h47.349v18.064H0z"/>
        </clipPath>
    </defs>
</svg>
