<svg width="53" height="22" viewBox="0 0 53 22" fill="none" xmlns="http://www.w3.org/2000/svg">
    <path d="M15.024 17.356a2.016 2.016 0 0 1-1.052-.284 2.088 2.088 0 0 1-2.102 0 2.088 2.088 0 0 1-2.103 0 2.088 2.088 0 0 1-2.103 0l-.008.004c.136.096.276.186.42.272.206.066.422.099.64.099.361.004.717-.09 1.029-.274l.022-.013.022.013a2.071 2.071 0 0 0 2.058 0l.023-.013.022.013a2.071 2.071 0 0 0 2.058 0l.022-.013.023.013c.311.184.667.279 1.029.274.218 0 .435-.033.643-.1.142-.085.281-.175.418-.27l-.01-.005c-.318.19-.681.287-1.051.284z" fill="#fff"/>
    <path d="M13.972 17.259a2.16 2.16 0 0 1-2.102 0 2.161 2.161 0 0 1-2.103 0c-.32.182-.683.276-1.051.272-.128 0-.255-.011-.381-.034.076.042.153.082.23.12a2.048 2.048 0 0 0 1.18-.257l.022-.012.022.012a2.147 2.147 0 0 0 2.06 0l.02-.012.022.012a2.148 2.148 0 0 0 2.06 0l.021-.012.022.013a2.048 2.048 0 0 0 1.184.256c.076-.038.152-.078.228-.119a2.233 2.233 0 0 1-.382.034 2.078 2.078 0 0 1-1.052-.273z" fill="#fff"/>
    <path d="M12.921 17.708a2.144 2.144 0 0 1-1.051-.262 2.238 2.238 0 0 1-2.103 0c-.312.17-.662.26-1.018.261l.182.082c.286-.022.563-.105.815-.242l.02-.012.022.012a2.229 2.229 0 0 0 2.06 0l.022-.012.02.012a2.23 2.23 0 0 0 2.061 0l.021-.011.021.012c.253.137.532.22.818.241.061-.026.121-.054.181-.082-.356 0-.707-.09-1.02-.26a2.145 2.145 0 0 1-1.05.261zM15.024 16.826a1.847 1.847 0 0 1-1.052-.32 1.886 1.886 0 0 1-2.102 0 1.886 1.886 0 0 1-2.103 0 1.886 1.886 0 0 1-2.103 0 1.732 1.732 0 0 1-.463.226l.077.062c.128-.047.25-.109.362-.186l.024-.017.024.017a1.862 1.862 0 0 0 2.055 0l.024-.016.024.016a1.862 1.862 0 0 0 2.054 0l.025-.016.024.017a1.862 1.862 0 0 0 2.054 0l.024-.017.024.017a1.862 1.862 0 0 0 2.055 0l.024-.017.024.017c.113.077.234.14.363.187l.078-.063a1.736 1.736 0 0 1-.465-.227c-.31.21-.676.322-1.051.32z" fill="#fff"/>
    <path d="M15.024 17.002a1.9 1.9 0 0 1-1.052-.307 1.95 1.95 0 0 1-2.102 0 1.95 1.95 0 0 1-2.103 0 1.95 1.95 0 0 1-2.103 0c-.097.063-.2.117-.308.16l.076.058c.073-.033.142-.072.209-.116l.023-.016.024.016a1.929 1.929 0 0 0 2.055 0l.024-.016.023.016a1.928 1.928 0 0 0 2.056 0l.024-.016.023.016a1.928 1.928 0 0 0 2.056 0l.023-.015.024.015a1.929 1.929 0 0 0 2.056 0l.023-.015.024.015c.067.045.137.084.21.117l.075-.057a1.712 1.712 0 0 1-.309-.162 1.9 1.9 0 0 1-1.051.307z" fill="#fff"/>
    <path d="M15.024 17.179c-.372.003-.736-.1-1.052-.296a2.017 2.017 0 0 1-2.102 0 2.018 2.018 0 0 1-2.103 0 2.018 2.018 0 0 1-2.103 0c-.05.032-.103.06-.156.087l.071.052.062-.036.023-.015.023.015a1.998 1.998 0 0 0 2.057 0l.023-.015.023.015a1.998 1.998 0 0 0 2.057 0l.023-.015.023.015a1.998 1.998 0 0 0 2.056 0l.023-.015.023.015a1.999 1.999 0 0 0 2.057 0l.023-.015.023.015c.02.013.041.025.063.037l.072-.052a1.59 1.59 0 0 1-.158-.088c-.315.197-.68.3-1.051.296zM11.778 18.4l.093.001.093-.001c-.032-.013-.064-.026-.094-.04l-.092.04z" fill="#fff"/>
    <path d="M11.24 18.374c.098.008.195.015.293.019.11-.03.216-.07.318-.118l.019-.009.018.01c.103.048.21.087.32.117.099-.005.198-.011.297-.02a2.23 2.23 0 0 1-.63-.19c-.201.095-.415.16-.634.19zM12.921 17.885a2.214 2.214 0 0 1-1.051-.252 2.32 2.32 0 0 1-2.103 0 2.073 2.073 0 0 1-.679.222c.052.022.105.042.157.062.175-.037.344-.099.502-.183l.02-.01.02.01a2.313 2.313 0 0 0 2.062 0l.02-.01.02.01a2.312 2.312 0 0 0 2.063 0l.02-.01.02.01c.16.084.33.146.506.183l.155-.061a2.07 2.07 0 0 1-.68-.223c-.325.17-.686.256-1.052.252z" fill="#fff"/>
    <path d="M12.921 18.062a2.286 2.286 0 0 1-1.051-.243 2.403 2.403 0 0 1-2.103 0c-.122.064-.251.114-.384.15l.138.048a1.72 1.72 0 0 0 .226-.097l.02-.01.02.01a2.4 2.4 0 0 0 2.063 0l.02-.01.02.01a2.4 2.4 0 0 0 2.063 0l.02-.01.019.01c.073.037.15.07.228.097l.138-.048a1.943 1.943 0 0 1-.386-.15 2.286 2.286 0 0 1-1.05.243z" fill="#fff"/>
    <path d="M12.921 18.237a2.363 2.363 0 0 1-1.051-.232 2.492 2.492 0 0 1-2.103 0c-.038.019-.077.036-.118.053l.114.035.009-.004.019.01.017.007c.323.094.652.166.985.215l.03.001c.357.005.71-.071 1.032-.224l.02-.01.018.01c.323.153.676.23 1.033.224h.02c.34-.05.677-.124 1.007-.221l.005-.002.02-.01.006.003c.036-.01.072-.022.108-.034a1.568 1.568 0 0 1-.12-.053 2.363 2.363 0 0 1-1.05.232zM11.87 4.343a6.689 6.689 0 0 0-4.819 11.332l.066-.028a6.627 6.627 0 1 1 9.507 0c.022.01.043.02.066.028a6.69 6.69 0 0 0-4.82-11.332z" fill="#fff"/>
    <path d="M16.856 15.23c.07-.083.139-.168.205-.255l-.06-.043.21-.287.057.042c.061-.09.12-.182.177-.276l-.064-.037.177-.307.063.036c.051-.096.1-.194.146-.293l-.067-.03.144-.324.066.029c.04-.101.08-.203.115-.306l-.07-.024.11-.337.068.022c.03-.104.058-.21.083-.317l-.073-.015.074-.347.07.015c.019-.107.035-.215.049-.324l-.074-.008.037-.353.07.008c.009-.109.014-.218.016-.327h-.073v-.355h.07a6.514 6.514 0 0 0-.019-.327l-.072.008-.037-.353.07-.008a6.604 6.604 0 0 0-.052-.323l-.073.016-.073-.348.07-.015a6.412 6.412 0 0 0-.087-.315l-.07.023-.11-.338.069-.022a6.564 6.564 0 0 0-.12-.305l-.068.03-.144-.324.066-.03a6.41 6.41 0 0 0-.151-.29l-.064.037-.178-.307.062-.036a6.596 6.596 0 0 0-.18-.273l-.06.043-.208-.287.057-.042a6.577 6.577 0 0 0-.207-.253l-.055.049-.237-.264.052-.047a6.564 6.564 0 0 0-.232-.23l-.05.054-.263-.237.047-.053a6.589 6.589 0 0 0-.255-.204l-.043.059-.287-.209.041-.058a6.524 6.524 0 0 0-.275-.177l-.037.065-.307-.178.036-.062a6.472 6.472 0 0 0-.293-.147l-.03.068-.325-.145.03-.066c-.101-.04-.203-.079-.306-.115l-.023.07-.338-.109.022-.069a6.486 6.486 0 0 0-.317-.082l-.015.073-.347-.074.015-.07a6.546 6.546 0 0 0-.324-.05l-.008.074-.353-.037.008-.07a6.65 6.65 0 0 0-.327-.015v.073h-.355v-.07c-.11.003-.219.009-.327.018l.008.073-.353.037-.008-.071a6.48 6.48 0 0 0-.323.053l.016.072-.348.074-.015-.07a6.482 6.482 0 0 0-.315.086l.023.07-.338.11-.022-.068a6.515 6.515 0 0 0-.305.119l.03.068-.324.145-.03-.066a6.415 6.415 0 0 0-.29.15l.037.065-.308.177-.035-.062a6.514 6.514 0 0 0-.273.18l.043.06-.287.208-.042-.057c-.086.067-.17.136-.253.208l.049.054-.264.238-.047-.053a6.48 6.48 0 0 0-.23.233l.054.049-.238.264-.052-.048c-.07.084-.138.169-.204.256l.059.043-.209.287-.058-.042c-.061.09-.12.182-.177.275l.065.037-.178.308-.062-.036c-.052.096-.1.194-.147.292l.068.03-.145.325-.066-.03c-.04.102-.079.204-.115.307l.07.023-.109.338-.069-.023c-.03.105-.057.21-.082.317l.073.016-.074.347-.07-.015a6.513 6.513 0 0 0-.05.323l.074.008-.037.353-.07-.007a6.62 6.62 0 0 0-.015.327h.073v.355h-.071c.004.11.01.218.019.326l.073-.007.037.353-.071.007c.015.109.033.216.053.323l.072-.015.074.347-.07.015c.026.106.055.212.086.316l.07-.023.11.338-.068.022c.037.103.077.204.119.305l.068-.03.145.324-.066.029c.048.098.098.195.15.29l.065-.037.177.308-.062.036c.058.092.118.183.18.273l.06-.043.208.287-.057.042c.067.086.136.17.208.253l.054-.05.238.264-.053.048.04.04c.18-.099.334-.241.446-.414a1.252 1.252 0 0 0 1.36.534 3.54 3.54 0 0 0 .004-.666c-.07-.747.05-1.866.413-2.47.677-1.126.701-1.679.602-1.945a.84.84 0 0 0-.483-.442.908.908 0 0 0-.26-.072l-.7-.052.587.179a1.597 1.597 0 0 0-1.047.548l-.075.105-.01.014a1.824 1.824 0 0 0-.376.714.32.32 0 0 0 .058.19.711.711 0 0 1-.634-.005.52.52 0 0 0 .246-.138.978.978 0 0 0 .17-.332c.035-.096.075-.19.114-.28.094-.22.168-.392.104-.478-.03-.041-.09-.057-.184-.048-.237.016-.928.383-.942.572 0 .035.007.07.02.101a.486.486 0 0 1-.147-.056.158.158 0 0 0-.127-.018.091.091 0 0 0-.058.053.334.334 0 0 0 .053.25 1.54 1.54 0 0 1-.506-.327.141.141 0 0 1-.054-.113.177.177 0 0 1 .153-.161c.055-.014.83-.555.893-.61l.019-.016-.024-.009c-.093-.032-.139-.068-.146-.112-.015-.09.135-.197.362-.36l.03-.021a3.595 3.595 0 0 0 1.308-1.528c.032-.08.058-.163.08-.246a1.05 1.05 0 0 0 .017-.221c.027.063.048.13.062.197.062.383.033.776-.084 1.146l-.008.026.025-.007 1.41-.612-.222.483-.009.02.021.001c.219.019.433.072.635.157.404.17.748.459.986.827l-.04.087-.113.25a6.666 6.666 0 0 0-.643 2.33c-.043.493 0 .99.127 1.467a6.226 6.226 0 0 1-.03-.936 7.404 7.404 0 0 1 .72-2.721l.026-.06c.047-.113.097-.225.146-.334l.002-.006c.228-.509.443-.99.364-1.482a1.073 1.073 0 0 0-.382-.683l-.18-.256.26.674a1.824 1.824 0 0 0-1.13-.541c-.018 0-.036 0-.053.002l-.146.006-.014.001a2 2 0 0 0-.871.157.35.35 0 0 0-.125.178.796.796 0 0 1-.427-.556.568.568 0 0 0 .32.122c.127-.004.252-.03.37-.077.106-.035.214-.064.319-.092.251-.066.45-.118.481-.23.016-.055-.011-.117-.082-.19-.174-.196-.956-.545-1.128-.429a.274.274 0 0 0-.075.088.536.536 0 0 1-.052-.168.174.174 0 0 0-.07-.121.1.1 0 0 0-.084-.014c-.09.025-.152.149-.18.217a1.672 1.672 0 0 1-.06-.662.155.155 0 0 1 .062-.125.233.233 0 0 1 .175-.02c.025.01.049.025.069.044.049.038 1.038.342 1.128.36l.026.005-.008-.024c-.035-.102-.035-.167-.002-.204.068-.073.262-.016.557.07l.04.012a4.198 4.198 0 0 0 2.267.084c.09-.027.178-.06.264-.097.074-.038.144-.084.208-.138-.037.07-.08.134-.131.193a3.048 3.048 0 0 1-1.039.687l-.033.014 1.654.7-.756.108.012.02c.137.215.236.453.29.703.09.403.09 1.152-.408 2.437a4.544 4.544 0 0 0-.318 2.07c.054.467.184.92.386 1.344a4.565 4.565 0 0 1-.243-1.476c.007-.643.135-1.28.375-1.877.268-.69.55-1.548.467-2.254.26-.139.549-.211.843-.21.098 0 .196.008.293.022l.024.003-.162-.522 1.232.94.025.017-.002-.03a2.542 2.542 0 0 1 .188-1.004c.027-.06.06-.117.098-.17-.017.068-.026.139-.029.21.003.082.011.164.024.246.128.646.436 1.244.889 1.724l.024.027c.18.2.298.331.265.412-.016.04-.066.063-.16.075l-.025.003.015.02c.048.065.664.734.713.758a.2.2 0 0 1 .06.038c.035.04.052.092.05.145a.135.135 0 0 1-.074.095 1.48 1.48 0 0 1-.542.202.319.319 0 0 0 .1-.223.09.09 0 0 0-.043-.063.154.154 0 0 0-.124-.01.496.496 0 0 1-.149.023.237.237 0 0 0 .04-.09c.027-.181-.546-.67-.766-.734-.086-.028-.146-.026-.184.007-.078.068-.044.246-.001.47.017.093.036.19.048.287.008.121.039.24.091.348.05.078.12.14.202.18a.686.686 0 0 1-.594-.127.31.31 0 0 0 .094-.165 1.759 1.759 0 0 0-.206-.75 5.367 5.367 0 0 1-.055-.13 1.536 1.536 0 0 0-.868-.731l.614-.047-.55-.094a.791.791 0 0 0-.76.073.937.937 0 0 0-.412.763c-.028.304.002.976.522 2.064.34.786.495 1.64.452 2.496-.014.191-.015.382-.003.573a1.253 1.253 0 0 0 1.286-.55c.113.173.266.315.446.415l.1-.101-.055-.05.238-.263.052.047zM15.024 16.65a1.797 1.797 0 0 1-1.052-.334 1.826 1.826 0 0 1-2.102 0 1.826 1.826 0 0 1-2.103 0 1.826 1.826 0 0 1-2.103 0c-.187.134-.399.23-.623.28l.083.071c.185-.052.36-.136.515-.248l.025-.018.025.018a1.799 1.799 0 0 0 2.053 0l.025-.018.025.018a1.798 1.798 0 0 0 2.053 0l.025-.018.024.018a1.799 1.799 0 0 0 2.053 0l.025-.018.025.018a1.798 1.798 0 0 0 2.053 0l.025-.018.025.018c.156.113.331.197.516.25l.084-.072a1.736 1.736 0 0 1-.625-.28 1.797 1.797 0 0 1-1.051.332z" fill="#fff"/>
    <path d="M11.87 3.3a7.736 7.736 0 1 0 0 15.471 7.736 7.736 0 0 0 0-15.47zM17.7 15.83a7.547 7.547 0 0 1-11.662-.004l-.002-.002a7.546 7.546 0 1 1 11.664.005z" fill="#fff"/>
    <path d="M19.214 11.39v-.599h-.454l-.023-.342.14-.015.023.22.311-.034-.062-.595-.452.048-.059-.339.138-.029.046.216.306-.065-.125-.586-.444.094-.094-.33.134-.043.068.209.297-.097-.185-.569-.431.14-.128-.318.128-.057.09.2.286-.127-.244-.546-.415.184-.16-.303.122-.07.11.19.27-.156-.299-.519-.393.227-.191-.285.114-.082.13.178.252-.184-.352-.484-.367.266-.22-.263.105-.094.147.163.232-.209-.4-.445-.338.304-.246-.239.094-.104.164.147.209-.233-.445-.4-.304.337-.27-.212.083-.114.178.13.184-.253-.485-.352-.267.367-.29-.182.07-.122.19.11.157-.27-.518-.3-.227.393-.308-.151.057-.129.201.09.127-.286-.547-.243-.184.414-.322-.118.043-.134.21.068.096-.297-.57-.185-.14.432-.332-.084.029-.138.215.046.065-.306-.585-.124-.095.444-.34-.049.015-.14.219.023.033-.31-.596-.063-.047.452-.343-.014v-.14h.22v-.313h-.599v.454l-.342.023-.015-.14.22-.023-.034-.31-.595.062.048.452-.339.058-.029-.137.216-.046-.066-.306-.585.124.094.445-.33.093-.043-.134.209-.068-.097-.297-.569.185.14.432-.318.127-.058-.128.202-.09-.128-.285-.546.243.184.415-.303.16-.07-.121.19-.11-.156-.271-.519.3.227.393-.285.19-.082-.113.178-.13-.184-.253-.484.352.266.368-.263.22-.094-.105.163-.147-.209-.233-.445.4.304.338-.24.246-.103-.094.147-.163-.233-.21-.4.446.337.303-.212.27-.113-.082.129-.179-.253-.183-.352.484.367.267-.182.29-.122-.07.11-.19-.27-.157-.3.519.393.227-.151.308-.129-.058.09-.2-.286-.128-.243.547.415.185-.119.322-.134-.044.068-.209-.297-.096-.185.569.432.14-.084.333-.138-.03.046-.215-.306-.065-.124.586.444.094-.049.34-.14-.015.023-.219-.31-.032-.063.595.451.048-.013.343h-.14v-.22h-.313v.598h.454l.023.343-.14.014-.023-.219-.31.033.062.595.452-.047.058.338-.137.03-.046-.216-.306.065.124.586.445-.095.093.33-.134.044-.068-.21-.297.097.185.57.432-.14.127.318-.128.057-.09-.201-.285.127.243.547.415-.185.16.304-.121.07-.11-.19-.271.156.3.518.392-.227.191.285-.113.083-.13-.178-.253.184.352.484.368-.267.22.264-.105.094-.147-.164-.215.194c.03.013.06.026.09.036l-.014-.016.134-.12.147.164.201-.182-.3-.36-.364.264-.274-.377.146-.105.129.178.22-.16-.262-.39-.39.225-.232-.403.155-.09.11.19.235-.135-.219-.415-.411.183-.19-.425.165-.073.09.2.247-.11-.174-.435-.428.139-.144-.443.17-.056.069.21.258-.084-.128-.452-.44.094-.097-.456.176-.037.045.215.265-.056-.08-.463-.447.047-.049-.463.179-.018.023.218.27-.028-.031-.468h-.45v-.466h.18v.22h.27l.018-.469-.447-.047.049-.463.178.019-.023.219.27.028.067-.465-.44-.093.096-.456.176.038-.046.215.266.056.115-.455-.428-.139.144-.443.17.056-.067.21.257.083.162-.44-.41-.184.189-.425.164.073-.09.201.248.11.207-.42-.39-.226.233-.403.156.09-.11.19.235.136.25-.397-.364-.265.274-.376.145.105-.13.178.22.16.29-.37-.334-.3.311-.346.134.12-.147.163.201.182.327-.337-.3-.334.345-.312.12.134-.163.147.181.202.36-.301-.264-.364.377-.274.106.146-.178.129.159.22.39-.262-.225-.39.403-.232.09.155-.19.11.135.235.415-.219-.183-.411.426-.19.073.165-.201.09.11.247.436-.174-.14-.428.444-.144.055.17-.21.069.085.258.451-.128-.093-.44.455-.097.038.176-.216.045.057.266.462-.08-.047-.448.463-.049.02.18-.22.022.029.27.468-.032v-.45h.466v.18h-.22v.271l.469.018.046-.447.464.049-.02.178-.218-.023-.028.27.464.067.094-.44.455.096-.037.176-.215-.046-.057.266.455.115.14-.428.442.144-.055.17-.21-.067-.084.257.441.162.183-.41.426.189-.074.164-.2-.09-.11.248.42.207.225-.39.403.233-.09.156-.19-.11-.136.235.398.25.264-.364.377.274-.106.145-.178-.13-.16.22.37.29.301-.334.346.311-.12.134-.164-.147-.181.201.336.327.335-.3.311.345-.133.12-.148-.163-.201.181.3.36.364-.264.274.377-.145.106-.13-.178-.219.159.261.39.39-.225.233.403-.156.09-.11-.19-.235.135.22.415.41-.183.19.426-.164.073-.09-.201-.248.11.175.436.428-.14.144.444-.171.055-.068-.21-.258.085.128.451.44-.093.097.455-.176.038-.046-.216-.265.057.08.462.447-.047.05.463-.18.019-.023-.219-.27.028.032.469h.45v.465h-.18v-.22h-.27l-.019.47.448.046-.05.464-.178-.02.023-.218-.27-.028-.066.464.44.094-.097.455-.176-.037.046-.215-.265-.057-.115.455.428.14-.144.442-.171-.055.068-.21-.258-.083-.162.44.411.183-.19.425-.163-.072.089-.202-.248-.11-.207.421.39.225-.233.404-.156-.09.11-.19-.234-.136-.25.397.364.264-.274.377-.145-.106.129-.178-.22-.16-.29.37.291.262a.905.905 0 0 0 .078-.02l-.278-.25.212-.27.114.083-.13.178.254.184.352-.484-.368-.267.183-.29.122.07-.11.19.27.156.3-.518-.394-.227.152-.308.128.057-.09.201.286.127.244-.546-.415-.185.118-.322.134.043-.068.21.297.096.185-.57-.431-.14.084-.332.137.029-.046.215.306.065.125-.585-.445-.095.05-.34.14.015-.024.219.311.033.063-.596-.452-.047.013-.343h.14v.22h.313z" fill="#fff"/>
    <path d="m17.003 15.748-.104-.094-.065.065c.055.013.112.023.169.029zM15.024 16.473a1.75 1.75 0 0 1-1.052-.347 1.768 1.768 0 0 1-2.102 0 1.767 1.767 0 0 1-2.103 0 1.768 1.768 0 0 1-2.103 0 1.723 1.723 0 0 1-.787.323l.085.078c.245-.047.477-.15.677-.298l.025-.02.026.02a1.738 1.738 0 0 0 2.051 0l.026-.02.025.02a1.738 1.738 0 0 0 2.052 0l.026-.019.025.02a1.739 1.739 0 0 0 2.052 0l.025-.02.026.02a1.738 1.738 0 0 0 2.051 0l.026-.02.026.02c.2.149.432.25.678.297l.085-.076a1.724 1.724 0 0 1-.789-.325 1.749 1.749 0 0 1-1.051.346z" fill="#fff"/>
    <path d="M16.075 15.477a1.433 1.433 0 0 1-2.102 0 1.434 1.434 0 0 1-2.103 0 1.434 1.434 0 0 1-2.103 0 1.433 1.433 0 0 1-2.103 0 1.43 1.43 0 0 1-1.314.435l.103.113a1.576 1.576 0 0 0 1.184-.369l.027-.024.028.024a1.575 1.575 0 0 0 2.047 0l.028-.024.027.024a1.576 1.576 0 0 0 2.048 0l.028-.023.027.023a1.576 1.576 0 0 0 2.048 0l.027-.023.028.023a1.575 1.575 0 0 0 2.047 0l.028-.023.027.024a1.577 1.577 0 0 0 1.187.368l.103-.114a1.43 1.43 0 0 1-1.317-.434z" fill="#fff"/>
    <path d="M15.024 16.296c-.381 0-.751-.127-1.052-.361a1.712 1.712 0 0 1-2.102 0 1.713 1.713 0 0 1-2.103 0 1.713 1.713 0 0 1-2.103 0 1.7 1.7 0 0 1-.953.357l.087.083c.306-.031.597-.148.84-.336l.026-.021.026.02a1.681 1.681 0 0 0 2.05 0l.027-.02.026.02a1.682 1.682 0 0 0 2.05 0l.027-.02.026.02a1.682 1.682 0 0 0 2.05.001l.026-.02.027.02a1.681 1.681 0 0 0 2.05 0l.026-.02.026.02c.244.19.535.306.842.337a6.34 6.34 0 0 0 .087-.084 1.7 1.7 0 0 1-.955-.357c-.3.234-.67.361-1.051.36z" fill="#fff"/>
    <path d="M16.075 15.744a1.66 1.66 0 0 1-2.103 0 1.66 1.66 0 0 1-2.102 0 1.66 1.66 0 0 1-2.103 0 1.66 1.66 0 0 1-2.103-.001 1.662 1.662 0 0 1-1.126.373l.09.094c.368-.003.724-.13 1.01-.363l.026-.022.027.022a1.627 1.627 0 0 0 2.049 0l.027-.022.027.022a1.627 1.627 0 0 0 2.049 0l.027-.021.026.022a1.627 1.627 0 0 0 2.05 0l.026-.022.027.022a1.628 1.628 0 0 0 2.05 0l.026-.022.027.022c.285.232.642.36 1.01.363l.09-.094-.076.002c-.383 0-.754-.133-1.051-.375zM11.835 2.576a8.396 8.396 0 0 1 3.211.636L11.835 0 8.623 3.212a8.396 8.396 0 0 1 3.212-.636zM19.623 14.211 22.835 11l-3.212-3.212a8.434 8.434 0 0 1 0 6.423zM11.835 19.424a8.395 8.395 0 0 1-3.212-.636L11.835 22l3.211-3.212a8.395 8.395 0 0 1-3.211.636zM3.411 11a8.396 8.396 0 0 1 .636-3.212L.835 11l3.212 3.211A8.397 8.397 0 0 1 3.41 11zM33.904 16.75V5.455h-2.25v4.65h-2.76v-4.65h-2.25V16.75h2.25v-5.19h2.76v5.19h2.25zM35.626 13.495v.615c0 1.74.93 2.865 3.63 2.865 2.7 0 3.63-1.125 3.63-2.865v-.93c0-1.56-.886-2.13-1.966-2.565l-1.845-.765c-.705-.3-1.125-.675-1.125-1.35v-.345c0-.855.285-1.47 1.23-1.47.886 0 1.156.615 1.156 1.47v.465h2.25v-.525c0-1.74-.945-2.865-3.405-2.865-2.535 0-3.48 1.125-3.48 2.865v.63c0 1.26.78 2.1 1.904 2.52l1.756.69c.945.36 1.275.765 1.275 1.665v.45c0 .72-.316 1.47-1.38 1.47-1.066 0-1.38-.75-1.38-1.47v-.555h-2.25zM52.013 8.02c0-1.59-.945-2.565-3.33-2.565h-4.08V16.75h2.25v-4.53h1.83c2.385 0 3.33-.96 3.33-2.565V8.02zm-5.16-1.11h1.515c1.02 0 1.395.465 1.395 1.32v1.215c0 .855-.36 1.32-1.38 1.32h-1.53V6.91z" fill="#fff"/>
</svg>
