<svg viewBox="0 0 65 20" fill="none" xmlns="http://www.w3.org/2000/svg">
    <path fill-rule="evenodd" clip-rule="evenodd" d="M15.188 3.146A9.144 9.144 0 0 0 9.142.863V.857c-.968 0-1.93.154-2.85.456-.114.74-.255 1.27-.493 1.774l1.067-.883-.94 1.768c.998-.42 2.165-.613 3.216-.613a6.643 6.643 0 0 1 4.609 1.854c.078-.147.159-.293.243-.436a4.52 4.52 0 0 0-.181-.163l.22.099c.335-.56.723-1.084 1.155-1.567zm-2.146 9.937c-.908 1.185-2.32 1.961-3.903 1.961-2.813 0-4.385-.912-5.264-2.6-.075-.143-.042-.318-.009-.492.035-.184.07-.369-.024-.516-.761-1.189-.696-3.408-.696-3.408s-.678 1.97-.582 3.714c.014.255.145.406.268.55.073.085.145.168.187.268a6.64 6.64 0 0 0 10.73 2.224c.076.144.156.287.238.426-.458.406-.94.723-1.199.894l-.005.003-.01.08.225 1.897 1.16-2.593c.307.485.652.941 1.033 1.367a9.144 9.144 0 0 1-14.827-4.3A9.138 9.138 0 0 1 5.771 1.507c-.375 1.5-1.529 2.42-2.258 3.003-.593.474-.905.723-.286.877a22.26 22.26 0 0 0-.642.635c-.159.161-.255.209-.36.26a1.53 1.53 0 0 0-.407.277.8.8 0 0 1-.32.162.37.37 0 0 0-.121.05s-.281.232-.029.439c.055.044.095.053.132.061.045.01.083.02.136.092.144.199.652.372.652.372s-.173-.318.023-.566c.1-.128.21-.059.298-.003.083.053.149.094.173-.049.061-.359 1.471-1.28 1.829-1.28.274 0 .173.635.076 1.24-.03.184-.058.364-.076.523-.035.301-.21.387-.328.445-.032.016-.06.03-.08.045-.022.02.02.054.069.091.059.046.126.097.092.14a.503.503 0 0 1-.211.164c-.035.016-.075.035-.126.066.04.023.224.02.29.02l.02-.001c.36.006.746-.195.725-.21-.326-.237.215-1.556.435-1.698.096-.061.192-.09.287-.12.25-.078.494-.153.71-.808.214-.645 1.764-.69 2.664-.69a4.962 4.962 0 0 1 3.896 1.896c-.3.966-.463 1.994-.463 3.06 0 1.074.165 2.11.47 3.083zM9.084 7.09H7.08v5.818h2.004a2.91 2.91 0 1 0 0-5.818zm-.038-4.197.049-.065.754-1.755-3.04 2.194c.827-.297 1.8-.354 2.237-.374zm1.444.11c.864.157 1.735.594 2.123.794l.072-.033 1.534-1.144-3.73.384zM2.953 13.626l-1.898.225 3.416 1.534c-.669-.568-1.206-1.381-1.442-1.748l-.076-.011zm2.643 2.61-1.53 1.144 3.73-.382c-.863-.157-1.735-.593-2.123-.794l-.077.032zm3.593.936-.75 1.757 3.035-2.196c-.826.298-1.8.354-2.236.374l-.049.065z" fill="#fff"/>
    <path d="m30.446 15.098.005-.007a9.143 9.143 0 1 0-15.169.029l.003.004-.003-.004c.151.223.315.436.484.644h-.004l.017.016a9.131 9.131 0 0 0 14.151.007l.023-.023h-.004c.176-.217.346-.44.503-.673l-.006.007zm-1.825.488h.003l-.018.017-.02-.008-.109-.056a1.528 1.528 0 0 1-.526-.496 1.518 1.518 0 0 1-1.576.663 2.054 2.054 0 0 1-.96-.663 1.534 1.534 0 0 1-2.552 0 1.567 1.567 0 0 1-2.567 0 1.892 1.892 0 0 1-.87.642 1.517 1.517 0 0 1-1.665-.642 1.528 1.528 0 0 1-.526.496l-.108.056-.017.006-.017-.016a8.028 8.028 0 1 1 11.528 0zm.327-.012.177.159a1.514 1.514 0 0 1-.288-.047l.111-.112zm-11.187-.195a1.738 1.738 0 0 0 2.548 0 1.737 1.737 0 0 0 2.547 0 1.738 1.738 0 0 0 2.548 0 1.737 1.737 0 0 0 2.547 0 1.732 1.732 0 0 0 1.274.556c.046 0 .091-.009.137-.013-.073.08-.147.16-.223.238a1.929 1.929 0 0 1-1.169-.456l-.019-.016-.019.016a1.93 1.93 0 0 1-2.51 0l-.018-.016-.02.016a1.93 1.93 0 0 1-2.509 0l-.019-.016-.019.016a1.93 1.93 0 0 1-2.51 0l-.019-.017-.018.017a1.931 1.931 0 0 1-2.51 0l-.02-.017-.018.016a1.93 1.93 0 0 1-1.167.456 9.127 9.127 0 0 1-.221-.236c.044.004.088.012.133.012a1.731 1.731 0 0 0 1.274-.556zm0 1.03a2.118 2.118 0 0 0 2.547 0 2.118 2.118 0 0 0 2.548 0 2.12 2.12 0 0 0 2.548 0 2.118 2.118 0 0 0 2.547.001c.178.135.377.24.588.309-.066.056-.135.11-.203.163a1.9 1.9 0 0 1-.367-.21l-.018-.014-.018.014a2.128 2.128 0 0 1-2.512 0l-.017-.014-.018.014a2.128 2.128 0 0 1-2.512 0l-.018-.014-.018.013a2.128 2.128 0 0 1-2.512 0l-.018-.013-.017.013a2.129 2.129 0 0 1-2.512 0l-.018-.013-.018.013a1.89 1.89 0 0 1-.367.21c-.067-.054-.136-.107-.202-.163.212-.07.41-.174.587-.309zm-.638.264a9.365 9.365 0 0 1-.218-.194c.312-.06.606-.195.856-.392a2.052 2.052 0 0 0 2.547 0 2.053 2.053 0 0 0 2.548 0 2.052 2.052 0 0 0 2.548 0 2.053 2.053 0 0 0 2.547 0c.25.198.544.333.857.393-.071.066-.144.13-.217.193a1.948 1.948 0 0 1-.622-.323l-.018-.014-.018.014a2.06 2.06 0 0 1-2.511 0l-.018-.015-.018.015a2.058 2.058 0 0 1-2.512 0l-.018-.015-.018.015a2.058 2.058 0 0 1-2.511 0l-.019-.015-.018.014a2.06 2.06 0 0 1-2.511 0l-.018-.014-.018.014a1.952 1.952 0 0 1-.62.324zm.638.058a2.19 2.19 0 0 0 2.547 0 2.188 2.188 0 0 0 2.548 0 2.189 2.189 0 0 0 2.548 0 2.19 2.19 0 0 0 2.547 0c.104.076.216.14.333.193-.061.049-.123.097-.185.143-.043-.026-.09-.045-.13-.075l-.018-.012-.017.012a2.2 2.2 0 0 1-2.513 0l-.017-.012-.018.012a2.201 2.201 0 0 1-2.513 0l-.017-.012-.017.012a2.2 2.2 0 0 1-2.513 0l-.018-.012-.017.012a2.2 2.2 0 0 1-2.513 0l-.017-.013-.017.013c-.04.029-.087.049-.13.075a9.226 9.226 0 0 1-.186-.144c.117-.053.229-.117.333-.192zm0 .32a2.262 2.262 0 0 0 2.547 0 2.263 2.263 0 0 0 2.548 0 2.262 2.262 0 0 0 2.548.001 2.262 2.262 0 0 0 2.547 0c.03.021.064.035.094.054a8.831 8.831 0 0 1-.769.503c-.195.053-.396.08-.598.082a2.213 2.213 0 0 1-1.258-.378l-.016-.012-.017.012a2.278 2.278 0 0 1-2.514 0l-.017-.012-.017.012a2.278 2.278 0 0 1-2.514 0l-.017-.012-.016.011c-.371.25-.81.383-1.257.379a2.33 2.33 0 0 1-.597-.082 8.798 8.798 0 0 1-.77-.504c.03-.019.064-.033.093-.053zm8.27 1.158a2.11 2.11 0 0 1-.611-.257l-.016-.01-.016.01a2.443 2.443 0 0 1-2.516 0l-.016-.01-.016.01a2.443 2.443 0 0 1-2.516 0l-.016-.01-.015.01a2.112 2.112 0 0 1-.61.256 8.5 8.5 0 0 1-.41-.17c.368-.031.723-.15 1.035-.346a2.421 2.421 0 0 0 2.548 0 2.42 2.42 0 0 0 2.548 0c.312.197.668.316 1.036.346-.135.06-.271.117-.41.171zm-.612.06-.015-.009-.016.01a2.532 2.532 0 0 1-2.517 0l-.015-.01-.015.01a2.532 2.532 0 0 1-2.517 0l-.016-.01-.015.01c-.058.034-.119.065-.18.092a8.681 8.681 0 0 1-.332-.117c.185-.054.363-.133.527-.234a2.506 2.506 0 0 0 2.548 0 2.506 2.506 0 0 0 2.548 0c.165.102.343.18.529.234-.11.041-.22.081-.332.118a1.93 1.93 0 0 1-.182-.093zm.101.119a8.757 8.757 0 0 1-2.176.4 2.198 2.198 0 0 1-.473-.2l-.015-.01-.015.01c-.15.084-.308.152-.473.2a8.756 8.756 0 0 1-2.175-.4c.038-.02.079-.038.115-.06a2.593 2.593 0 0 0 2.548 0 2.595 2.595 0 0 0 2.548 0c.036.023.077.04.116.06zm1.037-.4a2.255 2.255 0 0 1-1.137-.356l-.016-.01-.017.01a2.36 2.36 0 0 1-2.515 0l-.016-.01-.016.01a2.36 2.36 0 0 1-2.515 0l-.017-.01-.016.01c-.34.218-.732.34-1.136.355a8.806 8.806 0 0 1-.545-.28 2.277 2.277 0 0 0 1.698-.335 2.339 2.339 0 0 0 2.547 0 2.34 2.34 0 0 0 2.548 0 2.276 2.276 0 0 0 1.7.335c-.18.1-.36.194-.547.28zm-3.701.658c.102.058.208.107.318.147-.105.004-.21.009-.317.009-.107 0-.213-.005-.32-.009.11-.04.217-.09.319-.147zm6.006-2.214a1.946 1.946 0 0 1-.892-.405l-.019-.015-.018.015a1.993 1.993 0 0 1-2.51 0l-.02-.015-.018.015a1.993 1.993 0 0 1-2.51 0l-.019-.015-.019.015a1.993 1.993 0 0 1-2.51 0l-.019-.015-.018.015a1.993 1.993 0 0 1-2.51 0l-.02-.016-.018.015a1.942 1.942 0 0 1-.892.404c-.076-.07-.148-.144-.22-.217.414-.028.81-.185 1.13-.449a1.989 1.989 0 0 0 2.548 0 1.989 1.989 0 0 0 2.548 0 1.99 1.99 0 0 0 2.548 0 1.99 1.99 0 0 0 2.547 0c.322.266.718.423 1.133.45-.073.073-.146.147-.222.218zm1.061-2.151-.204.324.44.32-.438.603-.326-.237.155-.213-.113-.082-.237.301.346.312a1.432 1.432 0 0 1-.127.031l-.367-.33.172-.219.064-.081.128-.163.286.207-.155.213.15.11.31-.428-.434-.316.104-.165c.037-.055.07-.112.105-.168l.105-.165.305.176-.131.228.16.093.265-.457-.466-.269.057-.114c.067-.128.131-.258.192-.39l.012-.025.322.144-.107.24.17.076.215-.482-.491-.219.05-.135c.049-.125.095-.251.138-.379l.015-.04.335.11-.08.25.176.058.163-.502-.51-.167.037-.15c.033-.12.064-.241.092-.363l.015-.058.345.074-.055.257.182.039.11-.517-.526-.112.024-.167a8.22 8.22 0 0 0 .046-.316l.014-.1.351.037-.028.262.186.02.055-.526-.535-.056.007-.178c.005-.084.007-.168.01-.253l.006-.158h.352v.263h.187v-.528h-.538l-.011-.17a8.071 8.071 0 0 0-.02-.283l-.008-.135.35-.037.028.262.185-.02-.055-.525-.534.057-.024-.134c-.021-.15-.046-.3-.076-.447l.344-.073.055.257.182-.038-.11-.517-.525.112-.028-.097a8.302 8.302 0 0 0-.132-.47l.335-.11.081.251.177-.057-.163-.503-.511.166-.029-.07a7.991 7.991 0 0 0-.186-.466l-.004-.01.322-.144.107.24.17-.075-.215-.483-.49.219-.057-.106a7.8 7.8 0 0 0-.196-.372l-.023-.043.306-.177.131.228.162-.093-.264-.457-.466.268-.11-.164a8.116 8.116 0 0 0-.164-.245l-.054-.08.286-.208.154.213.151-.109-.31-.427-.435.316-.13-.156a7.982 7.982 0 0 0-.156-.188l-.092-.109.263-.236.176.196.138-.125-.353-.392-.4.36-.128-.126c-.057-.057-.115-.112-.173-.167l-.121-.119.236-.262.196.176.124-.138-.393-.353-.36.4-.11-.089a8.217 8.217 0 0 0-.33-.258l-.022-.018.207-.286.213.155.11-.15-.428-.31-.316.434-.135-.085a8.319 8.319 0 0 0-.328-.206l-.035-.023.176-.305.228.131.093-.16-.457-.265-.27.465-.144-.07a8.235 8.235 0 0 0-.342-.169l-.042-.02.144-.323.24.107.076-.17-.483-.215-.218.491-.139-.05a8.08 8.08 0 0 0-.37-.137l-.044-.016.109-.336.25.082.058-.177-.503-.163-.166.51-.145-.036a7.962 7.962 0 0 0-.355-.09l-.07-.018.073-.345.257.055.039-.182-.517-.11-.112.526-.162-.024a8.145 8.145 0 0 0-.298-.042l-.123-.018.037-.351.262.028.02-.186-.526-.055-.056.535-.18-.007c-.072-.004-.144-.006-.216-.008l-.193-.008v-.353h.263v-.186h-.528v.538l-.177.012c-.082.003-.164.01-.246.016l-.165.011-.037-.35.262-.028-.02-.185-.525.055.056.534-.14.024a8.15 8.15 0 0 0-.44.076l-.074-.345.258-.054-.039-.182-.516.11.111.525-.103.03c-.156.039-.31.082-.464.13l-.109-.335.25-.081-.056-.177-.503.163.166.511-.075.03a8.079 8.079 0 0 0-.457.183l-.015.006-.143-.322.24-.107-.076-.17-.482.215.218.49-.121.065c-.12.06-.238.121-.354.186l-.046.025-.176-.306.228-.132-.093-.16-.458.263.27.466-.169.112c-.08.052-.16.106-.239.16l-.082.056-.208-.286.213-.155-.11-.15-.426.31.316.435-.157.13c-.063.051-.125.103-.186.156l-.11.091-.236-.262.196-.176-.125-.138-.393.353.36.4-.126.13c-.057.055-.112.113-.166.17l-.119.122-.262-.236.176-.196-.138-.124-.354.392.4.36-.087.11c-.09.11-.177.22-.261.333l-.016.02-.286-.207.155-.213-.15-.11-.311.428.435.316-.08.127a7.989 7.989 0 0 0-.214.339l-.02.032-.306-.176.132-.228-.161-.093-.264.457.465.269-.068.14c-.061.115-.119.233-.174.352l-.018.037-.322-.144.107-.24-.17-.076-.215.483.491.218-.048.13a8.27 8.27 0 0 0-.141.385l-.014.038-.336-.109.082-.25-.178-.058-.163.503.512.166-.036.14a7.933 7.933 0 0 0-.094.372l-.015.059-.345-.074.055-.257-.182-.039-.11.517.526.112-.023.156a8.24 8.24 0 0 0-.046.317l-.015.11-.351-.037.027-.262-.185-.02-.055.526.535.056-.007.173a8.239 8.239 0 0 0-.01.25l-.006.166h-.353V9.67h-.186v.528h.538l.01.161c.005.106.013.21.021.316l.008.11-.351.038-.028-.262-.185.02.056.525.534-.056.02.12c.023.154.05.305.08.455v.005l-.345.073-.055-.257-.181.039.11.516.525-.111.023.08c.038.155.083.308.13.46l.008.027-.336.108-.081-.25-.177.058.163.502.511-.166.058.144c.043.117.09.232.138.346l.023.057-.322.143-.107-.24-.17.075.214.483.491-.219.092.175c.04.079.082.157.124.234l.06.113-.306.176-.132-.228-.161.093.264.457.466-.268.107.16.09.134.13.195-.285.208-.155-.213-.15.11.31.426.435-.316.377.453-.262.236-.176-.196-.138.125.046.052a1.447 1.447 0 0 1-.195-.064l.295-.266.176.196.104-.094-.245-.294-.44.32-.439-.603.326-.237.155.213.113-.082-.213-.318-.472.272-.372-.646.349-.201.131.228.122-.07-.18-.34-.497.222-.303-.68.369-.165.107.241.127-.057-.142-.356-.518.169-.23-.71.383-.124.082.25.133-.043-.105-.368-.532.113-.155-.73.394-.083.055.258.137-.03-.066-.377-.541.057-.078-.741.401-.043.027.262.14-.014-.026-.383h-.544v-.745h.403v.263h.14l.014-.382-.541-.057.078-.742.4.042-.027.262.14.015.054-.38-.533-.112.155-.73.395.084-.055.258.137.029.093-.372-.517-.168.23-.709.383.125-.081.25.133.044.132-.36-.497-.221.303-.681.368.164-.107.24.128.057.169-.344-.471-.272.372-.646.35.202-.132.228.12.07.205-.324-.44-.32.437-.603.327.237-.155.213.113.082.237-.301-.405-.365.499-.554.3.27-.177.196.104.094.267-.275-.364-.405.554-.499.27.3-.196.176.093.104.295-.245-.32-.44.603-.439.237.326-.213.155.082.113.319-.213-.273-.471.646-.373.201.349-.228.132.07.12.34-.178-.222-.497.68-.304.164.369-.24.107.057.128.355-.143-.168-.518.71-.23.124.384-.25.081.042.133.37-.104-.114-.533.729-.155.084.394-.258.055.03.137.377-.065-.057-.542.741-.078.042.401-.261.028.014.139.382-.026v-.544h.746V1.6h-.264v.14l.383.014.057-.541.741.078-.042.4-.262-.027-.014.14.38.054.112-.533.73.155-.084.395-.258-.055-.03.137.372.094.169-.518.709.23-.125.384-.25-.082-.044.133.36.132.221-.497.681.303-.164.368-.24-.107-.057.128.344.17.272-.472.645.372-.201.35-.228-.132-.07.12.324.205.32-.44.603.438-.237.326-.213-.155-.082.113.301.237.364-.405.554.5-.27.299-.195-.176-.094.103.275.268.405-.365.498.554-.3.27-.175-.196-.104.094.245.294.44-.32.439.603-.326.237-.155-.213-.114.082.214.319.471-.273.373.646-.35.201-.13-.228-.122.07.179.34.497-.222.303.68-.368.165-.107-.24-.128.056.143.356.517-.169.23.71-.383.124-.081-.25-.133.043.104.368.533-.113.155.73-.395.083-.054-.258-.137.03.065.377.542-.057.078.741-.401.043-.028-.262-.139.014.026.383h.544v.745h-.403v-.263h-.14l-.015.382.542.057-.078.742-.4-.042.027-.262-.14-.015-.054.38.533.113-.155.729-.395-.084.055-.258-.137-.029-.094.372.518.168-.23.709-.384-.125.082-.25-.133-.043-.132.36.497.22-.303.681-.369-.164.108-.24-.128-.057-.17.344.472.272-.372.646-.35-.202.132-.228-.121-.07z" fill="#fff"/>
    <path d="M30.731 10.56a8.36 8.36 0 0 0 .018-.396h-.088v-.43h.085a8.076 8.076 0 0 0-.023-.396l-.088.01-.045-.429.086-.009a7.757 7.757 0 0 0-.064-.391l-.087.019-.09-.421.085-.018a7.763 7.763 0 0 0-.104-.383l-.086.028-.133-.409.083-.027a7.88 7.88 0 0 0-.144-.37l-.083.037-.175-.392.08-.036a7.579 7.579 0 0 0-.183-.352l-.077.045-.215-.373.074-.043a7.912 7.912 0 0 0-.218-.33l-.072.051-.252-.347.07-.051a8.028 8.028 0 0 0-.253-.307l-.065.06-.288-.32.063-.057a7.873 7.873 0 0 0-.282-.278l-.059.065-.32-.288.058-.063a7.932 7.932 0 0 0-.31-.248l-.052.072-.348-.253.051-.07a7.902 7.902 0 0 0-.333-.214l-.045.077-.373-.215.044-.075a7.816 7.816 0 0 0-.355-.178l-.036.082-.393-.175.035-.08a7.825 7.825 0 0 0-.37-.14l-.029.086-.409-.133.028-.083a7.887 7.887 0 0 0-.384-.1l-.02.088-.42-.09.018-.084a7.934 7.934 0 0 0-.392-.06l-.01.09-.427-.046.01-.085a8.078 8.078 0 0 0-.397-.018v.088h-.43V2.11a7.98 7.98 0 0 0-.396.023l.01.088-.428.045-.01-.086c-.13.018-.261.04-.39.064l.018.088-.42.09-.019-.086a7.817 7.817 0 0 0-.382.105l.028.085-.41.133-.027-.083a7.842 7.842 0 0 0-.369.144l.037.083-.393.175-.035-.08a7.76 7.76 0 0 0-.353.183l.045.078-.372.215-.043-.075a8.02 8.02 0 0 0-.331.218l.052.072-.348.253-.05-.07a8.141 8.141 0 0 0-.307.252l.06.066-.32.287-.058-.063a7.867 7.867 0 0 0-.278.282l.065.059-.287.32-.064-.058a7.923 7.923 0 0 0-.248.31l.072.052-.253.348-.07-.051c-.074.11-.145.22-.214.334l.078.045-.215.372-.076-.044a7.791 7.791 0 0 0-.178.355l.083.036-.175.393-.08-.035c-.05.122-.097.246-.14.37l.086.029-.133.409-.083-.027c-.037.126-.07.254-.1.384l.088.018-.09.421-.085-.018c-.023.13-.043.26-.059.392l.089.01-.045.427-.086-.009c-.009.131-.015.263-.017.396h.088v.43h-.086c.005.133.012.265.023.396l.088-.01.045.428-.085.01c.018.131.04.262.064.39l.087-.018.09.42-.086.019c.032.129.067.256.105.383l.086-.028.133.409-.084.027c.046.124.094.248.145.37l.082-.038.175.393-.08.036c.059.119.12.236.183.352l.078-.045.215.372-.075.044c.07.112.143.222.218.33l.072-.052.253.348-.07.05c.082.105.166.207.252.307l.066-.059.244.27.026.005c.174-.108.323-.253.436-.424l.109-.168.107.17a1.389 1.389 0 0 0 1.522.586l.043-.016c.001-.014.002-.003.003-.016.015-.215.013-.43-.006-.645-.085-.901.06-2.253.498-2.981.824-1.37.852-2.046.73-2.372a1.034 1.034 0 0 0-.594-.545 1.115 1.115 0 0 0-.298-.086v-.001l-1.038-.077.8.242c-.47.061-.901.296-1.208.658a6.408 6.408 0 0 1-.084.118l-.018.026a2.217 2.217 0 0 0-.46.875c-.002.08.02.157.063.224a.822.822 0 0 1-.688.004.603.603 0 0 0 .258-.159 1.2 1.2 0 0 0 .21-.408c.042-.116.09-.23.137-.338.116-.27.207-.484.125-.596-.042-.057-.12-.078-.24-.066-.3.02-1.14.467-1.158.71a.28.28 0 0 0 .015.098.567.567 0 0 1-.14-.058.212.212 0 0 0-.17-.023.13.13 0 0 0-.082.075.368.368 0 0 0 .043.275 1.997 1.997 0 0 1-.563-.376.154.154 0 0 1-.059-.123.241.241 0 0 1 .094-.151.254.254 0 0 1 .077-.027c.072-.018 1.008-.672 1.09-.742l.047-.041-.06-.021c-.103-.036-.157-.076-.164-.122-.016-.096.172-.23.431-.417l.038-.026a4.373 4.373 0 0 0 1.59-1.86c.038-.098.07-.198.097-.3.01-.059.017-.118.02-.176.014.04.028.09.04.146.075.461.04.934-.101 1.38l-.02.062.063-.016c.004 0 .004 0 1.668-.724l-.272.589.051.005c.263.022.521.086.765.188.49.207.905.558 1.191 1.006a20.402 20.402 0 0 0-.175.388 8.077 8.077 0 0 0-.779 2.823c-.057.63.005 1.265.183 1.872a7.468 7.468 0 0 1-.047-1.228 8.96 8.96 0 0 1 .87-3.29l.032-.074c.057-.138.12-.279.176-.404l.003-.006c.277-.62.539-1.205.442-1.806a1.317 1.317 0 0 0-.467-.837l-.303-.433.343.888a2.188 2.188 0 0 0-1.326-.61l-.065.001c-.05.004-.106.006-.166.008l-.028.001a2.433 2.433 0 0 0-1.064.193.428.428 0 0 0-.152.208.929.929 0 0 1-.476-.605.66.66 0 0 0 .318.12c.169.002.336-.03.493-.093.128-.043.259-.077.386-.11.31-.083.555-.148.596-.293.02-.073-.014-.154-.104-.248-.22-.246-1.171-.67-1.39-.521a.308.308 0 0 0-.079.083.626.626 0 0 1-.047-.167.23.23 0 0 0-.093-.16.137.137 0 0 0-.117-.02.409.409 0 0 0-.21.23 2.164 2.164 0 0 1-.058-.75.171.171 0 0 1 .068-.137.265.265 0 0 1 .197-.022.275.275 0 0 1 .076.05c.064.05 1.26.417 1.376.44l.061.012-.02-.06c-.04-.116-.041-.189-.005-.228.074-.08.318-.009.655.09l.048.015a5.098 5.098 0 0 0 2.757.102c.11-.034.219-.073.324-.12a1.44 1.44 0 0 0 .181-.111c-.034.052-.07.102-.11.15-.356.359-.782.64-1.251.827l-.082.034 1.984.84-.879.125.03.048c.165.259.284.545.349.846.107.485.11 1.39-.493 2.942a5.527 5.527 0 0 0-.387 2.517c.071.615.251 1.213.532 1.765a5.633 5.633 0 0 1-.34-1.928c.009-.78.163-1.55.454-2.274.323-.83.662-1.86.569-2.711a2.12 2.12 0 0 1 1.018-.255c.118 0 .236.008.353.025l.057.008-.188-.605 1.448 1.105.06.04-.003-.072c-.008-.413.07-.825.226-1.208.023-.05.045-.092.065-.124a1.31 1.31 0 0 0-.016.166c.003.1.013.2.028.3a4.278 4.278 0 0 0 1.082 2.098l.03.033c.204.228.352.393.317.48-.016.04-.075.066-.179.079l-.062.007.038.05c.061.084.806.893.87.925.024.01.047.024.067.041a.228.228 0 0 1 .055.16.146.146 0 0 1-.08.102c-.186.112-.39.192-.603.236a.352.352 0 0 0 .096-.249.124.124 0 0 0-.062-.088.205.205 0 0 0-.165-.013.536.536 0 0 1-.141.025.263.263 0 0 0 .033-.088c.034-.231-.664-.828-.94-.908a.24.24 0 0 0-.242.012c-.101.089-.06.308-.007.587.021.112.043.228.058.347.01.148.048.293.113.427.05.084.122.153.207.201a.792.792 0 0 1-.64-.146.379.379 0 0 0 .105-.197 2.14 2.14 0 0 0-.25-.919 6.68 6.68 0 0 1-.066-.156 1.829 1.829 0 0 0-.994-.867l.817-.063-.807-.137a.975.975 0 0 0-.938.09 1.151 1.151 0 0 0-.508.938c-.034.37.003 1.188.634 2.51.411.95.598 1.982.547 3.015-.01.159-.018.335-.012.537 0 .013.001 0 .002.014l.042.014a1.411 1.411 0 0 0 .93-.143c.204-.111.377-.271.503-.466l.107-.166.107.165c.123.188.288.344.482.455l.032.015s.016.009.021.003l.019-.02-.066-.058.288-.32.064.058a7.93 7.93 0 0 0 .247-.31l-.071-.052.252-.348.07.05c.075-.108.146-.22.215-.333l-.078-.045.215-.372.075.043c.063-.116.122-.234.178-.354l-.082-.037.175-.393.08.036c.05-.122.096-.246.14-.371l-.086-.028.133-.409.083.027a7.91 7.91 0 0 0 .1-.384l-.088-.018.09-.421.085.018c.022-.13.042-.26.059-.392l-.09-.01.046-.427.085.009zM40.676 12.177v.574c0 .798-.294 1.372-1.288 1.372s-1.288-.574-1.288-1.372V7.249c0-.672.294-1.372 1.288-1.372s1.288.7 1.288 1.372v.434h2.1v-.49c0-1.624-.868-2.674-3.388-2.674S36 5.569 36 7.193v5.614c0 1.624.742 2.674 3.388 2.674s3.388-1.05 3.388-2.674v-.63h-2.1zM51.225 7.193c0-1.624-.868-2.674-3.388-2.674s-3.388 1.05-3.388 2.674v5.614c0 1.624.868 2.674 3.388 2.674s3.388-1.05 3.388-2.674V7.193zm-2.1 5.558c0 .672-.294 1.372-1.288 1.372s-1.288-.7-1.288-1.372V7.249c0-.672.294-1.372 1.288-1.372s1.288.7 1.288 1.372v5.502zM55.355 4.729h-2.1v10.542h2.1V4.729zM64.187 15.271V7.193c0-1.624-.868-2.674-3.388-2.674s-3.388 1.05-3.388 2.674v8.078h2.1V7.249c0-.672.294-1.372 1.288-1.372s1.288.7 1.288 1.372v8.022h2.1z" fill="#fff"/>
</svg>
