<svg viewBox="0 0 107 20" fill="none" xmlns="http://www.w3.org/2000/svg">
  <path d="M28.96 12.48v.699c0 1.798-.7 2.961-3.19 2.961s-3.19-1.163-3.19-2.961V6.96c0-1.798.818-2.961 3.19-2.961s3.19 1.163 3.19 2.961v.543h-1.977v-.48c0-.745-.277-1.52-1.213-1.52s-1.212.775-1.212 1.52v6.093c0 .883.276 1.52 1.212 1.52.936 0 1.213-.637 1.213-1.52v-.636h1.977zM36.918 13.179c0 1.798-.817 2.961-3.19 2.961-2.371 0-3.188-1.163-3.188-2.961V6.96c0-1.798.817-2.961 3.189-2.961s3.19 1.163 3.19 2.961v6.218zm-1.977-6.156c0-.744-.276-1.52-1.212-1.52-.936 0-1.212.776-1.212 1.52v6.094c0 .744.276 1.52 1.212 1.52.936 0 1.212-.776 1.212-1.52V7.023zM38.828 4.232h1.977v10.171h3.426v1.504h-5.403V4.232zM45.615 4.232h1.976v10.171h3.427v1.504h-5.403V4.232zM52.4 4.232h5.272v1.504h-3.294v3.302h3.097v1.504h-3.097v3.861h3.426v1.504h-5.403V4.232zM65.698 12.48v.699c0 1.798-.7 2.961-3.19 2.961s-3.19-1.163-3.19-2.961V6.96c0-1.798.818-2.961 3.19-2.961s3.19 1.163 3.19 2.961v.543H63.72v-.48c0-.745-.277-1.52-1.213-1.52s-1.212.775-1.212 1.52v6.093c0 .883.276 1.52 1.212 1.52.936 0 1.213-.637 1.213-1.52v-.636h1.977zM66.685 4.232h6.379v1.504h-2.201v10.171h-1.977V5.737h-2.2V4.231zM76.357 15.907h-1.976V4.232h1.976v11.675zM84.844 13.023c0 1.814-.83 2.884-3.058 2.884h-3.453V4.232h3.19c2.227 0 3.057 1.116 3.057 2.915v.62c0 1.101-.448 1.814-1.146 2.109.896.31 1.41 1.147 1.41 2.264v.883zm-4.534-3.69h1.015c.883 0 1.278-.574 1.278-1.566V7.24c0-1.008-.421-1.504-1.278-1.504H80.31v3.597zm1.278 5.07c.857 0 1.279-.511 1.279-1.535v-.558c0-1.023-.422-1.535-1.279-1.535H80.31v3.628h1.278zM86.556 4.232h1.977v10.171h3.426v1.504h-5.403V4.232zM93.343 4.232h5.271v1.504h-3.295v3.302h3.097v1.504H95.32v3.861h3.427v1.504h-5.403V4.232zM101.974 12.543v.574c0 .744.276 1.52 1.212 1.52.936 0 1.213-.776 1.213-1.52v-.466c0-.93-.291-1.349-1.121-1.72l-1.542-.714a2.695 2.695 0 0 1-1.673-2.605v-.65c0-1.799.83-2.962 3.057-2.962 2.162 0 2.992 1.163 2.992 2.961v.543h-1.977v-.48c0-.884-.237-1.52-1.015-1.52-.83 0-1.081.636-1.081 1.52v.356c0 .698.369 1.085.989 1.395l1.621.79c.949.45 1.726 1.04 1.726 2.652v.962c0 1.798-.817 2.961-3.189 2.961s-3.19-1.163-3.19-2.961v-.636h1.978zM9.047 7.72a.49.49 0 1 0 0 .98.49.49 0 0 0 0-.98z" fill="#fff"/>
  <path d="M1.149 5.44v9.12l7.898 4.56 7.899-4.56V5.44L9.047.88 1.15 5.44zm9.128-3.502.322 1.368c.082.24.208.462.371.656.233.241 2.378 1.714 2.39 4.272a3.602 3.602 0 0 1-.992 2.493c-.234.222-.453.46-.654.712-.015-.19 0-.383.043-.57 0 0 .039-.165-.188-.143-.219.013-.5.448-.68.767-.09.172-.405.386-.756.817v-1.63s1.578-.593 1.728-2.211h-.121c-.012.126-.04.25-.08.37 0 0-.48.009-.045.147a2.4 2.4 0 0 1-.268.547.586.586 0 0 1-.524.291c-.201-.032-.352-.084-.387.065-.035.148.108.143.146.119.038-.025.072-.07.06-.099 0 0 .146.111-.007.274a.233.233 0 0 1-.32.03s-.146-.095-.076-.368a.415.415 0 0 1 .209-.282.246.246 0 0 1 .09-.227.179.179 0 0 1 .202-.024s-.185.073-.015.234c0 0 .257-.007.304-.174.048-.168-.093-.274-.172-.356a3.032 3.032 0 0 0-.238-.206.183.183 0 0 1-.057-.109l-.106-.058a1.476 1.476 0 0 1-1.052.997l.002.157a.2.2 0 0 0 .11.077.312.312 0 0 1 .22.257.195.195 0 0 1-.24.196s-.096-.018-.029.088c.067.107.145.223.145.223l-.16.15.002.517-.065.033.003.085.076.024.004.051a.248.248 0 0 1 .109.236.211.211 0 0 1-.187.155l.045.048.002.242s.081.048-.006.099l.003.078.042.038.004.119.106.168-.008.037-.06.064.033.036.018.048-.1.147v4.433l.098.184s.04.015.04.174c0 0 .06.332-.08.332 0 0-.076.219-.484.219s-.483-.22-.483-.22c-.136 0-.08-.331-.08-.331 0-.16.04-.173.04-.173l.098-.185v-4.433l-.1-.147.018-.048.033-.036-.06-.064-.009-.037.107-.168.004-.12.042-.037.003-.078c-.088-.05-.006-.1-.006-.1l.002-.24.045-.049a.21.21 0 0 1-.187-.155.247.247 0 0 1 .11-.236l.003-.05.076-.025.003-.085-.065-.034.002-.517-.16-.149.145-.223c.067-.105-.029-.088-.029-.088a.195.195 0 0 1-.24-.196.312.312 0 0 1 .22-.257.2.2 0 0 0 .11-.077l.002-.157a1.476 1.476 0 0 1-1.053-.997l-.105.058a.183.183 0 0 1-.058.109 3.024 3.024 0 0 0-.237.206c-.079.082-.22.188-.173.356.048.167.305.174.305.174.17-.161-.015-.234-.015-.234a.178.178 0 0 1 .201.024.247.247 0 0 1 .09.227.415.415 0 0 1 .21.282c.07.272-.077.368-.077.368a.233.233 0 0 1-.319-.03c-.153-.163-.007-.274-.007-.274-.012.029.022.074.06.099.038.024.18.029.146-.12-.036-.148-.186-.096-.387-.064a.585.585 0 0 1-.524-.292 2.4 2.4 0 0 1-.268-.546c.435-.138-.044-.148-.044-.148a1.582 1.582 0 0 1-.08-.37h-.122c.15 1.62 1.728 2.211 1.728 2.211v1.63c-.35-.43-.666-.644-.756-.816-.18-.32-.461-.754-.68-.768-.227-.02-.189.145-.189.145.044.186.059.378.044.569a7.07 7.07 0 0 0-.654-.712 3.603 3.603 0 0 1-.992-2.493c.012-2.558 2.157-4.031 2.39-4.272.163-.194.289-.416.37-.656l.323-1.368a5.893 5.893 0 0 1 .461 3.62l-.356.162c-1.369.685-1.64 1.756-1.691 2.243h.12c.027-.243.09-.48.188-.705.307.059.066-.124.066-.124.056-.145.134-.28.231-.4a.498.498 0 0 1 .595-.168c.194.088.277.01.302-.017.025-.025.041-.098-.048-.135-.088-.037-.171.074-.171.074a.196.196 0 0 1 .207-.296c.122.026.224.114.239.331a.408.408 0 0 1-.207.343c-.031.21-.16.214-.266.228-.107.015-.026-.07.024-.097.05-.028.01-.168-.134-.174a.25.25 0 0 0-.172.431l.3.34v.167l.13.022a1.474 1.474 0 0 1 2.822 0l.13-.022.002-.167.3-.34a.25.25 0 0 0-.173-.431c-.145.006-.184.146-.134.174.05.028.131.112.024.097-.107-.014-.235-.019-.266-.228a.408.408 0 0 1-.207-.343c.015-.217.117-.305.239-.33a.196.196 0 0 1 .207.295s-.083-.11-.172-.074c-.088.037-.072.11-.047.135.025.026.108.105.302.017a.498.498 0 0 1 .595.167c.097.12.175.256.23.4 0 0-.24.184.067.125.098.224.161.462.189.705h.119c-.05-.487-.323-1.558-1.692-2.243l-.355-.162a5.894 5.894 0 0 1 .461-3.62z" fill="#fff"/>
  <path d="M9.047 0 .387 5v10l8.66 5 8.66-5V5l-8.66-5zm7.994 14.615-.023.014-7.97 4.602-.024-.014-7.97-4.602v-9.23l.023-.014L9.047.769l.024.014 7.97 4.601v9.231z" fill="#fff"/>
</svg>
