<svg width="20" height="21" viewBox="0 0 20 21" fill="none" xmlns="http://www.w3.org/2000/svg">
<path fill-rule="evenodd" clip-rule="evenodd" d="M19.7337 2.05192C20.0888 1.69689 20.0888 1.12129 19.7337 0.766267C19.3787 0.411244 18.8031 0.411244 18.4481 0.766267L10 9.21435L1.55192 0.766267C1.19689 0.411244 0.621289 0.411244 0.266267 0.766267C-0.0887555 1.12129 -0.0887555 1.69689 0.266267 2.05192L8.71435 10.5L0.266267 18.9481C-0.0887555 19.3031 -0.0887555 19.8787 0.266267 20.2337C0.621289 20.5888 1.19689 20.5888 1.55192 20.2337L10 11.7856L18.4481 20.2337C18.8031 20.5888 19.3787 20.5888 19.7337 20.2337C20.0888 19.8787 20.0888 19.3031 19.7337 18.9481L11.2856 10.5L19.7337 2.05192Z" fill="#4F4F4F"/>
</svg>
