<svg width="22" height="22" viewBox="0 0 22 22" fill="none" xmlns="http://www.w3.org/2000/svg">
<path fill-rule="evenodd" clip-rule="evenodd" d="M0 2.40909C0 1.35473 0.856499 0.5 1.91304 0.5H6.69565C7.22392 0.5 7.65217 0.927365 7.65217 1.45455C7.65217 1.98173 7.22392 2.40909 6.69565 2.40909H1.91304V6.22727C1.91304 6.75445 1.48479 7.18182 0.956522 7.18182C0.428249 7.18182 0 6.75445 0 6.22727V2.40909Z" fill="#2A3448"/>
<path fill-rule="evenodd" clip-rule="evenodd" d="M0 19.5909C0 20.6453 0.856499 21.5 1.91304 21.5H6.69565C7.22392 21.5 7.65217 21.0726 7.65217 20.5455C7.65217 20.0183 7.22392 19.5909 6.69565 19.5909H1.91304V15.7727C1.91304 15.2455 1.48479 14.8182 0.956522 14.8182C0.428249 14.8182 0 15.2455 0 15.7727V19.5909Z" fill="#2A3448"/>
<path fill-rule="evenodd" clip-rule="evenodd" d="M22 19.5909C22 20.6453 21.1435 21.5 20.087 21.5H15.3043C14.7761 21.5 14.3478 21.0726 14.3478 20.5455C14.3478 20.0183 14.7761 19.5909 15.3043 19.5909H20.087V15.7727C20.087 15.2455 20.5152 14.8182 21.0435 14.8182C21.5718 14.8182 22 15.2455 22 15.7727V19.5909Z" fill="#2A3448"/>
<path fill-rule="evenodd" clip-rule="evenodd" d="M22 2.40909C22 1.35473 21.1435 0.5 20.087 0.5H15.3043C14.7761 0.5 14.3478 0.927365 14.3478 1.45455C14.3478 1.98173 14.7761 2.40909 15.3043 2.40909H20.087V6.22727C20.087 6.75445 20.5152 7.18182 21.0435 7.18182C21.5718 7.18182 22 6.75445 22 6.22727V2.40909Z" fill="#2A3448"/>
<path fill-rule="evenodd" clip-rule="evenodd" d="M1.43457 11.0004C1.43457 10.4733 1.86282 10.0459 2.39109 10.0459H19.6085C20.1368 10.0459 20.565 10.4733 20.565 11.0004C20.565 11.5276 20.1368 11.955 19.6085 11.955H2.39109C1.86282 11.955 1.43457 11.5276 1.43457 11.0004Z" fill="#2A3448"/>
</svg>
