<svg width="20" height="22" viewBox="0 0 20 22" fill="none" xmlns="http://www.w3.org/2000/svg">
<path d="M6 10.6667L8.85714 14L14 8" stroke="#2A3448" stroke-width="1.5" stroke-linecap="round"/>
<path d="M19.2494 12.8841V12.8878L19.2494 12.8955L19.2497 12.9145C19.2497 12.9145 19.2497 12.9145 19.2497 12.9146C19.2497 12.9146 19.2497 12.9146 19.2497 12.9146C19.2507 12.9551 19.272 14.198 18.6634 15.5458C18.0705 16.8589 16.8746 18.295 14.3536 18.8183C12.6864 19.1643 11.171 19.9005 10.0011 20.9463C8.83223 19.898 7.3149 19.1614 5.64559 18.8181C3.12514 18.2947 1.92944 16.8588 1.33658 15.5458C0.727111 14.1961 0.749405 12.9515 0.750296 12.9145L0.7506 12.8955L0.750627 12.8879L0.750627 12.8841V3.89304C6.07735 3.74063 8.87555 1.98416 10 1.03843C11.1244 1.98416 13.9227 3.74063 19.2494 3.89304V12.8841Z" stroke="#2A3448" stroke-width="1.5"/>
</svg>
