<svg viewBox="0 0 670 114" fill="none" xmlns="http://www.w3.org/2000/svg">
  <path d="M254.775 19.024c0 2.304-1.32 3.528-3.336 3.528h-3.072V9.376h3.072c2.016 0 3.336 1.32 3.336 3.528v6.12zm3.36-6.312c0-3.336-2.232-5.784-6.36-5.784h-6.768V25h6.768c4.128 0 6.36-2.328 6.36-5.784v-6.504zm8.918 4.968 4.128 7.32h3.744l-4.464-7.704c1.944-.552 3.312-1.92 3.312-4.392v-1.2c0-2.904-1.896-4.776-5.568-4.776h-7.008V25h3.36v-7.32h2.496zm-2.496-8.304h2.832c2.184 0 3.024 1.344 3.024 2.616v.624c0 1.248-.984 2.616-3.024 2.616h-2.832V9.376zM287.837 25h3.432l-5.136-18.072h-5.136L275.861 25h3.408l1.296-4.992h5.952l1.32 4.992zm-4.488-15.504h.432l2.136 8.184h-4.728l2.16-8.184zm16.185 15.864c4.512 0 6.504-1.992 6.504-5.664h-3.36c0 2.184-.864 3.216-3.144 3.216-2.112 0-3.384-1.056-3.384-3.672v-6.552c0-2.616 1.08-3.672 3.192-3.672 2.136 0 3.192 1.152 3.192 3h3.36c0-3.168-2.184-5.448-6.552-5.448-4.44 0-6.552 2.232-6.552 5.784v7.224c0 3.552 2.304 5.784 6.744 5.784zm18.684-6.12c0 2.4-1.152 3.672-3.264 3.672s-3.264-1.272-3.264-3.672v-6.552c0-2.4 1.152-3.672 3.264-3.672s3.264 1.272 3.264 3.672v6.552zm3.36-6.648c0-3.816-2.4-6.024-6.624-6.024s-6.624 2.208-6.624 6.024v6.744c0 3.816 2.4 6.024 6.624 6.024s6.624-2.208 6.624-6.024v-6.744zm13.039-5.664h-3.36V25h3.36V6.928zM341.29 25v-8.208c0-1.44.792-2.424 2.256-2.424 1.512 0 2.28.984 2.28 2.424V25h3.312v-8.328c0-2.544-1.656-4.656-4.44-4.656-1.848 0-3.024.72-3.768 1.656l-.384-1.296h-2.568V25h3.312zm10.892-12.624V25h3.312V12.376h-3.312zm3.384-2.184V6.76h-3.456v3.432h3.456zm3.788-1.752v3.936h-2.352v2.352h2.352V21.4c0 2.592 1.152 3.96 3.744 3.96h2.688v-2.352h-1.488c-1.08 0-1.632-.432-1.632-1.656v-6.624h3.048v-2.352h-3.048V8.44h-3.312zm8.274 3.936V25h3.312V12.376h-3.312zm3.384-2.184V6.76h-3.456v3.432h3.456zM384.487 25v-8.856c0-2.448-1.992-4.128-5.256-4.128-3.312 0-5.184 1.704-5.184 3.936h3.312c0-.936.624-1.584 1.896-1.584 1.224 0 1.92.672 1.92 1.896v1.272h-2.544c-3.504 0-5.04 1.656-5.04 3.696v.288c0 2.4 1.608 3.84 4.272 3.84 1.92 0 3.168-.816 3.672-1.656l.384 1.296h2.568zm-7.584-3.72c0-1.032.792-1.728 2.328-1.728h1.944v1.2c0 1.44-.864 2.256-2.4 2.256-1.176 0-1.872-.552-1.872-1.584v-.144zm11.138-12.84v3.936h-2.352v2.352h2.352V21.4c0 2.592 1.152 3.96 3.744 3.96h2.688v-2.352h-1.488c-1.08 0-1.632-.432-1.632-1.656v-6.624h3.048v-2.352h-3.048V8.44h-3.312zm8.274 3.936V25h3.312V12.376h-3.312zm3.384-2.184V6.76h-3.456v3.432h3.456zM408.935 25l4.416-12.624h-3.384l-2.784 9.264-2.784-9.264h-3.384L405.431 25h3.504zm13.383-3.504v.048c0 .768-.648 1.464-2.208 1.464-1.44 0-2.208-.84-2.208-2.304v-1.176h7.608v-3.072c0-2.664-2.112-4.44-5.472-4.44-3.36 0-5.472 1.8-5.472 4.56v4.128c0 3.048 1.92 4.656 5.496 4.656 3.816 0 5.424-1.704 5.424-3.624v-.24h-3.168zm-4.44-4.968c.072-1.632.792-2.328 2.16-2.328s2.16.696 2.16 2.328v.984h-4.32v-.984zM36.635 62.032c0-7.744-4.352-12.224-14.848-12.224H5.019V98h16.768c10.496 0 14.848-4.16 14.848-11.584V62.032zm-22.016-6.016h6.528c4.544 0 5.888 1.984 5.888 6.272V85.52c0 4.352-1.92 6.272-6.528 6.272h-5.888V56.016zM80.389 98l-6.207-16.576c-1.408-3.648-2.56-4.864-5.312-5.696 4.096-.832 7.36-3.52 7.36-9.344v-4.992c0-7.36-5.056-11.584-13.568-11.584H45.894V98h9.6V77.968h4.096c3.072 0 3.904.832 5.12 4.096L70.47 98h9.92zM55.495 56.016h5.248c4.544 0 5.888 2.56 5.888 5.632v4.48c0 2.88-1.344 5.632-5.888 5.632h-5.248V56.016zm41.013 20.928 3.328-20.928h3.456l3.328 20.928H96.507zm11.008 6.208L109.819 98h9.984l-8.256-48.192H91.579L83.323 98h9.984l2.304-14.848h11.904zm28.479-33.344h-9.6V98h9.6V49.808zM176.365 98V61.072c0-7.424-3.968-12.224-15.488-12.224s-15.488 4.8-15.488 12.224V98h9.6V61.328c0-3.072 1.344-6.272 5.888-6.272s5.888 3.2 5.888 6.272V98h9.6zm17.724-6.72v-9.472h-9.472v9.472h9.472zm0-23.936v-9.472h-9.472v9.472h9.472zm56.921 15.104c0-4.608-2.496-8.064-6.848-9.344 3.392-1.216 5.568-4.16 5.568-8.704v-2.56c0-7.424-4.032-12.032-14.848-12.032h-15.488V98h16.768c10.816 0 14.848-4.416 14.848-11.904v-3.648zm-22.016 9.344V76.816h6.208c4.16 0 6.208 2.112 6.208 6.336v2.304c0 4.224-2.048 6.336-6.208 6.336h-6.208zm0-35.776h4.928c4.16 0 6.208 2.048 6.208 6.208V64.4c0 4.096-1.92 6.464-6.208 6.464h-4.928V56.016zM271.619 93.2c-3.264 0-4.544-1.664-4.544-4.16V64.336h-9.088v24.256c0 6.144 3.584 10.368 10.56 10.368 3.648 0 6.848-1.28 8.32-3.264l.64 2.304h7.808V64.336h-9.088V89.04c0 2.496-1.344 4.16-4.608 4.16zm38.985-28.864V88.72c0 2.496-1.344 4.48-4.608 4.48-3.264 0-4.608-1.984-4.608-4.48V64.336H292.3v24.576c0 5.888 4.096 10.048 10.816 10.048 4.288 0 6.464-1.28 7.488-2.752v8c0 2.496-1.536 3.968-4.544 3.968-3.008 0-4.544-1.728-4.544-3.968v-.704h-9.088v.704c0 6.144 4.416 9.728 13.376 9.728 8.96 0 13.888-3.584 13.888-9.728V64.336h-9.088zm16.967-14.976V98h7.68l.64-2.944c1.472 2.24 3.904 3.904 8.256 3.904 6.72 0 10.816-4.16 10.816-10.048V73.424c0-5.952-4.16-10.048-10.88-10.048-4.416 0-6.4 1.472-7.424 2.688V49.36h-9.088zm13.696 19.776c3.072 0 4.608 1.984 4.608 4.48V88.72c0 2.496-1.536 4.48-4.608 4.48-3.072 0-4.608-1.984-4.608-4.48V73.616c0-2.496 1.536-4.48 4.608-4.48zM388.617 98V73.104c0-6.144-4.928-9.728-12.928-9.728s-12.928 3.584-12.928 9.728v.576h9.088v-.384c0-2.496 1.216-4.16 3.84-4.16 2.624 0 3.84 1.664 3.84 4.16v4.608h-5.76c-8.768 0-12.288 4.16-12.288 9.536v1.792c0 6.144 4.16 9.728 10.88 9.728 3.84 0 6.848-1.6 7.936-3.904l.64 2.944h7.68zm-18.048-10.24c0-2.56 1.536-4.48 4.864-4.48h4.096v5.696c0 2.368-1.472 4.224-4.48 4.224-3.008 0-4.48-1.792-4.48-4.288V87.76zm42.579-1.28v2.56c0 2.496-1.216 4.16-4.288 4.16s-4.288-1.664-4.288-4.16V73.296c0-2.496 1.216-4.16 4.288-4.16s4.288 1.664 4.288 4.16v.576h9.088v-.768c0-6.144-4.608-9.728-13.376-9.728s-13.376 3.584-13.376 9.728v16.128c0 6.144 3.968 9.728 13.376 9.728s13.376-3.584 13.376-9.728V86.48h-9.088zm16.61-37.12V98h9.088V87.824l-.064-4.096 2.496 4.096L448.126 98h10.88l-13.632-18.816 12.672-14.848h-10.88l-5.952 7.296-2.432 3.328.064-3.392V49.36h-9.088zM509.505 98h10.112l-7.424-8.768c1.6-3.136 2.432-6.912 2.432-11.264v-3.904h-8.128v3.456c0 1.728-.128 3.136-.32 4.48l-7.04-8.448c5.824-4.416 8.512-7.488 8.512-13.632 0-5.888-4.288-11.072-12.608-11.072-8.896 0-12.672 5.312-12.672 11.456 0 4.16 1.408 7.104 5.824 12.416-6.4 4.736-8.384 8.384-8.384 13.632 0 7.68 4.736 12.608 15.168 12.608 4.864 0 8.96-1.216 12.224-3.648L509.505 98zm-13.76-5.248c-4.608 0-6.976-2.688-6.976-6.08s1.152-5.952 4.16-8.32l9.856 11.712c-1.728 1.792-4.096 2.688-7.04 2.688zm-4.416-32.512c0-3.392 1.472-5.184 3.712-5.184s3.712 1.344 3.712 5.376c0 2.752-.768 5.248-4.032 7.552l-.192.128c-2.816-3.328-3.2-5.184-3.2-7.872zm82.056 22.208c0-4.608-2.496-8.064-6.848-9.344 3.392-1.216 5.568-4.16 5.568-8.704v-2.56c0-7.424-4.032-12.032-14.848-12.032h-15.488V98h16.768c10.816 0 14.848-4.416 14.848-11.904v-3.648zm-22.016 9.344V76.816h6.208c4.16 0 6.208 2.112 6.208 6.336v2.304c0 4.224-2.048 6.336-6.208 6.336h-6.208zm0-35.776h4.928c4.16 0 6.208 2.048 6.208 6.208V64.4c0 4.096-1.92 6.464-6.208 6.464h-4.928V56.016zM593.994 93.2c-3.264 0-4.544-1.664-4.544-4.16V64.336h-9.088v24.256c0 6.144 3.584 10.368 10.56 10.368 3.648 0 6.848-1.28 8.32-3.264l.64 2.304h7.808V64.336h-9.088V89.04c0 2.496-1.344 4.16-4.608 4.16zm20.745-28.864V98h9.088V81.36c0-7.744 2.752-10.944 9.92-10.944h.448v-7.04h-.192c-5.952 0-8.768 2.432-10.304 5.824l-.704-4.864h-8.256zm37.946 4.8c3.008 0 4.544 1.664 4.544 4.16V98h9.088V73.104c0-6.144-4.16-9.728-10.88-9.728-4.032 0-6.464 1.664-7.936 3.456l-.704-2.496h-7.808V98h9.088V73.296c0-2.496 1.6-4.16 4.608-4.16z" fill="#752E96"/>
</svg>
