<svg viewBox="0 0 271 56" fill="none" xmlns="http://www.w3.org/2000/svg">
    <path d="M92.354 41.985c0 8.296-4.863 12.946-16.593 12.946H57.023V1.074H75.76c11.73 0 16.593 5.007 16.593 13.662v27.249zM67.75 47.994h6.582c5.148 0 7.294-2.146 7.294-7.009V15.022c0-4.793-1.501-7.009-6.58-7.009H67.75v39.98zM130.184 54.93l-6.436-17.808c-1.36-3.647-2.29-4.577-5.723-4.577h-4.578V54.93H102.72V1.074h18.738c9.512 0 15.164 4.721 15.164 12.946v5.58c0 6.507-3.65 9.511-8.227 10.441 3.076.93 4.364 2.288 5.937 6.367l6.937 18.523h-11.085zm-16.737-29.324h5.865c5.079 0 6.58-3.074 6.58-6.292v-5.007c0-3.433-1.501-6.294-6.58-6.294h-5.865v17.593zM158.286 38.338l-2.575 16.593h-11.157l9.226-53.857h22.314l9.227 53.857h-11.157l-2.575-16.593h-13.303zm12.303-6.937L166.87 8.013h-3.863l-3.719 23.388h11.301zM226.94 39.122v3.218c0 8.296-3.791 13.66-17.309 13.66-13.517 0-17.308-5.364-17.308-13.66V13.66c0-8.296 4.434-13.66 17.308-13.66 12.873 0 17.309 5.364 17.309 13.66v2.503h-10.728v-2.218c0-3.431-1.503-7.008-6.581-7.008-5.077 0-6.58 3.577-6.58 7.008v28.11c0 4.076 1.503 7.008 6.58 7.008 5.078 0 6.581-2.932 6.581-7.008v-2.933h10.728zM270.133 42.34c0 8.296-4.436 13.66-17.31 13.66-12.873 0-17.307-5.364-17.307-13.66V13.66c0-8.296 4.434-13.66 17.307-13.66 12.874 0 17.31 5.364 17.31 13.66v28.68zm-10.728-28.395c0-3.431-1.503-7.008-6.582-7.008-5.076 0-6.579 3.577-6.579 7.008v28.11c0 3.433 1.503 7.008 6.579 7.008 5.079 0 6.582-3.575 6.582-7.008v-28.11z" fill="#fff"/>
    <path d="M22.905 18.563h-11.89L0 1.074h11.89l11.015 17.489z" fill="#A0F"/>
    <path d="M28.835 28.023 45.808 1.074h-11.89l-16.96 26.928 16.96 26.928h11.89L28.862 28.023h-.027zM15.26 30.7 0 54.928h11.89l9.316-14.79-5.946-9.44z" fill="#A0F"/>
</svg>
